<svg width="293" height="178" viewBox="0 0 293 178" fill="none" xmlns="http://www.w3.org/2000/svg">
    <path d="M246.463 87.785C244.442 87.785 242.45 87.9196 240.497 88.1805C240.676 86.1269 240.774 84.0481 240.774 81.9482C240.774 42.5217 208.457 10.5605 168.592 10.5605C139.045 10.5605 113.647 28.1213 102.478 53.2652C96.0654 47.4116 87.4916 43.8347 78.0753 43.8347C58.1959 43.8347 42.0822 59.7711 42.0822 79.4317C42.0822 79.6463 42.0864 79.8609 42.0907 80.0756C19.2924 84.1491 2 103.873 2 127.594C2 154.266 23.8622 175.888 50.8305 175.888H246.463C271.061 175.888 291 156.168 291 131.84C291.004 107.505 271.061 87.785 246.463 87.785Z"
          fill="#EFF4FD"/>
    <path d="M159.822 26.6343L174.343 29.0606V160.617H157.231L159.822 26.6343Z" fill="#CDD5E0"/>
    <path d="M159.824 83.4563L174.786 87.0699H214.887L214.154 81.7217L159.824 83.4563Z" fill="#B6BFCE"/>
    <path d="M159.821 26.6343H157.316V159.767H159.821V26.6343Z" fill="#E5E5E5"/>
    <path d="M213.227 26.6343H210.722V159.767H213.227V26.6343Z" fill="#E5E5E5"/>
    <path d="M249.598 163.594V175.667L259.127 173.498V161.797L249.598 163.594Z" fill="#CDD5E0"/>
    <path d="M213.226 26.6343V159.238L223.694 153.708V35.5881L213.226 26.6343Z" fill="#CDD5E0"/>
    <path d="M205.214 80.778C205.214 81.1441 201.019 81.4437 195.841 81.4437C190.667 81.4437 186.468 81.1441 186.468 80.778C186.113 80.5376 185.888 80.1233 185.773 79.587C185.773 79.5833 185.773 79.5796 185.773 79.5796C185.769 79.5648 185.765 79.5574 185.761 79.5426C185.029 75.9365 188.861 66.9044 189.201 65.9945C189.851 64.234 191.227 63.8197 191.227 63.8197V60.92C191.227 60.7018 192.798 60.5242 194.884 60.4798C195.19 60.4724 195.512 60.4688 195.841 60.4688C197.714 60.4688 199.329 60.5797 200.047 60.7314C200.309 60.7905 200.451 60.8497 200.451 60.9163V63.816C200.451 63.816 201.826 64.2303 202.477 65.9908C202.873 67.0412 207.935 78.9471 205.214 80.778Z"
          fill="#E8CFB8"/>
    <path d="M191.37 63.7752C191.426 63.7605 191.492 63.7422 191.574 63.7202C191.507 63.7422 191.437 63.7605 191.37 63.7752Z" fill="#CEB4A3"/>
    <path d="M200.456 60.9134V63.8132C200.456 63.8132 200.445 63.8095 200.43 63.8058C200.407 63.7984 200.377 63.791 200.355 63.7836C200.325 63.7762 200.284 63.7614 200.232 63.754C200.157 63.7318 200.086 63.717 200.011 63.7022C199.794 63.6504 199.506 63.5875 199.174 63.5247C197.715 63.2584 196.34 63.2029 195.158 63.2473H195.154C194.825 63.2621 194.511 63.2806 194.216 63.3064C193.001 63.41 192.074 63.6023 191.595 63.717C194.362 62.9292 194.84 61.3092 194.889 60.4696C195.196 60.4622 195.517 60.4585 195.846 60.4585C197.719 60.4585 199.334 60.5695 200.052 60.7211C200.31 60.784 200.456 60.8469 200.456 60.9134Z"
          fill="#CEB4A3"/>
    <path d="M205.214 80.7751C205.214 81.1412 201.019 81.4408 195.841 81.4408C190.667 81.4408 186.468 81.1412 186.468 80.7751C186.356 80.6974 186.255 80.6049 186.169 80.494C185.982 80.2573 185.851 79.9466 185.773 79.5841C185.859 79.769 186.472 80.5014 191.074 80.6974C196.365 80.9193 201.655 77.2318 201.599 72.7675C201.539 68.3033 200.87 64.3198 197.139 63.2842C194.955 62.6776 197.755 62.5778 200.447 62.6V63.8168C200.447 63.8168 201.823 64.2311 202.474 65.9916C202.739 66.698 205.117 72.3311 205.812 76.492C206.16 78.5078 206.104 80.1759 205.214 80.7751Z"
          fill="#CEB4A3"/>
    <path d="M200.455 60.9135V63.8133C200.455 63.8133 200.444 63.8096 200.429 63.8059C200.414 63.8022 200.388 63.7948 200.354 63.7837C200.324 63.7763 200.283 63.7615 200.231 63.7541C200.171 63.7393 200.096 63.7208 200.01 63.7023C199.793 63.6505 199.505 63.5876 199.173 63.5248C198.261 63.3509 196.982 63.1697 195.685 63.1882C197.401 62.9663 199.965 62.3671 200.051 60.7212C200.309 60.7841 200.455 60.8469 200.455 60.9135Z"
          fill="#AA9488"/>
    <path d="M205.215 80.7752C205.215 81.1414 201.02 81.441 195.842 81.441C190.668 81.441 186.469 81.1414 186.469 80.7752C186.357 80.6975 186.256 80.6051 186.17 80.4941C186.17 80.4941 190.353 81.4151 196.978 80.9195C203.091 80.4608 205.566 79.3697 205.82 76.4922C206.161 78.5079 206.105 80.176 205.215 80.7752Z"
          fill="#AA9488"/>
    <path d="M162.827 82.4283C162.89 82.1879 162.789 63.5172 163.103 62.9587C163.417 62.4002 166.577 62.145 166.577 62.145V82.3803L162.827 82.4283Z" fill="#CEB4A3"/>
    <path d="M166.576 82.3802V60.8283L170.763 60.3179V82.2545L166.576 82.3802Z" fill="#2C3C49"/>
    <path d="M170.764 60.3179L179.935 62.6665V81.6479L170.764 82.2545V60.3179Z" fill="#222C38"/>
    <path d="M172.644 81.9885V66.3469L175.683 65.9771V81.8997L172.644 81.9885Z" fill="#EC685B"/>
    <path d="M175.683 65.9771L182.338 67.6821V81.4596L175.683 81.8997V65.9771Z" fill="#D15954"/>
    <path d="M166.209 64.823L163.48 65.1632V64.5197L166.209 64.1831V64.823Z" fill="#EC685B"/>
    <path d="M166.209 65.8584L163.48 66.1987V65.5551L166.209 65.2148V65.8584Z" fill="#EC685B"/>
    <path d="M166.209 66.8936L163.48 67.2301V66.5903L166.209 66.25V66.8936Z" fill="#EC685B"/>
    <path d="M172.299 63.1323L179.01 64.4564V65.3478L172.247 64.2419L172.299 63.1323Z" fill="#2C3C49"/>
    <path d="M176.651 71.2876L181.41 72.2271V72.8595L176.61 72.0717L176.651 71.2876Z" fill="#CEB4A3"/>
    <path d="M176.651 72.8599L181.41 73.459V74.0915L176.61 73.6477L176.651 72.8599Z" fill="#CEB4A3"/>
    <path d="M211.469 81.3813H159.016V83.582H211.469V81.3813Z" fill="#E5E5E5"/>
    <path d="M184.735 118.475C184.802 118.257 184.694 101.277 185.034 100.77C185.374 100.263 188.81 100.03 188.81 100.03V118.431L184.735 118.475Z" fill="#EC685B"/>
    <path d="M188.812 118.431V98.8318L193.359 98.3657V118.32L188.812 118.431Z" fill="#E8CFB8"/>
    <path d="M193.359 98.3657L203.323 100.504V117.765L193.359 118.32V98.3657Z" fill="#CEB4A3"/>
    <path d="M195.404 118.076V103.851L198.706 103.514V117.994L195.404 118.076Z" fill="#2C3C49"/>
    <path d="M198.706 103.514L205.937 105.064V117.591L198.706 117.994V103.514Z" fill="#222C38"/>
    <path d="M188.413 102.464L185.448 102.774V102.19L188.413 101.879V102.464Z" fill="#E8CFB8"/>
    <path d="M188.413 103.407L185.448 103.714V103.129L188.413 102.822V103.407Z" fill="#E8CFB8"/>
    <path d="M188.413 104.347L185.448 104.654V104.069L188.413 103.762V104.347Z" fill="#E8CFB8"/>
    <path d="M195.031 100.929L202.322 102.131V102.944L194.972 101.935L195.031 100.929Z" fill="#EC685B"/>
    <path d="M199.756 108.344L204.927 109.195V109.772L199.715 109.058L199.756 108.344Z" fill="#2C3C49"/>
    <path d="M199.756 109.772L204.927 110.319V110.896L199.715 110.49L199.756 109.772Z" fill="#2C3C49"/>
    <path d="M167.693 117.713V105.042L170.4 104.742V117.639L167.693 117.713Z" fill="#CEB4A3"/>
    <path d="M170.4 104.742L176.326 106.125V117.281L170.4 117.639V104.742Z" fill="#AA9488"/>
    <path d="M171.26 109.044L175.5 109.806V110.316L171.227 109.68L171.26 109.044Z" fill="#CEB4A3"/>
    <path d="M171.26 110.316L175.5 110.804V111.318L171.227 110.956L171.26 110.316Z" fill="#CEB4A3"/>
    <path d="M211.469 117.433H159.016V119.633H211.469V117.433Z" fill="#E5E5E5"/>
    <path d="M163.581 157.481V124.862L168.777 124.089V157.296L163.581 157.481Z" fill="#2C3C49"/>
    <path d="M168.777 124.089L180.158 127.647V156.375L168.777 157.296V124.089Z" fill="#222C38"/>
    <path d="M170.684 128.351L179.014 130.356V131.706L170.617 130.03L170.684 128.351Z" fill="#2C3C49"/>
    <path d="M174.883 153.898V130.223L178.656 129.664V153.761L174.883 153.898Z" fill="#EC685B"/>
    <path d="M178.655 129.664L186.914 132.246V153.095L178.655 153.761V129.664Z" fill="#D15954"/>
    <path d="M179.855 137.697L185.762 139.121V140.079L179.807 138.888L179.855 137.697Z" fill="#CEB4A3"/>
    <path d="M179.855 140.079L185.762 140.988V141.946L179.807 141.27L179.855 140.079Z" fill="#CEB4A3"/>
    <g opacity="0.9">
        <g opacity="0.9">
            <path opacity="0.9"
                  d="M77.6995 169.16C77.9838 169.16 78.2175 168.934 78.2239 168.648C78.227 168.535 78.505 157.027 79.0294 129.483C79.1779 121.624 80.1635 110.374 84.0112 101.402C86.3047 96.0477 88.5634 94.0271 88.5855 94.0083C95.8544 87.5348 103.098 86.6706 107.897 87.0855C113.115 87.538 116.663 89.5523 116.698 89.5743C116.95 89.7188 117.273 89.634 117.418 89.3857C117.563 89.1343 117.478 88.8169 117.228 88.6692C117.077 88.5813 113.476 86.5292 108.039 86.0484C103.022 85.6054 95.4564 86.4884 87.8905 93.2258C87.7989 93.3075 85.477 95.3627 83.0888 100.89C79.1431 110.028 78.1322 121.473 77.9806 129.465C77.4562 157.005 77.1782 168.51 77.1749 168.623C77.1687 168.912 77.3993 169.151 77.6868 169.16C77.69 169.16 77.6931 169.16 77.6995 169.16Z"
                  fill="#5D8900"/>
        </g>
        <g opacity="0.9">
            <path opacity="0.9"
                  d="M76.2938 169.16C76.3 169.16 76.3063 169.16 76.3156 169.16C76.6022 169.147 76.8266 168.906 76.8141 168.617C76.7923 168.045 74.6301 111.221 74.8949 97.7921C75.1597 84.4985 80.7366 74.865 80.7927 74.7677C80.9391 74.5197 80.8581 74.1995 80.612 74.052C80.3658 73.9045 80.0481 73.9861 79.9016 74.2341C79.8455 74.3314 74.1285 84.1909 73.8574 97.7701C73.5895 111.23 75.7548 168.083 75.7766 168.658C75.786 168.937 76.0165 169.16 76.2938 169.16Z"
                  fill="#4A6801"/>
        </g>
        <g opacity="0.9">
            <path opacity="0.9"
                  d="M69.9948 169.16C70.0201 169.16 70.0422 169.157 70.0674 169.154C70.3546 169.113 70.5566 168.85 70.5156 168.564C70.4998 168.458 68.9565 157.558 64.3424 135.859C63.0011 129.551 60.1259 120.371 54.0443 112.435C50.3864 107.667 47.3377 105.635 47.2115 105.55C46.9685 105.39 46.6434 105.456 46.4824 105.698C46.3215 105.939 46.3877 106.262 46.6308 106.422C46.6623 106.441 49.6921 108.467 53.2426 113.116C56.5217 117.403 60.9307 124.872 63.3135 136.076C67.9181 157.734 69.4583 168.602 69.4741 168.709C69.5119 168.969 69.736 169.16 69.9948 169.16Z"
                  fill="#5D8900"/>
        </g>
        <g opacity="0.9">
            <path opacity="0.9"
                  d="M75.1524 169.161C75.4232 169.161 75.6526 168.961 75.6813 168.691C75.71 168.397 78.7211 139.139 82.532 122.674C84.4948 114.199 89.6408 108.228 93.6142 104.709C97.9349 100.883 101.848 99.0453 101.886 99.0265C102.15 98.9044 102.265 98.5914 102.141 98.3315C102.017 98.0716 101.701 97.9589 101.434 98.081C101.271 98.1562 97.3677 99.9877 92.9323 103.908C88.8346 107.53 83.5261 113.685 81.4996 122.439C77.6728 138.967 74.6585 168.291 74.6266 168.585C74.5979 168.873 74.8114 169.127 75.1014 169.155C75.1173 169.158 75.1332 169.161 75.1524 169.161Z"
                  fill="#4A6801"/>
        </g>
        <g opacity="0.9">
            <path opacity="0.9"
                  d="M71.3447 124.996C71.3447 124.996 74.277 124.547 77.3301 120.982C80.3831 117.418 81.6871 116.39 83.7066 117.062C83.7066 117.062 81.9797 115.278 78.6022 117.902C75.2247 120.526 71.3447 124.996 71.3447 124.996Z"
                  fill="#3E5103"/>
            <path opacity="0.9"
                  d="M70.9805 121.754C71.0536 121.695 73.6901 120.729 77.1789 117.368C80.6677 114.007 82.7158 113.71 84.6017 115.494C84.6017 115.494 82.7667 112.245 79.685 113.423C76.6032 114.6 70.9805 121.754 70.9805 121.754Z"
                  fill="#3E5103"/>
            <path opacity="0.9"
                  d="M70.2769 118.405C70.2769 118.405 74.3699 117.211 77.0477 113.191C79.7287 109.171 80.7337 105.725 80.7337 105.725C80.7337 105.725 75.1014 112.851 73.7815 114.631C72.4617 116.412 70.2769 118.405 70.2769 118.405Z"
                  fill="#3E5103"/>
            <path opacity="0.9"
                  d="M70.0982 116C70.0886 116.15 75.4347 113.001 78.4369 102.87C78.4369 102.87 74.4552 108.927 72.8141 110.798C71.1763 112.67 70.2095 114.45 70.0982 116Z"
                  fill="#3E5103"/>
            <path opacity="0.9"
                  d="M69.0551 112.482C69.0551 112.482 74.6842 108.315 76.8723 98.79C76.8723 98.79 74.045 103.198 72.458 105.591C70.8711 107.987 68.9851 111.095 69.0551 112.482Z"
                  fill="#3E5103"/>
            <path opacity="0.9"
                  d="M67.7031 109.268C67.7031 109.268 70.012 107.631 72.3559 102.607C74.6998 97.5843 74.4295 96.416 74.4295 96.416C74.4295 96.416 71.3637 100.771 70.5559 102.798C69.7481 104.822 67.9416 107.662 67.7031 109.268Z"
                  fill="#3E5103"/>
            <path opacity="0.9"
                  d="M65.8876 105.975C65.8876 105.975 71.8825 101.408 72.2418 90.1621C72.2418 90.1621 69.4781 96.441 68.3269 99.1932C67.1756 101.945 65.4105 105.188 65.8876 105.975Z"
                  fill="#3E5103"/>
            <path opacity="0.9"
                  d="M63.8397 103.017C63.8397 103.017 67.0105 101.477 67.8755 95.8354C68.7374 90.1937 68.5911 88.0039 68.5911 88.0039C68.5911 88.0039 66.8133 94.5734 65.856 96.7319C64.8956 98.8905 63.086 101.999 63.8397 103.017Z"
                  fill="#3E5103"/>
            <path opacity="0.9"
                  d="M61.5375 100.271C61.5375 100.271 64.015 98.2183 64.791 92.6048C65.5701 86.9881 65.179 85.6636 65.179 85.6636C65.179 85.6636 63.5347 91.855 62.8764 93.7575C62.2181 95.663 61.4198 99.496 61.5375 100.271Z"
                  fill="#3E5103"/>
            <path opacity="0.9"
                  d="M59.2181 97.931C59.2181 97.931 62.1153 92.4518 61.3743 87.3662C60.6301 82.2806 59.8573 80.6499 59.8573 80.6499C59.8573 80.6499 59.9336 86.7352 59.6887 89.303C59.4407 91.8739 58.6043 97.35 59.2181 97.931Z"
                  fill="#3E5103"/>
            <path opacity="0.9"
                  d="M56.6107 95.6919C56.6107 95.6919 58.0291 92.8492 56.4008 86.9295C54.7725 81.0098 53.4526 80.3257 53.4526 80.3257C53.4526 80.3257 54.8138 84.8428 55.364 88.0385C55.911 91.2342 55.9778 95.1796 56.6107 95.6919Z"
                  fill="#3E5103"/>
            <path opacity="0.9"
                  d="M54.6208 94.2139C54.6208 94.2139 54.837 89.4001 51.2083 83.6959C47.5796 77.9918 46.8672 78.9602 46.8672 78.9602C46.8672 78.9602 50.4259 83.724 51.3387 86.801C52.2514 89.878 53.9942 93.7735 54.6208 94.2139Z"
                  fill="#3E5103"/>
            <path opacity="0.9"
                  d="M53.8216 93.6827C54.1746 93.8326 52.4318 88.9594 47.6327 85.7262C42.8336 82.493 38.2445 82.6742 38.2445 82.6742C38.2445 82.6742 46.0203 84.4486 49.2547 88.4033C49.2547 88.4033 42.9895 84.9765 37.8692 85.4107C37.8692 85.4107 42.2485 85.7856 44.745 86.8508C44.745 86.8508 38.3494 85.8105 35.9292 86.5821C35.9292 86.5821 43.9722 85.695 51.2519 91.5022C51.2519 91.5022 45.4192 87.0351 35.9356 89.7497C35.9356 89.7497 42.7509 87.8317 49.6808 91.7615C49.6808 91.7615 45.4733 88.8938 38.7915 92.355C38.7947 92.355 42.9704 89.0406 53.8216 93.6827Z"
                  fill="#3E5103"/>
            <path opacity="0.9"
                  d="M43.7583 93.2551C43.7583 93.2551 47.8609 92.2617 51.3147 93.4644C54.7685 94.6671 58.8457 97.7159 58.9697 97.7066C59.0937 97.6972 59.628 98.6281 59.628 98.6281C59.628 98.6281 52.9208 94.4422 50.3129 93.833C47.7051 93.2239 44.6615 93.2363 43.7583 93.2551Z"
                  fill="#3E5103"/>
            <path opacity="0.9"
                  d="M47.7354 94.4199C47.7354 94.4199 51.8538 95.5289 56.4049 97.9343C60.9559 100.34 61.7478 100.502 61.7478 100.502L61.9004 101.374C61.9004 101.374 54.4871 97.6406 52.7189 96.6222C50.9506 95.6039 47.7354 94.4199 47.7354 94.4199Z"
                  fill="#3E5103"/>
            <path opacity="0.9"
                  d="M63.5913 102.995C63.5976 102.705 55.6533 96.8287 50.6475 98.1063C50.6475 98.1063 54.273 97.8283 58.4138 100.44C62.5545 103.051 63.48 104.198 63.48 104.198C63.48 104.198 58.1498 98.9935 52.5016 100.896C52.5016 100.896 56.7886 99.9619 61.222 103.204C65.6553 106.447 65.9543 108.287 65.9543 108.287C65.9543 108.287 61.8135 103.073 55.9331 103.054C55.9331 103.054 60.4173 103.179 67.0069 110.283C67.0069 110.283 62.3891 104.801 57.6537 104.657C57.6537 104.657 64.3768 106.291 68.0819 113.141C68.0819 113.141 64.2464 108.681 57.8349 108.702C57.8349 108.702 62.7294 109.511 64.733 111.108C64.733 111.108 62.5863 110.118 60.6113 109.808C60.6113 109.808 65.5599 111.623 67.4903 114.853C69.4176 118.083 70.995 121.501 70.995 121.501C70.995 121.501 70.1872 115.244 69.0487 112.479C67.9197 109.721 63.5913 102.995 63.5913 102.995Z"
                  fill="#3E5103"/>
        </g>
        <g opacity="0.9">
            <path opacity="0.9"
                  d="M84.0828 99.8248C84.0828 99.8248 77.043 90.4141 82.7453 78.8345C82.7453 78.8345 81.7033 88.5425 82.8025 92.3388C83.9017 96.135 84.9437 97.9095 84.0828 99.8248Z"
                  fill="#5D8900"/>
            <path opacity="0.9"
                  d="M86.6314 95.7659C86.6314 95.7659 81.3262 87.5006 87.0794 78.4341C87.0794 78.4341 85.4497 86.3238 86.1041 89.5254C86.7585 92.727 87.5114 94.2574 86.6314 95.7659Z"
                  fill="#5D8900"/>
            <path opacity="0.9"
                  d="M88.8359 93.121C88.8359 93.121 84.6362 84.261 91.5139 75.9863C91.5139 75.9863 88.8804 83.6069 89.1155 86.8649C89.3537 90.1228 89.9033 91.7377 88.8359 93.121Z"
                  fill="#5D8900"/>
            <path opacity="0.9"
                  d="M91.6622 90.7954C91.6622 90.7954 88.873 81.7321 96.8722 75.1567C96.8722 75.1567 93.1394 81.8604 92.8821 84.9618C92.6216 88.0664 92.9202 89.6813 91.6622 90.7954Z"
                  fill="#5D8900"/>
            <path opacity="0.9"
                  d="M95.299 88.8962C95.299 88.8962 93.8599 79.5449 102.818 74.4468C102.818 74.4468 98.0977 80.3899 97.3798 83.3881C96.6618 86.3831 96.719 88.0168 95.299 88.8962Z"
                  fill="#5D8900"/>
            <path opacity="0.9"
                  d="M107.852 75.9863C107.852 75.9863 99.6116 79.3037 99.0176 87.5503C99.0176 87.5503 102.14 82.3739 103.722 80.5431C105.308 78.7154 107.852 75.9863 107.852 75.9863Z"
                  fill="#5D8900"/>
            <path opacity="0.9"
                  d="M115.563 75.1602C115.563 75.1602 109.508 79.1379 107.443 81.6729C105.378 84.2079 103.437 86.7022 103.437 86.7022C103.437 86.7022 103.173 82.3489 107.166 78.8375C111.156 75.3229 115.563 75.1602 115.563 75.1602Z"
                  fill="#5D8900"/>
            <path opacity="0.9"
                  d="M123.475 79.4605C123.475 79.4605 114.602 80.7311 111.727 83.6542C108.855 86.5772 107.025 86.4489 107.025 86.4489C107.025 86.4489 110.053 81.5604 115.25 79.7985C120.447 78.0365 123.475 79.4605 123.475 79.4605Z"
                  fill="#5D8900"/>
            <path opacity="0.9"
                  d="M127.198 85.7351C127.198 85.7351 120.486 83.9199 116.203 85.6225C111.921 87.325 111.642 87.0996 111.642 87.0996C111.642 87.0996 112.738 84.8807 118.726 83.7979C124.714 82.715 127.198 85.7351 127.198 85.7351Z"
                  fill="#5D8900"/>
            <path opacity="0.9"
                  d="M135.176 92.6144C134.969 92.4798 127.272 88.7118 122.65 88.1172C118.027 87.5225 115.251 88.1172 115.251 88.1172L114.368 88.0577C114.368 88.0577 117.799 85.9139 122.923 86.5868C128.05 87.2565 135.176 92.6144 135.176 92.6144Z"
                  fill="#5D8900"/>
            <path opacity="0.9"
                  d="M132.552 99.5397C132.552 99.5397 130.29 87.8757 115.562 88.5172L116.417 88.899C116.417 88.899 122.116 89.2527 126.433 92.6139C130.753 95.972 132.552 99.5397 132.552 99.5397Z"
                  fill="#5D8900"/>
            <path opacity="0.9"
                  d="M126.643 100.545C126.643 100.545 127.952 91.8759 115.562 88.5146C115.562 88.5146 125.871 93.594 125.197 102.645C125.197 102.645 126.824 97.1086 121.652 91.9322C121.652 91.9353 126.23 94.5798 126.643 100.545Z"
                  fill="#5D8900"/>
            <path opacity="0.9" d="M121.122 99.9033C121.122 99.9033 122.812 92.1136 113.047 87.6289C113.047 87.6289 121.415 93.4093 121.122 99.9033Z" fill="#5D8900"/>
            <path opacity="0.9" d="M117.763 98.354C117.766 98.8735 120.105 90.9587 107.852 86.7024L106.683 86.5835C106.683 86.5835 117.693 90.4674 117.763 98.354Z" fill="#5D8900"/>
            <path opacity="0.9" d="M114.622 95.2872C114.622 95.2872 112.614 89.4692 103.802 86.7026L102.823 86.7715C102.82 86.7715 112.026 90.7743 114.622 95.2872Z"
                  fill="#5D8900"/>
            <path opacity="0.9" d="M112.103 94.8489C112.103 94.8489 109.101 87.9074 99.4592 87.6289L98.4268 88.114C98.4268 88.114 106.378 87.4004 112.103 94.8489Z" fill="#5D8900"/>
            <path opacity="0.9" d="M108.719 95.2874C108.719 95.2874 104.284 87.2912 95.3 88.8998L94.5312 89.3317C94.5312 89.3317 103.255 88.3334 108.719 95.2874Z" fill="#5D8900"/>
            <path opacity="0.9" d="M105.996 93.7657C105.996 93.7657 101.52 89.2997 92.0598 90.3669L91.5166 91.2401C91.5134 91.237 100.075 90.0227 105.996 93.7657Z" fill="#5D8900"/>
            <path opacity="0.9" d="M103.725 95.5814C103.725 95.5814 99.1157 89.4254 89.274 93.1215L87.8477 94.0166C87.8477 94.0166 97.4606 90.6178 103.725 95.5814Z"
                  fill="#5D8900"/>
            <path opacity="0.9" d="M100.97 95.2872C100.97 95.2872 94.1052 92.0699 86.6302 95.766L85.7407 97.9035C85.7407 97.9004 90.0262 93.0651 100.97 95.2872Z" fill="#5D8900"/>
            <path opacity="0.9" d="M98.0134 96.6137C98.0134 96.6137 90.0619 95.0646 84.6773 98.6542L84.4009 99.543C84.4009 99.5399 92.0951 96.2069 98.0134 96.6137Z"
                  fill="#5D8900"/>
        </g>
        <g opacity="0.9">
            <path opacity="0.9"
                  d="M80.8094 128.559C80.8094 128.559 77.9271 127.848 75.2102 124.002C72.4934 120.152 71.2876 119.006 69.2134 119.5C69.2134 119.5 71.0967 117.863 74.2208 120.797C77.3481 123.728 80.8094 128.559 80.8094 128.559Z"
                  fill="#4A6801"/>
            <path opacity="0.9"
                  d="M81.4714 125.339C81.4046 125.273 78.8659 124.071 75.6941 120.388C72.5223 116.705 70.5085 116.226 68.4692 117.851C68.4692 117.851 70.5912 114.75 73.5562 116.208C76.5213 117.659 81.4714 125.339 81.4714 125.339Z"
                  fill="#4A6801"/>
            <path opacity="0.9"
                  d="M82.478 122.038C82.478 122.038 78.5108 120.476 76.2075 116.205C73.9042 111.93 73.2139 108.386 73.2139 108.386C73.2139 108.386 78.1768 116.035 79.3316 117.939C80.4865 119.841 82.478 122.038 82.478 122.038Z"
                  fill="#4A6801"/>
            <path opacity="0.9"
                  d="M82.875 119.638C82.8718 119.79 77.8325 116.157 75.7646 105.722C75.7646 105.722 79.1814 112.156 80.6417 114.177C82.1019 116.198 82.9036 118.077 82.875 119.638Z"
                  fill="#4A6801"/>
            <path opacity="0.9"
                  d="M84.2345 116.205C84.2345 116.205 79.0043 111.521 77.6968 101.772C77.6968 101.772 80.1146 106.446 81.473 108.99C82.8347 111.53 84.4317 114.816 84.2345 116.205Z"
                  fill="#4A6801"/>
            <path opacity="0.9"
                  d="M85.8748 113.095C85.8748 113.095 83.7242 111.25 81.8472 105.997C79.9702 100.746 80.3456 99.5972 80.3456 99.5972C80.3456 99.5972 83.002 104.24 83.6224 106.346C84.2427 108.452 85.7825 111.464 85.8748 113.095Z"
                  fill="#4A6801"/>
            <path opacity="0.9"
                  d="M87.985 109.953C87.985 109.953 82.4272 104.838 83.0953 93.5186C83.0953 93.5186 85.2777 100.066 86.1717 102.93C87.0688 105.795 88.5291 109.207 87.985 109.953Z"
                  fill="#4A6801"/>
            <path opacity="0.9"
                  d="M90.2934 107.167C90.2934 107.167 87.2743 105.342 86.9276 99.6002C86.5808 93.8587 86.9276 91.6772 86.9276 91.6772C86.9276 91.6772 88.0983 98.4292 88.8586 100.68C89.6158 102.931 91.1365 106.211 90.2934 107.167Z"
                  fill="#4A6801"/>
            <path opacity="0.9"
                  d="M92.839 104.614C92.839 104.614 90.5579 102.335 90.2939 96.6315C90.0298 90.9277 90.542 89.6309 90.542 89.6309C90.542 89.6309 91.6173 95.9894 92.0977 97.9599C92.5813 99.9304 93.0267 103.846 92.839 104.614Z"
                  fill="#4A6801"/>
            <path opacity="0.9"
                  d="M95.3608 102.474C95.3608 102.474 92.9716 96.7169 94.1773 91.6804C95.3831 86.644 96.2993 85.0732 96.2993 85.0732C96.2993 85.0732 95.6694 91.1736 95.6789 93.7737C95.6917 96.3738 96.0257 101.942 95.3608 102.474Z"
                  fill="#4A6801"/>
            <path opacity="0.9"
                  d="M98.1644 100.453C98.1644 100.453 97.0095 97.4719 99.1728 91.6768C101.336 85.8818 102.714 85.312 102.714 85.312C102.714 85.312 100.948 89.722 100.108 92.8824C99.2651 96.0428 98.8388 99.9964 98.1644 100.453Z"
                  fill="#4A6801"/>
            <path opacity="0.9"
                  d="M100.283 99.1467C100.283 99.1467 100.505 94.296 104.641 88.8944C108.777 83.4928 109.397 84.5253 109.397 84.5253C109.397 84.5253 105.417 88.992 104.228 92.0012C103.041 95.0105 100.948 98.7595 100.283 99.1467Z"
                  fill="#4A6801"/>
            <path opacity="0.9"
                  d="M101.125 98.6841C100.759 98.8037 102.942 94.0663 108.016 91.249C113.09 88.4318 117.649 89.0173 117.649 89.0173C117.649 89.0173 109.74 90.1095 106.155 93.7893C106.155 93.7893 112.709 90.9059 117.773 91.7968C117.773 91.7968 113.377 91.7842 110.79 92.6309C110.79 92.6309 117.255 92.1525 119.596 93.144C119.596 93.144 111.662 91.5418 103.88 96.723C103.88 96.723 110.1 92.7568 119.3 96.3201C119.3 96.3201 112.683 93.7924 105.423 97.1228C105.423 97.1228 109.877 94.6203 116.218 98.6841C116.218 98.6841 112.359 94.9886 101.125 98.6841Z"
                  fill="#4A6801"/>
            <path opacity="0.9"
                  d="M111.189 99.147C111.189 99.147 107.193 97.7871 103.643 98.6874C100.093 99.5877 95.7501 102.285 95.6292 102.266C95.5083 102.248 94.8911 103.135 94.8911 103.135C94.8911 103.135 101.954 99.5278 104.61 99.1501C107.26 98.7692 110.292 99.0494 111.189 99.147Z"
                  fill="#4A6801"/>
            <path opacity="0.9"
                  d="M107.122 99.9648C107.122 99.9648 102.92 100.714 98.1636 102.725C93.4075 104.737 92.6058 104.831 92.6058 104.831L92.3735 105.694C92.3735 105.694 100.101 102.606 101.953 101.737C103.804 100.868 107.122 99.9648 107.122 99.9648Z"
                  fill="#4A6801"/>
            <path opacity="0.9"
                  d="M90.5422 107.167C90.5645 106.875 99.0142 101.681 103.885 103.409C103.885 103.409 100.299 102.808 95.9346 105.062C91.5698 107.315 90.5422 108.386 90.5422 108.386C90.5422 108.386 96.3259 103.636 101.782 106.044C101.782 106.044 97.5953 104.725 92.8837 107.589C88.1721 110.454 87.7044 112.273 87.7044 112.273C87.7044 112.273 92.3047 107.41 98.1647 107.91C98.1647 107.91 93.6854 107.636 86.4701 114.184C86.4701 114.184 91.5698 109.091 96.3036 109.365C96.3036 109.365 89.4574 110.41 85.1403 116.957C85.1403 116.957 89.3683 112.821 95.7533 113.413C95.7533 113.413 90.8031 113.79 88.662 115.216C88.662 115.216 90.889 114.414 92.8869 114.278C92.8869 114.278 87.7903 115.663 85.5761 118.732C83.3587 121.805 81.4785 125.091 81.4785 125.091C81.4785 125.091 82.856 118.883 84.2399 116.208C85.6175 113.529 90.5422 107.167 90.5422 107.167Z"
                  fill="#4A6801"/>
        </g>
        <g opacity="0.9">
            <path opacity="0.9"
                  d="M73.9762 98.1549C73.9762 98.1549 71.4243 97.5468 68.427 95.8202C65.4297 94.0937 64.9461 93.5486 64.1538 93.7187C64.1538 93.7187 64.4974 92.4616 68.1502 94.2165C71.803 95.9715 73.9762 97.0994 73.9762 98.1549Z"
                  fill="#4A6801"/>
            <path opacity="0.9"
                  d="M74.3705 94.9791C74.3705 94.9791 72.4932 94.809 70.39 93.7189C68.2868 92.6256 67.1509 91.8883 66.2886 92.1561C66.2886 92.1561 67.3577 91.233 69.8713 92.1026C72.385 92.9722 74.4118 94.4089 74.3705 94.9791Z"
                  fill="#4A6801"/>
            <path opacity="0.9"
                  d="M74.5265 92.1558C74.2497 92.0833 72.942 91.91 69.9765 90.5111C67.011 89.1122 65.9801 88.8381 65.4614 88.9074C65.4614 88.9074 65.8751 87.644 69.9924 89.2477C74.1129 90.8514 74.5265 92.1558 74.5265 92.1558Z"
                  fill="#4A6801"/>
            <path opacity="0.9"
                  d="M74.9395 89.3519C74.7677 89.3866 73.4918 89.103 70.9654 88.1673C68.439 87.2315 67.8981 86.9952 67.5576 87.0645C67.5576 87.0645 68.6617 85.6782 71.2486 86.7652C73.8354 87.849 74.9395 89.3519 74.9395 89.3519Z"
                  fill="#4A6801"/>
            <path opacity="0.9"
                  d="M75.5256 86.6268C75.516 86.8126 73.1487 86.0911 71.5292 85.2625C69.9096 84.437 68.9455 83.6336 68.1851 84.7174C68.1851 84.7174 69.1333 82.9121 71.0042 83.454C72.8719 83.9928 75.586 85.483 75.5256 86.6268Z"
                  fill="#4A6801"/>
            <path opacity="0.9"
                  d="M76.432 83.9198C76.2506 83.9923 73.7688 83.2392 72.0092 82.5934C70.2528 81.9443 69.2187 82.2531 68.8369 82.5934C68.8369 82.5934 69.5528 81.0306 72.4197 81.5001C75.2865 81.9695 76.432 83.9198 76.432 83.9198Z"
                  fill="#4A6801"/>
            <path opacity="0.9"
                  d="M77.1114 81.4121C77.1114 81.4121 74.7091 81.0214 72.6377 80.3409C70.5663 79.6603 69.6499 79.1972 69.0645 79.4209C69.0645 79.4209 71.6322 78.3969 73.9772 79.2161C76.3191 80.0353 77.7668 80.9836 77.1114 81.4121Z"
                  fill="#4A6801"/>
            <path opacity="0.9"
                  d="M78.0782 78.8981C78.0782 78.8981 76.9359 78.5105 74.9409 77.7827C72.9459 77.0549 72.4495 76.6516 72.2586 77.9151C72.2586 77.9151 71.6859 76.0908 74.1582 76.2357C76.6305 76.3838 78.8005 78.4097 78.0782 78.8981Z"
                  fill="#4A6801"/>
            <path opacity="0.9"
                  d="M79.1362 76.412C78.8116 76.6168 77.3639 75.7882 76.1866 75.1549C75.0093 74.5216 74.0643 74.3641 74.1916 75.785C74.1916 75.785 73.5138 73.2708 75.5375 73.5638C77.5612 73.8568 79.5753 76.1348 79.1362 76.412Z"
                  fill="#4A6801"/>
            <path opacity="0.9"
                  d="M80.1215 74.9908C80.1215 74.9908 78.3142 74.6348 77.6651 73.5383C77.016 72.4419 76.736 72.1709 77.3023 71.8653C77.8655 71.5597 78.3142 72.0197 79.2019 72.9681C80.0896 73.9164 80.1215 74.9908 80.1215 74.9908Z"
                  fill="#4A6801"/>
            <path opacity="0.9"
                  d="M80.2257 74.8055C80.2257 74.8055 78.533 67.2344 83.2899 68.6144C83.2899 68.6144 81.7626 68.2615 81.2121 69.3516C80.6617 70.4449 81.368 73.6555 80.2257 74.8055Z"
                  fill="#4A6801"/>
            <path opacity="0.9"
                  d="M85.1412 67.2718C85.1412 67.2718 82.583 68.5006 81.7653 70.2083C80.9475 71.9128 80.1234 75.262 80.1234 75.262L80.4194 74.991L78.9971 77.7699C78.9971 77.7699 83.4898 70.8731 86.2485 68.9102C89.0072 66.9473 93.0036 65.9076 93.0036 65.9076C93.0036 65.9076 89.039 66.1218 85.0458 69.0835C85.0458 69.0835 88.2467 65.29 93.554 64.5244C93.554 64.5244 88.4185 64.0235 82.6976 71.3016C82.6976 71.3016 84.4762 66.8654 89.6531 65.1231C89.6531 65.1231 86.1499 65.5263 82.5607 70.6525C82.5576 70.6494 82.4971 68.759 85.1412 67.2718Z"
                  fill="#4A6801"/>
            <path opacity="0.9"
                  d="M91.6254 69.8999C91.6254 69.8999 86.2958 70.4607 83.1362 73.7563C79.9735 77.052 78.0071 80.1554 78.0071 80.1554L76.6421 84.1505C76.6421 84.1505 80.9917 76.7432 84.1353 74.6511C87.279 72.5591 88.6695 71.9037 90.2668 71.7714C90.2668 71.7714 86.2099 72.055 83.0408 74.8024C83.0376 74.8055 85.4622 71.1948 91.6254 69.8999Z"
                  fill="#4A6801"/>
            <path opacity="0.9"
                  d="M91.4838 73.6455C91.4838 73.6455 86.5996 73.8093 81.8014 78.5574C77.0032 83.3055 76.4336 85.2653 76.4336 85.2653L75.9404 86.9635C75.9404 86.9635 81.865 78.7591 84.5028 77.0262C87.1405 75.2933 89.0147 74.0141 91.627 73.6455"
                  fill="#4A6801"/>
            <path opacity="0.9" d="M89.6495 78.3623C89.6495 78.3623 80.0084 79.777 75.5252 89.3551L75.207 90.4042C75.207 90.4042 81.6471 80.5457 89.6495 78.3623Z" fill="#4A6801"/>
            <path opacity="0.9" d="M88.8302 79.8652C88.8302 79.8652 79.8924 81.595 74.9414 91.8788C74.9414 91.8757 81.3433 83.1861 88.8302 79.8652Z" fill="#4A6801"/>
            <path opacity="0.9" d="M87.187 83.353C87.187 83.353 79.156 83.7311 74.5264 94.6073V95.7195C74.5264 95.7195 79.4296 85.3411 87.187 83.353Z" fill="#4A6801"/>
            <path opacity="0.9"
                  d="M87.1873 85.688C87.1873 85.688 81.6636 86.8002 78.3545 91.7279C75.0454 96.6555 74.374 97.3266 74.374 97.3266C74.374 97.3266 74.4727 98.1742 74.5299 98.1648C74.5872 98.1553 79.0068 91.6869 82.4496 88.8765C85.8923 86.0661 87.1873 85.688 87.1873 85.688Z"
                  fill="#4A6801"/>
        </g>
        <g opacity="0.9">
            <path opacity="0.9"
                  d="M73.2415 168.461C73.2447 168.461 73.2447 168.461 73.2479 168.461C73.5413 168.458 73.7772 168.223 73.7741 167.935C73.7709 167.612 73.4392 135.414 71.1305 118.592C69.9091 109.681 65.1769 103.074 61.4236 99.1017C57.3609 94.7998 53.6363 92.6301 53.4801 92.5423C53.2282 92.3949 52.9029 92.4796 52.753 92.7273C52.6031 92.975 52.6892 93.2948 52.9412 93.4422C52.9794 93.4641 56.7072 95.6402 60.6678 99.8385C64.3063 103.698 68.8919 110.107 70.075 118.733C72.3741 135.492 72.7058 167.624 72.709 167.947C72.7153 168.229 72.9513 168.461 73.2415 168.461Z"
                  fill="#3E5103"/>
        </g>
        <g opacity="0.9">
            <path opacity="0.9"
                  d="M101.183 115.778C100.944 115.449 105.265 106.037 110.784 107.423C110.784 107.423 106.937 108.514 105.077 111.532C103.217 114.549 101.183 115.778 101.183 115.778Z"
                  fill="#3E5103"/>
            <path opacity="0.9"
                  d="M101.182 115.779C101.182 115.779 108.176 107.48 114.029 111.218C114.029 111.218 110.929 109.581 105.976 113.015C105.976 113.015 114.786 109.86 119.882 115.431C119.882 115.431 115.336 110.538 104.593 114.684C104.593 114.684 115.476 112.441 121.398 117.469C121.398 117.469 115.196 112.931 101.182 115.779Z"
                  fill="#3E5103"/>
            <path opacity="0.9"
                  d="M99.6378 117.059C99.6378 117.059 106.8 113.122 119.886 117.808C119.886 117.808 112.485 115.224 105.233 116.347C97.9847 117.469 99.6378 117.059 99.6378 117.059Z"
                  fill="#3E5103"/>
            <path opacity="0.9"
                  d="M97.7617 118.874C97.7617 118.874 108.628 114.753 115.978 116.97C115.978 116.97 110.755 116.001 106.87 117.24C102.985 118.479 97.7617 118.874 97.7617 118.874Z"
                  fill="#3E5103"/>
            <path opacity="0.9"
                  d="M95.8037 120.79C95.8037 120.79 107.856 116.876 115.616 120.32C115.616 120.32 110.634 118.811 105.71 119.68C100.785 120.549 97.3869 121.17 95.8037 120.79Z"
                  fill="#3E5103"/>
            <path opacity="0.9"
                  d="M94.1274 123.24C94.1274 123.24 107.063 118.206 112.932 120.791C112.932 120.791 108.818 119.586 103.906 120.904C98.9947 122.221 95.965 124.303 94.1274 123.24Z"
                  fill="#3E5103"/>
            <path opacity="0.9"
                  d="M92.2852 125.975C92.2852 125.975 104.929 120.107 112.937 122.638C112.937 122.638 106.54 121.948 103.037 123.269C99.5336 124.583 93.8366 126.781 92.2852 125.975Z"
                  fill="#3E5103"/>
            <path opacity="0.9"
                  d="M90.3574 128.867C90.3574 128.867 101.494 123.456 109.68 126.144C109.68 126.144 102.988 125.89 100.327 126.571C97.6631 127.251 91.9979 129.72 90.3574 128.867Z"
                  fill="#3E5103"/>
            <path opacity="0.9"
                  d="M89.0088 131.442C89.0088 131.442 100.829 124.435 108.268 126.796C108.268 126.796 102.984 126.417 100.371 127.571C97.7578 128.725 90.325 131.583 89.0088 131.442Z"
                  fill="#3E5103"/>
            <path opacity="0.9"
                  d="M87.7979 134.099C87.7979 134.099 97.685 127.258 105.709 129.043C105.709 129.043 100.327 128.789 97.4338 130.194C94.5408 131.602 89.3747 134.732 87.7979 134.099Z"
                  fill="#3E5103"/>
            <path opacity="0.9"
                  d="M87.0067 136.991C86.8255 136.94 97.482 129.72 104.047 131.044C104.047 131.044 100.098 131.1 97.4343 132.596C94.7701 134.092 88.7902 137.48 87.0067 136.991Z"
                  fill="#3E5103"/>
            <path opacity="0.9"
                  d="M100.921 115.779C100.963 115.691 99.5574 112.416 100.921 108.681C102.285 104.945 103.102 102.06 102.778 101.382C102.778 101.382 103.814 103.198 103.08 106.686C102.346 110.174 102.005 113.978 101.834 114.612C101.662 115.249 100.921 115.779 100.921 115.779Z"
                  fill="#3E5103"/>
            <path opacity="0.9"
                  d="M96.4233 100.074C96.4233 100.074 98.4898 102.884 97.9843 107.865C97.4788 112.846 99.6375 117.055 99.6375 117.055C99.6375 117.055 99.8791 107.548 99.4372 105.51C98.9953 103.471 96.4233 100.074 96.4233 100.074Z"
                  fill="#3E5103"/>
            <path opacity="0.9"
                  d="M92.7966 101.884C92.7203 101.708 95.3208 104.553 95.804 108.564C96.2873 112.576 98.0739 117.773 97.5399 119.109C97.5399 119.109 95.0474 114.354 94.6786 110.496C94.313 106.642 93.2099 102.837 92.7966 101.884Z"
                  fill="#3E5103"/>
            <path opacity="0.9"
                  d="M90.0469 102.562C90.1327 102.703 91.4648 107.056 92.0148 109.343C92.5648 111.626 95.0604 118.793 95.2162 120.907C95.2162 120.907 90.8226 115.973 90.546 110.901C90.2726 105.827 90.0469 102.562 90.0469 102.562Z"
                  fill="#3E5103"/>
            <path opacity="0.9"
                  d="M85.9097 106.507C85.9097 106.507 89.4512 111.353 90.7324 115.023C92.0168 118.692 93.8734 123.598 93.8734 123.598C93.8734 123.598 90.7356 120.336 89.0125 115.051C87.2894 109.766 85.9097 106.507 85.9097 106.507Z"
                  fill="#3E5103"/>
            <path opacity="0.9"
                  d="M83.1533 109.54C83.29 109.54 86.183 112.576 88.4339 117.466C90.6847 122.359 92.2552 125.178 92.1726 126.144C92.1726 126.144 89.5466 123.278 87.3752 117.842C85.207 112.407 83.1533 109.54 83.1533 109.54Z"
                  fill="#3E5103"/>
            <path opacity="0.9"
                  d="M81.3638 114.116C81.3638 114.116 85.0261 117.588 86.7747 121.129C88.5264 124.67 90.2558 128.048 90.3576 129.315C90.4593 130.579 90.3576 129.516 90.3576 129.516C90.3576 129.516 87.0099 125.611 84.8513 120.79C82.6927 115.969 81.3638 114.116 81.3638 114.116Z"
                  fill="#3E5103"/>
            <path opacity="0.9"
                  d="M79.3901 114.615C79.4823 114.75 83.4404 119.457 85.2207 123.535C87.001 127.612 89.0357 129.171 89.0102 131.737C89.0102 131.737 85.2652 128.098 83.4277 123.601C81.5933 119.1 79.3901 114.615 79.3901 114.615Z"
                  fill="#3E5103"/>
            <path opacity="0.9"
                  d="M77.0112 120.054C76.9317 119.953 81.8912 123.538 83.7605 126.571C85.6299 129.604 87.5119 135.611 87.5119 135.611C87.5119 135.611 83.4267 130.413 81.6845 126.794C79.9392 123.175 77.1574 120.239 77.0112 120.054Z"
                  fill="#3E5103"/>
            <path opacity="0.9"
                  d="M86.2343 139.035C86.4791 139.164 82.8517 129.29 79.9269 125.894C77.0021 122.497 74.8784 122.638 74.8784 122.638C74.8784 122.638 78.8396 123.711 81.3639 129.959C83.8881 136.206 84.9531 138.364 86.2343 139.035Z"
                  fill="#3E5103"/>
        </g>
        <g opacity="0.9">
            <path opacity="0.9"
                  d="M47.3647 106.248C47.6031 105.918 43.2827 96.4919 37.7637 97.8802C37.7637 97.8802 41.6104 98.9732 43.4702 101.995C45.33 105.016 47.3647 106.248 47.3647 106.248Z"
                  fill="#5D8900"/>
            <path opacity="0.9"
                  d="M47.3636 106.247C47.3636 106.247 40.3695 97.9361 34.5167 101.68C34.5167 101.68 37.6164 100.041 42.5695 103.48C42.5695 103.48 33.7601 100.32 28.6639 105.898C28.6639 105.898 33.2101 100.999 43.9524 105.151C43.9524 105.151 33.0702 102.905 27.1475 107.94C27.1475 107.94 33.35 103.398 47.3636 106.247Z"
                  fill="#5D8900"/>
            <path opacity="0.9"
                  d="M48.9086 107.529C48.9086 107.529 41.746 103.587 28.6606 108.279C28.6606 108.279 36.0617 105.691 43.3133 106.816C50.565 107.94 48.9086 107.529 48.9086 107.529Z"
                  fill="#5D8900"/>
            <path opacity="0.9"
                  d="M50.7854 109.351C50.7854 109.351 39.919 105.224 32.5688 107.444C32.5688 107.444 37.7922 106.474 41.6771 107.714C45.562 108.955 50.7854 109.351 50.7854 109.351Z"
                  fill="#5D8900"/>
            <path opacity="0.9"
                  d="M52.7436 111.27C52.7436 111.27 40.6914 107.35 32.9312 110.799C32.9312 110.799 37.9129 109.288 42.8374 110.158C47.7619 111.028 51.1604 111.65 52.7436 111.27Z"
                  fill="#5D8900"/>
            <path opacity="0.9"
                  d="M54.4179 113.723C54.4179 113.723 41.482 108.682 35.6133 111.27C35.6133 111.27 39.7271 110.064 44.6389 111.383C49.5507 112.702 52.5772 114.788 54.4179 113.723Z"
                  fill="#5D8900"/>
            <path opacity="0.9"
                  d="M56.2631 116.462C56.2631 116.462 43.6196 110.585 35.6113 113.12C35.6113 113.12 42.0078 112.429 45.5112 113.751C49.0146 115.074 54.7116 117.266 56.2631 116.462Z"
                  fill="#5D8900"/>
            <path opacity="0.9"
                  d="M58.19 119.357C58.19 119.357 47.0535 113.939 38.8672 116.631C38.8672 116.631 45.5593 116.377 48.2202 117.058C50.8844 117.74 56.5496 120.212 58.19 119.357Z"
                  fill="#5D8900"/>
            <path opacity="0.9"
                  d="M59.5376 121.936C59.5376 121.936 47.7175 114.919 40.2783 117.284C40.2783 117.284 45.5621 116.904 48.1753 118.06C50.7886 119.216 58.2214 122.077 59.5376 121.936Z"
                  fill="#5D8900"/>
            <path opacity="0.9"
                  d="M60.7482 124.597C60.7482 124.597 50.8611 117.747 42.8369 119.534C42.8369 119.534 48.2192 119.279 51.1122 120.686C54.0053 122.094 59.1714 125.231 60.7482 124.597Z"
                  fill="#5D8900"/>
            <path opacity="0.9"
                  d="M61.5407 127.493C61.7219 127.443 51.0654 120.212 44.5005 121.538C44.5005 121.538 48.449 121.594 51.1131 123.092C53.7772 124.591 59.7572 127.983 61.5407 127.493Z"
                  fill="#5D8900"/>
            <path opacity="0.9"
                  d="M47.6248 106.247C47.5835 106.159 48.9887 102.88 47.6248 99.1395C46.261 95.3986 45.4439 92.509 45.7682 91.8306C45.7682 91.8306 44.7318 93.6492 45.4662 97.1418C46.2006 100.635 46.5407 104.444 46.7124 105.079C46.8841 105.72 47.6248 106.247 47.6248 106.247Z"
                  fill="#5D8900"/>
            <path opacity="0.9"
                  d="M52.1228 90.5244C52.1228 90.5244 50.0564 93.3387 50.5619 98.3264C51.0673 103.314 48.9087 107.529 48.9087 107.529C48.9087 107.529 48.6671 98.0092 49.109 95.9676C49.5509 93.926 52.1228 90.5244 52.1228 90.5244Z"
                  fill="#5D8900"/>
            <path opacity="0.9"
                  d="M55.7511 92.3363C55.8274 92.1604 53.2268 95.0092 52.7436 99.0265C52.2604 103.044 50.4737 108.248 51.0078 109.586C51.0078 109.586 53.5003 104.825 53.869 100.961C54.2346 97.1011 55.3378 93.2912 55.7511 92.3363Z"
                  fill="#5D8900"/>
            <path opacity="0.9"
                  d="M58.5008 93.0151C58.415 93.1565 57.0829 97.5161 56.5329 99.8058C55.983 102.092 53.4873 109.269 53.3315 111.386C53.3315 111.386 57.7251 106.446 58.0017 101.367C58.2751 96.2848 58.5008 93.0151 58.5008 93.0151Z"
                  fill="#5D8900"/>
            <path opacity="0.9"
                  d="M62.6366 96.9634C62.6366 96.9634 59.095 101.816 57.8138 105.491C56.5295 109.166 54.6729 114.078 54.6729 114.078C54.6729 114.078 57.8107 110.812 59.5338 105.519C61.2569 100.227 62.6366 96.9634 62.6366 96.9634Z"
                  fill="#5D8900"/>
            <path opacity="0.9"
                  d="M65.3925 100.003C65.2558 100.003 62.3627 103.044 60.1119 107.94C57.8611 112.84 56.2906 115.664 56.3732 116.631C56.3732 116.631 58.9992 113.761 61.1706 108.317C63.3387 102.874 65.3925 100.003 65.3925 100.003Z"
                  fill="#5D8900"/>
            <path opacity="0.9"
                  d="M67.1826 104.586C67.1826 104.586 63.5202 108.063 61.7717 111.609C60.0231 115.156 58.2905 118.538 58.1888 119.807C58.087 121.073 58.1888 120.008 58.1888 120.008C58.1888 120.008 61.5364 116.098 63.6951 111.27C65.8537 106.443 67.1826 104.586 67.1826 104.586Z"
                  fill="#5D8900"/>
            <path opacity="0.9"
                  d="M69.157 105.085C69.0648 105.221 65.1067 109.935 63.3264 114.018C61.5461 118.101 59.5114 119.662 59.5369 122.232C59.5369 122.232 63.2819 118.588 65.1194 114.084C66.9538 109.574 69.157 105.085 69.157 105.085Z"
                  fill="#5D8900"/>
            <path opacity="0.9"
                  d="M71.5344 110.532C71.6139 110.431 66.6544 114.021 64.7851 117.059C62.9126 120.099 61.0337 126.111 61.0337 126.111C61.0337 126.111 65.1189 120.906 66.8611 117.282C68.6064 113.657 71.3882 110.717 71.5344 110.532Z"
                  fill="#5D8900"/>
            <path opacity="0.9"
                  d="M62.3125 129.541C62.0677 129.669 65.6951 119.782 68.62 116.38C71.5448 112.979 73.6684 113.12 73.6684 113.12C73.6684 113.12 69.7072 114.194 67.183 120.451C64.6587 126.708 63.5937 128.868 62.3125 129.541Z"
                  fill="#5D8900"/>
        </g>
        <g opacity="0.9">
            <path opacity="0.9"
                  d="M80.0255 169.16C80.2764 169.16 80.4987 168.98 80.5463 168.729C81.7942 161.789 83.3564 153.924 85.1822 145.351C87.5796 134.11 92.0155 126.623 95.3147 122.322C98.8901 117.663 101.938 115.631 101.967 115.612C102.211 115.452 102.278 115.128 102.116 114.885C101.954 114.643 101.627 114.577 101.383 114.738C101.253 114.822 98.1852 116.858 94.5081 121.643C91.1296 126.035 86.5889 133.676 84.1471 145.137C82.3181 153.722 80.7559 161.597 79.5048 168.546C79.454 168.832 79.6445 169.103 79.9334 169.153C79.9652 169.156 79.997 169.16 80.0255 169.16Z"
                  fill="#3E5103"/>
        </g>
        <g opacity="0.9">
            <path opacity="0.9" d="M77.7517 122.155C77.9395 122.356 69.5799 112.738 54.9966 119.874C54.9966 119.874 70.8182 114.798 77.7517 122.155Z" fill="#5D8900"/>
            <path opacity="0.9" d="M77.7513 122.155C77.7513 122.155 67.4434 115.511 55.3623 126.74C55.3623 126.74 67.9018 118.344 77.7513 122.155Z" fill="#5D8900"/>
            <path opacity="0.9"
                  d="M77.5095 122.697C77.5095 122.697 70.5187 120.115 64.5307 124.459C58.5427 128.803 56.4575 133.103 56.4575 133.103C56.4575 133.103 65.2565 125.473 70.0667 123.783C74.8768 122.093 77.5095 122.697 77.5095 122.697Z"
                  fill="#5D8900"/>
            <path opacity="0.9"
                  d="M76.5103 122.406C76.5103 122.406 71.5187 123.032 67.8418 129.347C64.1649 135.663 64.2159 141.396 64.2159 141.396C64.2159 141.396 70.1402 126.042 75.9341 123.169L76.5103 122.406Z"
                  fill="#5D8900"/>
            <path opacity="0.9"
                  d="M77.9777 122.381C77.9777 122.381 79.5854 121.019 81.5082 124.459C83.4309 127.898 84.7489 131.851 87.06 133.835C87.06 133.835 84.1981 132.849 81.5177 128.289C78.8373 123.729 78.1751 122.659 77.1851 122.913L77.9777 122.381Z"
                  fill="#5D8900"/>
            <path opacity="0.9"
                  d="M78.1942 122.631C78.1942 122.631 75.361 123.567 76.351 130.587C77.3411 137.606 78.433 140.22 78.433 140.22C78.433 140.22 74.2149 133.723 74.476 127.153C74.737 120.581 78.1942 122.631 78.1942 122.631Z"
                  fill="#5D8900"/>
        </g>
    </g>
    <path d="M104.741 137.804L87.7632 139.243L94.9078 160.34L114.94 156.168L104.741 137.804Z" fill="#EC685B"/>
    <path d="M271.096 150.037L270.741 159.767L182.618 176L80.0314 175.358L65.4692 169.545V159.968L271.096 150.037Z" fill="#1761CC"/>
    <path d="M271.141 150.121L143.624 175.358H110.511L65.4692 160.129L111.627 154.282L178.759 145.779L220.191 140.53L271.141 150.121Z" fill="#1D67D7"/>
    <path d="M204.351 153.523L163.82 163.077C163.82 163.077 137.275 161.461 132.722 160.344C128.164 159.227 129.394 156.198 128.56 155.817C127.813 155.476 119.984 156.364 111.628 154.285L178.76 145.782L204.351 153.523Z"
          fill="#1855AD"/>
    <path d="M217.842 150.868C222.209 150.868 225.75 150.078 225.75 149.104C225.75 148.13 222.209 147.34 217.842 147.34C213.475 147.34 209.935 148.13 209.935 149.104C209.935 150.078 213.475 150.868 217.842 150.868Z"
          fill="#1855AD"/>
    <path d="M229.677 139.554V142.331C229.677 142.675 229.625 143.008 229.527 143.323V143.326C229.527 143.33 229.524 143.334 229.524 143.337C229.094 144.687 227.815 145.664 226.312 145.664H224.716V143.63H226.312C226.473 143.63 226.626 143.604 226.768 143.548C227.269 143.367 227.625 142.886 227.625 142.331V139.554C227.625 138.71 226.933 138.023 226.08 138.023H225.161V135.988H226.08C226.671 135.988 227.236 136.129 227.729 136.384C227.744 136.391 227.752 136.399 227.759 136.399L227.763 136.403C228.899 137.002 229.677 138.189 229.677 139.554Z"
          fill="#EC685B"/>
    <path d="M225.753 134.768C225.753 135.097 225.312 135.397 224.56 135.645C223.405 136.029 221.509 136.273 219.367 136.273C217.225 136.273 215.329 136.026 214.174 135.645C213.423 135.397 212.981 135.097 212.981 134.768C212.981 133.94 215.838 133.263 219.367 133.263C222.896 133.263 225.753 133.936 225.753 134.768Z"
          fill="#D15954"/>
    <path d="M224.562 135.644C223.407 136.029 221.511 136.273 219.369 136.273C217.227 136.273 215.331 136.025 214.176 135.644C215.331 135.259 217.227 135.015 219.369 135.015C221.507 135.011 223.407 135.259 224.562 135.644Z"
          fill="#222C38"/>
    <path d="M225.751 134.768V148.467C225.751 148.73 225.587 148.981 225.288 149.207C224.342 149.939 222.046 150.454 219.366 150.454C216.109 150.454 213.421 149.699 213.032 148.715C212.999 148.634 212.98 148.552 212.98 148.467V134.768C212.98 135.4 214.636 135.947 216.988 136.166C217.721 136.236 218.524 136.273 219.366 136.273C221.616 136.273 223.594 135.999 224.731 135.581C224.951 135.504 225.134 135.419 225.288 135.326C225.591 135.156 225.751 134.967 225.751 134.768Z"
          fill="#EC685B"/>
    <path opacity="0.21" d="M216.991 136.166V145.601C214.725 143.274 213.559 140.833 212.983 139.243V134.768C212.983 135.4 214.639 135.944 216.991 136.166Z" fill="white"/>
    <path d="M229.52 143.337C229.09 144.687 227.811 145.663 226.308 145.663H225.755V143.936C225.755 143.936 226.02 144.946 227 145.02C227.979 145.094 229.052 144.439 229.52 143.337Z"
          fill="#D15954"/>
    <path d="M228.245 139.964V142.084C228.245 142.894 227.583 143.548 226.765 143.548C227.266 143.367 227.621 142.886 227.621 142.331V139.554C227.621 138.71 226.929 138.022 226.077 138.022H226.282C227.363 138.022 228.245 138.892 228.245 139.964Z"
          fill="#D15954"/>
    <path d="M227.721 136.384C227.452 136.277 225.751 135.666 225.751 138.023V135.988H226.073C226.667 135.988 227.228 136.133 227.721 136.384Z" fill="#D15954"/>
    <path d="M225.292 135.33V149.207C224.346 149.939 222.05 150.453 219.369 150.453C216.113 150.453 213.425 149.699 213.036 148.715C213.036 148.715 221.579 150.912 223.325 144.761C224.742 139.761 224.772 136.591 224.734 135.585C224.951 135.503 225.138 135.418 225.292 135.33Z"
          fill="#D15954"/>
    <path d="M165.024 161.309V162.663L141.915 156.819V155.488L164.953 161.291L165.024 161.309Z" fill="#A3A3A3"/>
    <path d="M166.306 152.999L166.25 153.335L165.917 155.388L158.1 156.279L154.111 156.734L165.267 159.36L164.953 161.291L141.915 155.488L147.418 154.926L165.858 153.043L166.306 152.999Z"
          fill="#E5E5E5"/>
    <path opacity="0.31"
          d="M168.066 154.699C168.066 154.699 166.836 156.02 165.917 156.075C164.997 156.134 165.674 156.885 165.027 157.84C164.38 158.79 160.933 157.122 159.598 156.682C159.228 156.56 158.716 156.419 158.103 156.282C156.491 155.927 154.188 155.617 151.971 155.857C148.909 156.19 147.421 154.929 147.421 154.929L165.861 153.05L166.253 153.342L168.066 154.699Z"
          fill="#222C38"/>
    <path d="M148.266 88.6085C147.993 89.8587 147.634 91.094 147.212 92.2887C147.137 92.5032 147.058 92.714 146.98 92.9211C146.98 92.9211 146.98 92.9211 146.98 92.9248C145.447 96.9304 143.14 100.304 140.504 101.609C139.854 101.935 139.177 102.134 138.493 102.183C138.175 102.205 137.857 102.197 137.532 102.153C137.435 102.138 137.342 102.127 137.244 102.105C137.222 102.086 137.192 102.075 137.17 102.053C130.074 97.574 128.754 86.4485 131.569 81.4701C134.504 76.2847 139.884 74.7016 142.707 74.317C143.903 74.1542 144.901 74.4242 145.664 74.7904C146.898 75.8519 148.199 77.4682 148.696 79.7762C148.696 79.791 148.7 79.7984 148.703 79.8132C149.137 82.4725 148.939 85.5719 148.266 88.6085Z"
          fill="#F7AC84"/>
    <path d="M139.866 84.9992C139.81 84.9992 139.75 84.9697 139.72 84.9179C138.838 83.4865 134.819 83.9636 134.43 84.1005C134.374 84.1375 134.299 84.1412 134.239 84.1005C134.161 84.0487 134.138 83.9451 134.19 83.8638C134.325 83.664 135.918 83.5494 136.733 83.5716C137.914 83.5938 139.443 83.8157 140.012 84.7403C140.06 84.8217 140.034 84.9253 139.955 84.9734C139.926 84.9919 139.896 84.9992 139.866 84.9992Z"
          fill="#222C38"/>
    <path d="M147.56 85.975C147.518 85.975 147.477 85.9602 147.444 85.9306C146.296 84.9098 144.584 85.938 144.569 85.9491C144.49 85.9972 144.382 85.975 144.333 85.8937C144.284 85.816 144.307 85.7087 144.389 85.6606C144.468 85.6126 146.333 84.4845 147.675 85.6791C147.746 85.742 147.75 85.8493 147.687 85.9196C147.653 85.9565 147.604 85.975 147.56 85.975Z"
          fill="#222C38"/>
    <path d="M133.45 81.4076C133.45 81.4076 137.305 81.2337 139.081 82.1843C140.857 83.1348 141.043 82.1029 140.692 81.6887C140.217 81.1339 136.206 79.9873 133.45 81.4076Z"
          fill="#222C38"/>
    <path d="M148.883 82.8717C148.883 82.8717 147.066 82.3835 146.064 82.9901C145.066 83.6004 145.137 82.746 145.369 82.4427C145.687 82.0359 147.788 81.47 148.883 82.8717Z"
          fill="#222C38"/>
    <path d="M165.918 155.387L165.267 159.36L154.111 156.734L165.918 155.387Z" fill="#2C3C49"/>
    <path d="M142.161 95.4331C142.139 95.1927 142.251 95.152 142.408 95.2038C142.636 95.2778 142.812 94.993 142.643 94.8266C141.896 94.0794 140.501 94.1016 138.213 94.1016C135.252 94.0979 134.957 94.4049 134.957 94.4049C134.957 94.4049 136.706 96.9607 138.785 97.7633C139.761 98.1405 140.897 97.9556 141.6 97.19C141.959 96.7942 142.236 96.2283 142.161 95.4331Z"
          fill="#EC685B"/>
    <path d="M145.664 74.7943C144.905 74.4281 143.903 74.1581 142.707 74.3209C139.881 74.7055 134.504 76.2885 131.569 81.474C130.556 83.2642 130.078 85.8495 130.209 88.6346C130.448 93.624 132.646 99.2534 137.245 102.109C137.163 102.094 137.08 102.079 136.998 102.057C136.968 102.05 136.934 102.038 136.901 102.031C135.622 101.706 134.493 101.177 133.495 100.507C127.016 96.1724 126.089 85.9457 126.089 85.9457C125.58 86.0381 124.885 86.0086 124.201 85.7644C124.193 85.4316 124.197 85.0913 124.212 84.7399C124.223 84.4736 124.238 84.1925 124.26 83.9114C130.788 74.957 142.991 73.104 142.991 73.104C142.991 73.104 144.288 73.6033 145.664 74.7943Z"
          fill="#EC685B"/>
    <path d="M142.486 92.8805C141.993 92.8805 141.555 92.7141 141.529 92.7067C141.44 92.6734 141.398 92.5735 141.432 92.4885C141.466 92.3997 141.567 92.359 141.653 92.3923C141.66 92.396 142.46 92.6993 143.021 92.4404C143.245 92.3368 143.399 92.163 143.488 91.9004C143.672 91.3678 143.402 90.9498 142.991 90.3211C142.714 89.8957 142.397 89.4149 142.142 88.7676C141.35 86.7667 142.752 85.683 142.767 85.6719C142.842 85.6164 142.95 85.6275 143.006 85.7052C143.062 85.7791 143.047 85.8864 142.976 85.9419C142.928 85.9789 141.765 86.8924 142.46 88.6456C142.703 89.2596 143.01 89.7256 143.279 90.1398C143.713 90.8019 144.053 91.3234 143.814 92.015C143.694 92.3627 143.477 92.6105 143.167 92.7511C142.95 92.8472 142.714 92.8805 142.486 92.8805Z"
          fill="#222C38"/>
    <path d="M138.793 85.3019C138.453 86.0601 137.698 86.4633 137.1 86.2044C136.505 85.9455 136.3 85.1207 136.636 84.3624C136.745 84.122 136.894 83.9149 137.066 83.7559C137.702 83.7891 138.352 83.889 138.879 84.0961C139.003 84.4438 138.984 84.8802 138.793 85.3019Z"
          fill="#002D4E"/>
    <path d="M146.827 86.5481C146.52 87.2398 145.888 87.6355 145.421 87.4321C144.954 87.2287 144.83 86.5 145.137 85.8084C145.197 85.6678 145.275 85.5458 145.357 85.4274C145.817 85.298 146.397 85.2277 146.943 85.4311C147.036 85.7455 147.002 86.1524 146.827 86.5481Z"
          fill="#002D4E"/>
    <path d="M136.165 89.8499C136.623 88.7088 135.951 87.3763 134.664 86.8736C133.378 86.371 131.963 86.8885 131.506 88.0296C131.048 89.1707 131.72 90.5032 133.007 91.0059C134.293 91.5085 135.708 90.991 136.165 89.8499Z"
          fill="#EC685B"/>
    <path d="M148.266 88.6081C147.993 89.8582 147.634 91.0936 147.211 92.2882C146.34 92.2401 145.593 91.7149 145.391 90.9345C145.133 89.9322 145.862 88.8855 147.025 88.5933C147.454 88.4823 147.888 88.4971 148.266 88.6081Z"
          fill="#EC685B"/>
    <path d="M135.791 94.4009C135.791 94.4009 136.961 95.0038 138.55 94.8817C140.135 94.7596 141.739 94.8114 142.161 95.4328C142.161 95.4328 141.339 96.4499 139.862 96.3279C138.385 96.2058 135.791 94.4009 135.791 94.4009Z"
          fill="white"/>
    <path d="M148.722 79.7837C148.707 79.8058 148.699 79.8169 148.699 79.8169C148.696 79.8021 148.692 79.7947 148.692 79.78C148.195 77.472 146.894 75.8557 145.66 74.7942C144.284 73.6032 142.987 73.1076 142.987 73.1076C142.987 73.1076 130.787 74.9569 124.256 83.9113C124.256 83.915 124.256 83.915 124.256 83.915C124.237 84.1961 124.219 84.4735 124.207 84.7435C124.192 85.0912 124.189 85.4352 124.196 85.768C124.2 86.0233 124.211 86.2748 124.222 86.5152C124.424 90.4468 125.654 93.1986 124.978 96.679C124.72 98.0031 123.961 99.453 122.869 100.659C121.874 101.757 120.603 102.652 119.179 103.059L119.175 103.063C118.786 103.178 118.379 103.252 117.971 103.285C116.528 103.403 114.977 102.996 113.432 101.809C112.804 101.931 112.202 102.064 111.627 102.197C111.604 102.201 111.582 102.208 111.563 102.212C106.322 103.466 103.073 105.208 101.065 106.799C103.278 102.482 107.432 99.2052 112.883 93.1949C119.373 86.027 115.545 81.326 121.56 70.6369C124.263 65.8324 127.423 63.7722 130.081 62.9622C133.068 62.0487 135.42 62.707 135.786 62.8217C135.79 62.8217 135.79 62.8217 135.79 62.8217C135.82 62.8328 135.838 62.8402 135.838 62.8402C135.838 62.8402 136.459 62.4925 137.558 62.4629C139.341 62.4148 142.4 63.2101 146.127 67.7002C151.87 74.6056 149.006 79.3509 148.722 79.7837Z"
          fill="#222C38"/>
    <path d="M102.086 139.243C100.187 138.363 97.768 136.491 96.7024 131.849C95.9323 128.484 96.5604 123.52 97.5661 118.804C97.8166 123.731 98.8783 130.74 102.086 139.243Z"
          fill="#222C38"/>
    <path d="M146.405 103.314C146.091 103.196 145.773 103.081 145.459 102.97C143.679 102.353 141.903 101.909 140.501 101.613C142.453 100.644 144.225 98.5467 145.635 95.8948C146.128 94.9665 146.581 93.9678 146.977 92.9248C147.71 94.1786 150.256 99.2606 146.405 103.314Z"
          fill="#222C38"/>
    <path d="M165.06 142.746C164.339 143.263 163.43 144.258 163.296 146.023C163.262 146 163.225 145.971 163.191 145.949C162.768 145.649 162.368 145.372 162.021 145.139H162.017C161.823 145.002 161.639 144.883 161.479 144.784C160.08 143.892 159.729 143.633 157.489 144.181C157.474 143.489 158.054 142.845 158.6 142.413C159.714 141.532 155.934 143.008 155.351 143.241C154.768 143.471 154.846 139.765 154.476 136.573C154.102 133.381 151.859 131.01 149.687 125.813C147.518 120.617 146.954 111.533 146.954 111.533C146.397 115.25 148.337 126.841 149.298 129.519C150.259 132.197 147.847 139.213 142.056 139.324C136.269 139.435 130.171 142.239 125.512 141.122C120.85 140.005 117.785 133.695 114.846 126.231C112.001 119.004 108.898 115.346 108.58 114.884C108.569 114.869 108.561 114.858 108.561 114.85C106.415 110.686 103.473 107.002 100.28 108.611C99.7979 108.851 99.3119 109.217 98.8184 109.72C98.3062 110.246 97.9547 110.908 97.8052 111.618C97.8388 111.337 97.8799 111.059 97.9286 110.782C97.9286 110.782 98.3735 108.929 101.077 106.795C103.084 105.204 106.333 103.462 111.575 102.209C114.132 104.539 116.39 104.964 118.316 104.509C119.026 106.972 120.219 110.231 122.095 113.064C124.525 116.755 128.107 119.736 133.244 119.363C142.666 118.679 140.318 107.738 138.497 102.183C139.181 102.135 139.858 101.935 140.508 101.609C142.161 101.961 144.329 102.516 146.412 103.311C148.973 104.298 151.407 105.656 152.577 107.479C155.654 112.273 159.097 141.703 159.097 141.703C159.097 141.703 161.95 142.276 165.06 142.746Z"
          fill="#E8CFB8"/>
    <path d="M172.224 146.67C170.874 145.686 169.087 144.569 168.616 145.165C168.13 145.786 166.474 146.578 164.343 146.774C164.242 146.7 164.133 146.626 164.032 146.552C163.931 146.478 163.827 146.404 163.726 146.33C163.584 146.23 163.438 146.123 163.296 146.027C163.43 144.262 164.339 143.267 165.061 142.75C167.438 143.112 169.962 143.415 171.457 143.363C173.36 143.293 172.964 145.065 172.224 146.67Z"
          fill="#F7AC84"/>
    <path d="M118.312 104.509C116.387 104.964 114.129 104.538 111.571 102.208C112.166 102.068 112.79 101.931 113.441 101.805C114.985 102.992 116.536 103.399 117.979 103.281C118.073 103.658 118.185 104.072 118.312 104.509Z"
          fill="#CEB4A3"/>
    <path d="M158.597 142.409C158.051 142.841 157.471 143.485 157.486 144.177C156.802 144.343 155.938 144.587 154.813 144.909C152.828 145.479 151.239 145.863 149.725 146.093C148.491 143.688 148.371 139.598 148.371 139.598C148.371 139.598 144.988 142.364 144.573 144.265C144.42 144.968 144.367 145.682 144.367 146.307C143.862 146.281 143.339 146.248 142.782 146.203C139.982 145.982 131.973 144.72 125.835 143.711C121.505 143.004 118.099 142.42 118.099 142.42C118.099 142.42 113.074 127.352 111.773 122.909C111.291 121.264 110.151 117.95 108.581 114.887C108.895 115.353 111.998 119.007 114.847 126.235C117.785 133.695 120.851 140.005 125.513 141.125C130.171 142.242 136.269 139.442 142.057 139.328C147.848 139.217 150.256 132.197 149.298 129.523C148.338 126.845 146.397 115.253 146.954 111.536C146.954 111.536 147.519 120.62 149.687 125.817C151.859 131.013 154.103 133.384 154.477 136.576C154.847 139.768 154.768 143.474 155.351 143.245C155.931 143.008 159.711 141.528 158.597 142.409Z"
          fill="#CEB4A3"/>
    <path d="M172.225 146.67C171.623 147.983 170.789 149.189 170.789 149.189C170.789 149.189 169.477 149.17 167.506 149.104C166.957 148.69 165.656 147.724 164.34 146.777C166.475 146.581 168.127 145.786 168.613 145.168C169.088 144.569 170.875 145.686 172.225 146.67Z"
          fill="#EC685B"/>
    <path d="M125.831 143.708C125.001 143.918 124.025 144.336 123.045 145.139C121.505 146.4 120.959 148.945 121.479 151.268C116.921 150.953 112.663 150.531 110.715 150.139C108.117 149.618 106.027 147.34 104.737 145.52C103.72 143.349 102.838 141.255 102.083 139.24C98.8748 130.736 97.813 123.731 97.5625 118.801C97.5625 118.797 97.5625 118.797 97.5625 118.797C97.6223 118.494 97.6896 118.191 97.7569 117.891C97.5438 115.746 97.5363 113.634 97.7943 111.618C97.7943 111.614 97.7943 111.614 97.7943 111.614C97.9438 110.904 98.2953 110.242 98.8075 109.717C99.301 109.214 99.787 108.848 100.269 108.607C103.462 106.999 106.408 110.682 108.55 114.847C108.554 114.854 108.562 114.866 108.569 114.88C110.139 117.939 111.28 121.253 111.762 122.903C113.063 127.345 118.088 142.413 118.088 142.413C118.088 142.413 121.501 143.001 125.831 143.708Z"
          fill="#E8CFB8"/>
    <path d="M164.525 148.626C164.469 148.756 164.376 148.878 164.245 148.97C163.86 149.259 163.172 149.336 162.244 148.863C162.241 148.863 162.241 148.859 162.237 148.859C160.988 148.227 158.038 148.193 158.038 148.193C158.715 148.29 159.489 148.497 160.203 148.722C160.207 148.719 160.207 148.722 160.211 148.722C161.504 149.129 162.603 149.603 162.603 149.603C161.953 149.503 161.373 150.283 161.56 150.897C161.747 151.511 160.779 151.4 160.779 151.4C158.928 150.575 156.199 150.246 156.199 150.246C158.181 150.831 158.872 151.23 158.872 151.23C157.646 151.829 158.323 152.783 158.323 152.783C156.397 152.147 154.12 152.28 151.346 153.005C148.576 153.727 146.871 152.728 145.746 151.766C144.617 150.801 141.016 151.289 136.152 151.681C133.442 151.903 127.224 151.674 121.482 151.274C120.962 148.948 121.504 146.403 123.048 145.146C124.028 144.347 125.004 143.925 125.834 143.714C131.976 144.724 139.981 145.989 142.781 146.207C143.338 146.252 143.865 146.285 144.366 146.311C146.381 146.411 148.008 146.355 149.724 146.096C151.242 145.871 152.827 145.482 154.812 144.913C155.937 144.591 156.797 144.347 157.485 144.18C159.725 143.637 160.08 143.892 161.474 144.783C161.635 144.883 161.818 145.005 162.013 145.138H162.016C162.611 146.599 160.289 146.366 160.289 146.366C160.289 146.366 160.345 146.381 160.439 146.407C160.611 146.466 160.783 146.507 160.951 146.548C160.981 146.555 161.011 146.566 161.044 146.57C161.044 146.57 161.048 146.57 161.052 146.57C161.299 146.636 161.564 146.714 161.792 146.788C162.076 146.877 162.742 147.173 163.347 147.517V147.52C164.035 147.905 164.645 148.352 164.525 148.626Z"
          fill="#F7AC84"/>
    <path d="M133.238 119.363C128.101 119.736 124.519 116.755 122.089 113.064C124.414 115.716 129.009 119.733 134.483 118.116C142.431 115.764 136.999 102.053 136.999 102.053C137.503 102.179 138.001 102.22 138.49 102.183C140.311 107.738 142.659 118.679 133.238 119.363Z"
          fill="#EC685B"/>
    <path d="M134.481 118.116C129.007 119.732 124.412 115.716 122.087 113.064C120.214 110.227 119.017 106.972 118.307 104.509C120.808 103.924 122.741 101.861 124.053 100.585L124.057 100.581C125.919 98.7759 125.949 99.0237 127.882 100.437C128.398 100.81 129.048 101.265 129.901 101.783C130.372 102.068 130.832 102.29 131.277 102.452C133.83 103.399 135.931 102.552 136.829 102.068C136.851 102.053 136.877 102.046 136.896 102.031C136.926 102.042 136.959 102.049 136.993 102.057C136.997 102.057 142.425 115.767 134.481 118.116Z"
          fill="#F7AC84"/>
    <path d="M123.379 154.718C113.67 154.696 108.421 152.602 108.421 152.602C107.03 150.161 105.807 147.802 104.742 145.52C106.028 147.339 108.118 149.618 110.72 150.139C112.664 150.531 116.922 150.953 121.483 151.267C121.771 152.58 122.399 153.819 123.379 154.718Z"
          fill="#CEB4A3"/>
    <path d="M167.782 149.307L167.172 152.991L166.477 155.791C166.477 155.791 162.94 152.606 160.884 151.693C158.824 150.783 159.575 151.752 160.308 152.185C161.041 152.617 164.944 156.649 164.944 156.649C164.705 157.333 163.553 157.533 162.652 156.649C161.751 155.761 159.138 154.245 157.762 153.598C156.386 152.954 155.137 152.991 152.053 153.86C148.969 154.729 149.212 154.644 145.738 153.135C142.273 151.63 139.057 154.034 127.026 154.633C125.748 154.696 124.536 154.726 123.381 154.722C122.402 153.823 121.77 152.584 121.482 151.271C127.225 151.671 133.442 151.896 136.152 151.678C141.017 151.286 144.617 150.798 145.746 151.763C146.871 152.725 148.576 153.723 151.346 153.002C154.121 152.277 156.397 152.14 158.323 152.78C158.323 152.78 157.646 151.83 158.872 151.227C158.872 151.227 158.181 150.831 156.199 150.243C156.199 150.243 158.929 150.576 160.779 151.397C160.779 151.397 161.747 151.508 161.561 150.894C161.374 150.28 161.949 149.499 162.604 149.599C162.604 149.599 161.504 149.126 160.211 148.719C160.207 148.719 160.207 148.715 160.203 148.719C159.489 148.493 158.715 148.286 158.039 148.19C158.039 148.19 160.989 148.22 162.237 148.856C162.241 148.856 162.241 148.86 162.245 148.86C163.172 149.333 163.86 149.255 164.245 148.967C164.376 148.874 164.469 148.752 164.525 148.623C164.645 148.353 164.036 147.902 163.351 147.513V147.51C162.746 147.166 162.08 146.87 161.796 146.781C161.572 146.711 161.303 146.633 161.056 146.563C161.052 146.563 161.048 146.563 161.048 146.563C161.018 146.555 160.989 146.544 160.955 146.541C160.746 146.481 160.566 146.433 160.443 146.4C160.345 146.374 160.293 146.359 160.293 146.359C160.293 146.359 162.615 146.592 162.02 145.131C162.368 145.364 162.772 145.642 163.191 145.941C163.224 145.964 163.262 145.993 163.295 146.015C163.437 146.115 163.579 146.219 163.725 146.319C163.826 146.393 163.931 146.467 164.032 146.541C164.133 146.614 164.241 146.688 164.342 146.762C165.658 147.713 166.955 148.678 167.509 149.089C167.681 149.233 167.782 149.307 167.782 149.307Z"
          fill="#EC685B"/>
    <path d="M133.027 128.313C132.691 128.313 132.41 127.921 132.38 127.407C132.35 126.882 132.597 126.453 132.941 126.435C133.293 126.401 133.58 126.812 133.61 127.337C133.64 127.862 133.394 128.291 133.05 128.31C133.042 128.313 133.035 128.313 133.027 128.313ZM132.967 126.771H132.964C132.851 126.778 132.702 127.023 132.724 127.389C132.747 127.755 132.915 127.977 133.035 127.973C133.147 127.966 133.296 127.722 133.274 127.355C133.251 126.997 133.08 126.771 132.967 126.771Z"
          fill="#E59D35"/>
    <path d="M133.292 131.043C134.215 131.043 134.963 130.385 134.963 129.574C134.963 128.763 134.215 128.106 133.292 128.106C132.369 128.106 131.621 128.763 131.621 129.574C131.621 130.385 132.369 131.043 133.292 131.043Z"
          fill="#E59D35"/>
    <path d="M137.244 102.105C137.161 102.09 137.079 102.075 136.997 102.053C136.967 102.046 136.933 102.035 136.9 102.027C135.621 101.702 134.492 101.173 133.494 100.504C127.015 96.1687 126.088 85.942 126.088 85.942C125.579 86.0344 124.884 86.0049 124.2 85.7607C124.267 90.1029 125.699 92.9768 124.981 96.6717C124.723 97.9958 123.964 99.4457 122.872 100.651C121.605 102.053 119.881 103.122 117.975 103.277C118.072 103.658 118.18 104.069 118.307 104.509C120.809 103.925 122.741 101.861 124.054 100.585L124.057 100.581C125.919 98.7762 125.949 99.0241 127.882 100.437C128.398 100.811 129.049 101.265 129.901 101.783C133.071 103.714 135.793 102.63 136.84 102.064C137.098 102.098 137.244 102.105 137.244 102.105Z"
          fill="#D15954"/>
    <path d="M137.961 84.7542C138.05 84.4719 137.89 84.1722 137.604 84.0847C137.318 83.9971 137.014 84.155 136.925 84.4372C136.837 84.7194 136.997 85.0192 137.283 85.1067C137.569 85.1943 137.872 85.0364 137.961 84.7542Z"
          fill="white"/>
    <path d="M138.42 85.6575C138.509 85.3753 138.349 85.0755 138.063 84.988C137.777 84.9005 137.473 85.0583 137.384 85.3405C137.296 85.6228 137.455 85.9225 137.742 86.01C138.028 86.0976 138.331 85.9397 138.42 85.6575Z"
          fill="white"/>
    <path d="M146.379 86.1258C146.468 85.8435 146.308 85.5438 146.022 85.4563C145.736 85.3687 145.432 85.5266 145.344 85.8088C145.255 86.091 145.415 86.3908 145.701 86.4783C145.987 86.5658 146.291 86.408 146.379 86.1258Z"
          fill="white"/>
    <path d="M146.732 86.9275C146.82 86.6453 146.66 86.3455 146.374 86.258C146.088 86.1705 145.784 86.3283 145.696 86.6106C145.607 86.8928 145.767 87.1925 146.053 87.2801C146.339 87.3676 146.643 87.2098 146.732 86.9275Z"
          fill="white"/>
    <path d="M148.722 79.7837L148.696 79.78C148.696 79.78 149.701 73.8696 146.632 70.1303C143.559 66.391 142.336 67.0493 141.611 65.3405C140.912 63.691 139.712 62.8957 137.562 62.4556C139.345 62.4075 142.404 63.2027 146.131 67.6929C151.87 74.6056 149.006 79.351 148.722 79.7837Z"
          fill="#2C3C49"/>
    <path d="M142.995 73.1078C140.927 72.3902 141.279 71.7319 140.841 70.5853C140.407 69.4424 137.66 69.472 138.609 68.6657C139.559 67.8594 137.491 66.8238 135.241 66.3171C132.99 65.8104 135.656 64.8968 134.097 63.5875C133.39 62.9994 131.491 62.9365 130.085 62.9513C133.072 62.0377 135.424 62.6961 135.79 62.8108C135.794 62.8108 135.794 62.8108 135.794 62.8108C136.261 63.114 136.422 63.3951 136.422 63.3951C142.363 67.693 142.995 73.1078 142.995 73.1078Z"
          fill="#2C3C49"/>
    <path d="M146.405 103.314C146.091 103.196 145.773 103.081 145.459 102.97C147.459 100.5 146.326 97.3262 145.638 95.8948C146.132 94.9665 146.584 93.9678 146.981 92.9248C147.71 94.1786 150.256 99.2606 146.405 103.314Z"
          fill="#2C3C49"/>
    <path d="M124.215 84.7398C124.2 85.0875 124.197 85.4314 124.204 85.7643C124.208 86.0195 124.219 86.271 124.23 86.5114C124.432 90.4431 125.662 93.1949 124.985 96.6753C124.727 97.9994 123.968 99.4493 122.877 100.655C122.709 100.836 122.537 101.017 122.357 101.188C122.256 101.288 122.148 101.38 122.043 101.472C121.206 102.186 120.241 102.752 119.19 103.055C120.263 102.645 121.194 101.901 121.979 100.692C122.084 100.529 122.193 100.355 122.29 100.174C122.843 99.183 123.318 97.9254 123.718 96.3424C125.131 90.7427 121.415 86.8295 124.204 78.6777C126.993 70.5259 130.19 69.6309 130.19 69.6309C124.297 74.4095 124.264 83.7079 124.264 83.9187C124.264 83.9224 124.264 83.9224 124.264 83.9224C124.241 84.1924 124.226 84.4735 124.215 84.7398Z"
          fill="#2C3C49"/>
    <path d="M120.802 87.1476C121.154 90.9979 120.335 98.0623 117.329 98.1215C114.323 98.177 113.437 101.805 113.437 101.805C112.809 101.927 112.207 102.061 111.631 102.194C111.583 101.143 111.796 100.134 112.435 99.3013C115.022 95.9467 116.88 98.5764 118.738 95.366C120.596 92.1519 119.778 86.8184 119.778 86.8184C120.496 70.807 130.463 67.3118 131.087 67.1084C122.63 70.219 120.447 83.301 120.802 87.1476Z"
          fill="#2C3C49"/>
    <path d="M124.201 81.0231C124.085 80.7309 127.383 73.8478 136.539 71.1182C136.539 71.1182 128.097 74.7391 123.644 83.2053L124.201 81.0231Z" fill="#2C3C49"/>
    <path d="M133.166 126.852C133.143 126.904 133.095 126.941 133.035 126.952H133.013C132.964 126.952 132.915 126.93 132.885 126.897C124.365 117.491 122.462 106.14 122.04 101.468C122.144 101.376 122.253 101.283 122.354 101.184C122.724 105.603 124.492 116.995 132.96 126.471C133.757 124.626 138.744 112.546 137.17 102.053C137.192 102.075 137.222 102.086 137.245 102.105C137.342 102.127 137.435 102.138 137.533 102.153C139.174 113.552 133.226 126.719 133.166 126.852Z"
          fill="#E59D35"/>
    <path d="M209.673 122.995L204.133 151.985C203.975 152.813 203.336 153.464 202.514 153.656L164.817 162.282C164.476 162.359 164.155 162.219 163.975 161.967C163.856 161.804 163.796 161.594 163.833 161.372L163.904 160.932L164.218 159.001L164.865 155.029L165.254 152.635L169.755 124.996C169.92 123.997 170.776 123.246 171.8 123.213L208.802 121.985C209.352 121.966 209.774 122.462 209.673 122.995Z"
          fill="#A3A3A3"/>
    <path d="M209.21 122.074L210.305 122.462L209.438 122.706L208.937 122.192L209.21 122.074Z" fill="#A3A3A3"/>
    <path d="M210.723 123.361L205.182 152.351C205.025 153.179 204.386 153.83 203.563 154.023L165.866 162.648C165.526 162.726 165.205 162.585 165.025 162.334C164.906 162.171 164.846 161.96 164.883 161.738L164.891 161.708L164.954 161.298L165.268 159.367L165.915 155.395L166.304 153.002L170.805 125.366C170.97 124.367 171.826 123.616 172.85 123.583L208.738 122.392L209.852 122.355C210.402 122.329 210.828 122.825 210.723 123.361Z"
          fill="#E5E5E5"/>
    <path d="M193.388 140.599C194.223 138.519 193.818 136.409 192.483 135.887C191.148 135.366 189.389 136.63 188.555 138.711C187.72 140.792 188.125 142.902 189.46 143.423C190.795 143.945 192.553 142.68 193.388 140.599Z"
          fill="white"/>
    <path opacity="0.73"
          d="M210.723 123.361L205.182 152.351C205.025 153.179 204.386 153.83 203.563 154.023L165.866 162.648C165.526 162.726 165.205 162.585 165.025 162.334C164.906 162.171 164.846 161.96 164.883 161.738L164.891 161.708C202.666 150.509 208.151 125.832 208.742 122.392L209.856 122.355C210.402 122.329 210.828 122.825 210.723 123.361Z"
          fill="#B6BFCE"/>
    <path fill-rule="evenodd" clip-rule="evenodd"
          d="M246.463 87.785C244.442 87.785 242.45 87.9196 240.497 88.1805C240.676 86.1269 240.774 84.0481 240.774 81.9482C240.774 42.5217 208.457 10.5605 168.592 10.5605C139.045 10.5605 113.647 28.1213 102.478 53.2652C96.0654 47.4116 87.4916 43.8347 78.0753 43.8347C58.1959 43.8347 42.0822 59.7711 42.0822 79.4317C42.0822 79.6463 42.0864 79.8609 42.0907 80.0756C19.2924 84.1491 2.00001 103.873 2.00001 127.594C2.00001 154.266 23.8622 175.888 50.8305 175.888H246.463C271.061 175.888 291 156.168 291 131.84C291.004 107.505 271.061 87.785 246.463 87.785Z"
          stroke="#1D67D7" stroke-width="4" stroke-linejoin="round"/>
    <path d="M181.473 32.4972C194.926 32.4972 205.831 25.6702 205.831 17.2486C205.831 8.82703 194.926 2 181.473 2C168.021 2 157.115 8.82703 157.115 17.2486C157.115 25.6702 168.021 32.4972 181.473 32.4972Z"
          fill="white" stroke="#045EED" stroke-width="4"/>
</svg>
