<svg width="186" height="106" viewBox="0 0 186 106" fill="none" xmlns="http://www.w3.org/2000/svg">
    <path fill-rule="evenodd" clip-rule="evenodd"
          d="M155.95 49.6171C154.68 49.6171 153.42 49.6997 152.189 49.8648C152.303 48.5987 152.359 47.3143 152.359 46.0206C152.359 21.7074 132.011 2 106.907 2C88.3013 2 72.3104 12.8262 65.2718 28.3316C61.2362 24.7259 55.8365 22.5148 49.9062 22.5148C37.392 22.5148 27.2367 32.341 27.2367 44.4701C27.2367 44.5985 27.2367 44.7361 27.2462 44.8646C12.8942 47.3785 2 59.5442 2 74.1689C2 90.6192 15.7646 103.95 32.7502 103.95H155.95C171.438 103.95 184 91.7844 184 76.7837C184 61.7829 171.438 49.6171 155.95 49.6171Z"
          fill="white" stroke="#1D67D7" stroke-width="4" stroke-linejoin="round"/>
    <path d="M45.8197 87.3537C45.8197 90.4091 43.2703 92.8859 40.1254 92.8859C36.9806 92.8859 34.4312 90.4091 34.4312 87.3537C34.4312 84.2983 36.9806 81.8215 40.1254 81.8215C43.2703 81.8215 45.8197 84.2983 45.8197 87.3537Z"
          fill="#B48201"/>
    <path d="M53.141 75.1041C53.141 77.9412 50.7737 80.2411 47.8534 80.2411C44.9332 80.2411 42.5659 77.9412 42.5659 75.1041C42.5659 72.2669 44.9332 69.967 47.8534 69.967C50.7737 69.967 53.141 72.2669 53.141 75.1041Z"
          fill="#5D8900"/>
    <path d="M61.2747 60.4832C61.2747 64.4115 57.9968 67.596 53.9535 67.596C49.9102 67.596 46.6323 64.4115 46.6323 60.4832C46.6323 56.5549 49.9102 53.3704 53.9535 53.3704C57.9968 53.3704 61.2747 56.5549 61.2747 60.4832Z"
          fill="#0A7C00"/>
    <path d="M35.244 75.8943C35.244 78.2949 33.2409 80.241 30.77 80.241C28.299 80.241 26.2959 78.2949 26.2959 75.8943C26.2959 73.4938 28.299 71.5476 30.77 71.5476C33.2409 71.5476 35.244 73.4938 35.244 75.8943Z"
          fill="#DB5104"/>
    <path d="M31.9906 62.854C31.9906 65.9093 29.4411 68.3861 26.2963 68.3861C23.1515 68.3861 20.6021 65.9093 20.6021 62.854C20.6021 59.7986 23.1515 57.3218 26.2963 57.3218C29.4411 57.3218 31.9906 59.7986 31.9906 62.854Z"
          fill="#950000"/>
    <path d="M77.3448 77.6092L71.8501 63.0325H75.9648L78.7507 71.3378C79.0603 72.3895 79.2538 73.3849 79.3311 74.3235H79.4087C79.4515 73.489 79.6451 72.4938 79.9891 71.3378L82.7622 63.0325H86.8769L81.3821 77.6092H77.3448ZM93.1444 70.2947C93.1444 71.7375 93.3765 72.8285 93.8409 73.5674C94.3139 74.3061 95.0792 74.6755 96.1368 74.6755C97.1859 74.6755 97.9384 74.3105 98.394 73.5804C98.8584 72.8415 99.0907 71.7463 99.0907 70.2947C99.0907 68.8519 98.8584 67.7697 98.394 67.0482C97.9297 66.3268 97.1687 65.9661 96.1111 65.9661C95.062 65.9661 94.3052 66.3268 93.8409 67.0482C93.3765 67.761 93.1444 68.8432 93.1444 70.2947ZM103.115 70.2947C103.115 72.6677 102.496 74.5235 101.258 75.8621C100.019 77.2006 98.2952 77.8699 96.0853 77.8699C94.7009 77.8699 93.4797 77.5657 92.4221 76.9572C91.3644 76.34 90.5519 75.4579 89.9843 74.3105C89.4167 73.1631 89.133 71.8245 89.133 70.2947C89.133 67.9131 89.7479 66.0617 90.9774 64.7405C92.207 63.4193 93.9356 62.7587 96.1626 62.7587C97.547 62.7587 98.7682 63.0629 99.8258 63.6714C100.883 64.2798 101.696 65.1534 102.264 66.292C102.831 67.4307 103.115 68.7649 103.115 70.2947ZM107.254 59.2645C107.254 57.9693 107.968 57.3218 109.395 57.3218C110.823 57.3218 111.537 57.9693 111.537 59.2645C111.537 59.8816 111.356 60.364 110.995 60.7117C110.642 61.0507 110.109 61.2202 109.395 61.2202C107.968 61.2202 107.254 60.5683 107.254 59.2645ZM111.356 77.6092H107.422V63.0325H111.356V77.6092ZM122.628 74.7017C123.316 74.7017 124.142 74.5495 125.105 74.2453V77.205C124.124 77.6483 122.921 77.8699 121.493 77.8699C119.92 77.8699 118.772 77.4701 118.049 76.6704C117.335 75.8621 116.979 74.6538 116.979 73.0458V66.0182H115.096V64.3363L117.262 63.0064L118.398 59.9294H120.913V63.0325H124.95V66.0182H120.913V73.0458C120.913 73.6107 121.067 74.028 121.377 74.2975C121.695 74.5668 122.112 74.7017 122.628 74.7017ZM138.247 77.6092L137.486 75.6273H137.383C136.721 76.4705 136.037 77.0572 135.332 77.3875C134.636 77.7091 133.724 77.8699 132.598 77.8699C131.213 77.8699 130.121 77.4701 129.321 76.6704C128.53 75.8707 128.135 74.732 128.135 73.2544C128.135 71.7072 128.668 70.5685 129.734 69.8384C130.809 69.0996 132.426 68.6911 134.584 68.6128L137.086 68.5346V67.8957C137.086 66.4181 136.338 65.6792 134.842 65.6792C133.69 65.6792 132.335 66.0313 130.779 66.7353L129.476 64.0495C131.136 63.1716 132.976 62.7326 134.997 62.7326C136.932 62.7326 138.415 63.1585 139.447 64.0104C140.479 64.8622 140.995 66.1573 140.995 67.8957V77.6092H138.247ZM137.086 70.8554L135.564 70.9075C134.421 70.9423 133.569 71.1509 133.01 71.5334C132.451 71.9159 132.172 72.4982 132.172 73.2805C132.172 74.4018 132.808 74.9624 134.081 74.9624C134.992 74.9624 135.719 74.6973 136.261 74.1671C136.811 73.6368 137.086 72.9328 137.086 72.0549V70.8554Z"
          fill="#1D67D7"/>
    <path d="M59.6479 84.4266H61.926C62.9962 84.4266 63.7703 84.5922 64.2483 84.9233C64.7264 85.2543 64.9655 85.7776 64.9655 86.4929C64.9655 86.9876 64.8313 87.3967 64.5628 87.7202C64.298 88.0399 63.91 88.2472 63.399 88.3425V88.3995C64.6234 88.6164 65.2357 89.2824 65.2357 90.3972C65.2357 91.1432 64.9913 91.7254 64.5021 92.1439C64.0167 92.5626 63.3365 92.7719 62.4611 92.7719H59.6479V84.4266ZM60.5856 87.9999H62.1301C62.7921 87.9999 63.2683 87.8934 63.5588 87.6802C63.8494 87.4634 63.9947 87.1 63.9947 86.5899C63.9947 86.1219 63.8328 85.7852 63.5091 85.5797C63.1856 85.3704 62.6707 85.2658 61.9646 85.2658H60.5856V87.9999ZM60.5856 88.822V91.9442H62.2681C62.919 91.9442 63.408 91.8148 63.7354 91.5561C64.0663 91.2935 64.2318 90.8843 64.2318 90.3288C64.2318 89.8113 64.0627 89.4308 63.7243 89.1873C63.3897 88.9437 62.8786 88.822 62.1909 88.822H60.5856ZM68.5998 86.5159V90.5743C68.5998 91.0842 68.712 91.4647 68.9363 91.7159C69.1605 91.967 69.5119 92.0927 69.9899 92.0927C70.6224 92.0927 71.0839 91.9138 71.3744 91.5561C71.6687 91.1984 71.8157 90.6143 71.8157 89.8037V86.5159H72.7314V92.7719H71.9756L71.8432 91.9327H71.7937C71.6062 92.2409 71.345 92.4769 71.0104 92.6406C70.6794 92.8042 70.3006 92.8861 69.8739 92.8861C69.1385 92.8861 68.5868 92.7052 68.2191 92.3438C67.8551 91.9822 67.6731 91.4039 67.6731 90.6084V86.5159H68.5998ZM79.4823 91.0651C79.4823 91.6475 79.2728 92.0964 78.8535 92.4122C78.4341 92.728 77.8458 92.8861 77.0883 92.8861C76.2866 92.8861 75.6614 92.7547 75.2128 92.4921V91.6132C75.5033 91.7654 75.814 91.8852 76.145 91.9727C76.4797 92.0603 76.8015 92.104 77.1103 92.104C77.5884 92.104 77.9561 92.026 78.2137 91.87C78.471 91.7102 78.5996 91.4686 78.5996 91.145C78.5996 90.9014 78.4967 90.6941 78.2909 90.5229C78.0886 90.3479 77.6914 90.1424 77.0994 89.9064C76.5366 89.6896 76.1357 89.5012 75.8968 89.3414C75.6615 89.1777 75.4848 88.993 75.3672 88.7877C75.2533 88.5821 75.1962 88.3366 75.1962 88.0512C75.1962 87.5413 75.3967 87.1399 75.7976 86.8469C76.1983 86.55 76.748 86.4017 77.4468 86.4017C78.0977 86.4017 78.7339 86.5387 79.3554 86.8126L79.0301 87.5832C78.4232 87.3244 77.8734 87.1951 77.3807 87.1951C76.9467 87.1951 76.6194 87.2654 76.3988 87.4063C76.1781 87.5471 76.0678 87.7412 76.0678 87.9884C76.0678 88.156 76.1083 88.2986 76.1892 88.4165C76.2738 88.5346 76.408 88.6468 76.5918 88.7534C76.7757 88.8599 77.1288 89.0141 77.6509 89.2157C78.3681 89.486 78.8516 89.7579 79.1016 90.0321C79.3554 90.306 79.4823 90.6503 79.4823 91.0651ZM82.7967 92.7719H81.8809V86.5159H82.7967V92.7719ZM81.8037 84.8204C81.8037 84.6035 81.8553 84.4457 81.9581 84.3467C82.0611 84.2439 82.1899 84.1926 82.3443 84.1926C82.4915 84.1926 82.6182 84.2439 82.725 84.3467C82.8316 84.4494 82.8848 84.6074 82.8848 84.8204C82.8848 85.0335 82.8316 85.1935 82.725 85.2999C82.6182 85.4028 82.4915 85.454 82.3443 85.454C82.1899 85.454 82.0611 85.4028 81.9581 85.2999C81.8553 85.1935 81.8037 85.0335 81.8037 84.8204ZM89.7793 92.7719V88.7249C89.7793 88.2148 89.6671 87.8343 89.4428 87.5832C89.2184 87.332 88.8672 87.2066 88.3892 87.2066C87.7567 87.2066 87.2934 87.3835 86.9991 87.7373C86.705 88.0913 86.5577 88.6754 86.5577 89.4897V92.7719H85.6421V86.5159H86.3868L86.5357 87.372H86.5799C86.7675 87.0637 87.0303 86.8258 87.3687 86.6585C87.707 86.4872 88.084 86.4017 88.4995 86.4017C89.2276 86.4017 89.7755 86.5842 90.1433 86.9496C90.511 87.3112 90.6949 87.8914 90.6949 88.6906V92.7719H89.7793ZM96.0392 92.8861C95.1456 92.8861 94.4395 92.6045 93.921 92.0412C93.4062 91.478 93.1487 90.6961 93.1487 89.6952C93.1487 88.6867 93.3878 87.8858 93.8658 87.2921C94.3477 86.6984 94.9929 86.4017 95.802 86.4017C96.5596 86.4017 97.159 86.6604 97.6003 87.1779C98.0416 87.6917 98.2623 88.3709 98.2623 89.2157V89.815H94.0976C94.1159 90.5496 94.2942 91.107 94.6325 91.4875C94.9747 91.868 95.4546 92.0584 96.0724 92.0584C96.7233 92.0584 97.3668 91.9175 98.003 91.636V92.4808C97.6794 92.6254 97.3723 92.728 97.0818 92.789C96.795 92.8537 96.4474 92.8861 96.0392 92.8861ZM95.7911 87.1951C95.3057 87.1951 94.9176 87.3587 94.6271 87.6859C94.3403 88.0132 94.1711 88.466 94.1197 89.0445H97.2804C97.2804 88.4471 97.1516 87.9904 96.8942 87.6746C96.6368 87.3548 96.2691 87.1951 95.7911 87.1951ZM104.633 91.0651C104.633 91.6475 104.423 92.0964 104.004 92.4122C103.584 92.728 102.996 92.8861 102.239 92.8861C101.437 92.8861 100.812 92.7547 100.363 92.4921V91.6132C100.654 91.7654 100.964 91.8852 101.295 91.9727C101.63 92.0603 101.952 92.104 102.261 92.104C102.739 92.104 103.106 92.026 103.364 91.87C103.621 91.7102 103.75 91.4686 103.75 91.145C103.75 90.9014 103.647 90.6941 103.441 90.5229C103.239 90.3479 102.842 90.1424 102.25 89.9064C101.687 89.6896 101.286 89.5012 101.047 89.3414C100.812 89.1777 100.635 88.993 100.517 88.7877C100.403 88.5821 100.346 88.3366 100.346 88.0512C100.346 87.5413 100.547 87.1399 100.948 86.8469C101.348 86.55 101.898 86.4017 102.597 86.4017C103.248 86.4017 103.884 86.5387 104.506 86.8126L104.18 87.5832C103.573 87.3244 103.024 87.1951 102.531 87.1951C102.097 87.1951 101.77 87.2654 101.549 87.4063C101.328 87.5471 101.218 87.7412 101.218 87.9884C101.218 88.156 101.259 88.2986 101.339 88.4165C101.424 88.5346 101.558 88.6468 101.742 88.7534C101.926 88.8599 102.279 89.0141 102.801 89.2157C103.518 89.486 104.002 89.7579 104.252 90.0321C104.506 90.306 104.633 90.6503 104.633 91.0651ZM110.931 91.0651C110.931 91.6475 110.722 92.0964 110.302 92.4122C109.883 92.728 109.295 92.8861 108.537 92.8861C107.736 92.8861 107.11 92.7547 106.662 92.4921V91.6132C106.952 91.7654 107.263 91.8852 107.594 91.9727C107.929 92.0603 108.25 92.104 108.559 92.104C109.037 92.104 109.405 92.026 109.662 91.87C109.92 91.7102 110.049 91.4686 110.049 91.145C110.049 90.9014 109.946 90.6941 109.74 90.5229C109.537 90.3479 109.14 90.1424 108.548 89.9064C107.986 89.6896 107.585 89.5012 107.346 89.3414C107.11 89.1777 106.934 88.993 106.816 88.7877C106.702 88.5821 106.645 88.3366 106.645 88.0512C106.645 87.5413 106.845 87.1399 107.246 86.8469C107.647 86.55 108.197 86.4017 108.896 86.4017C109.547 86.4017 110.183 86.5387 110.804 86.8126L110.479 87.5832C109.872 87.3244 109.322 87.1951 108.829 87.1951C108.395 87.1951 108.068 87.2654 107.848 87.4063C107.627 87.5471 107.517 87.7412 107.517 87.9884C107.517 88.156 107.557 88.2986 107.638 88.4165C107.723 88.5346 107.857 88.6468 108.041 88.7534C108.225 88.8599 108.578 89.0141 109.1 89.2157C109.817 89.486 110.301 89.7579 110.551 90.0321C110.804 90.306 110.931 90.6503 110.931 91.0651ZM121.068 91.0651C121.068 91.6475 120.858 92.0964 120.439 92.4122C120.02 92.728 119.432 92.8861 118.674 92.8861C117.872 92.8861 117.247 92.7547 116.799 92.4921V91.6132C117.089 91.7654 117.4 91.8852 117.731 91.9727C118.065 92.0603 118.387 92.104 118.696 92.104C119.174 92.104 119.542 92.026 119.799 91.87C120.057 91.7102 120.186 91.4686 120.186 91.145C120.186 90.9014 120.083 90.6941 119.877 90.5229C119.674 90.3479 119.277 90.1424 118.685 89.9064C118.122 89.6896 117.722 89.5012 117.483 89.3414C117.247 89.1777 117.071 88.993 116.953 88.7877C116.839 88.5821 116.782 88.3366 116.782 88.0512C116.782 87.5413 116.982 87.1399 117.383 86.8469C117.784 86.55 118.334 86.4017 119.033 86.4017C119.684 86.4017 120.32 86.5387 120.941 86.8126L120.616 87.5832C120.009 87.3244 119.459 87.1951 118.966 87.1951C118.533 87.1951 118.205 87.2654 117.985 87.4063C117.764 87.5471 117.654 87.7412 117.654 87.9884C117.654 88.156 117.694 88.2986 117.775 88.4165C117.859 88.5346 117.994 88.6468 118.178 88.7534C118.361 88.8599 118.714 89.0141 119.237 89.2157C119.954 89.486 120.437 89.7579 120.688 90.0321C120.941 90.306 121.068 90.6503 121.068 91.0651ZM124.327 86.5159V90.5743C124.327 91.0842 124.439 91.4647 124.664 91.7159C124.888 91.967 125.239 92.0927 125.717 92.0927C126.35 92.0927 126.811 91.9138 127.102 91.5561C127.396 91.1984 127.543 90.6143 127.543 89.8037V86.5159H128.459V92.7719H127.703L127.571 91.9327H127.521C127.334 92.2409 127.072 92.4769 126.738 92.6406C126.407 92.8042 126.028 92.8861 125.602 92.8861C124.866 92.8861 124.314 92.7052 123.947 92.3438C123.583 91.9822 123.401 91.4039 123.401 90.6084V86.5159H124.327ZM133.726 92.8861C132.851 92.8861 132.172 92.6082 131.691 92.0527C131.212 91.4934 130.973 90.7037 130.973 89.6837C130.973 88.6372 131.216 87.8287 131.701 87.2578C132.191 86.6871 132.886 86.4017 133.787 86.4017C134.077 86.4017 134.368 86.434 134.658 86.4987C134.949 86.5634 135.177 86.6394 135.342 86.7271L135.061 87.5317C134.859 87.4482 134.638 87.3796 134.399 87.3264C134.16 87.2693 133.948 87.2407 133.765 87.2407C132.536 87.2407 131.922 88.0512 131.922 89.6724C131.922 90.441 132.071 91.0308 132.369 91.4419C132.671 91.8528 133.115 92.0584 133.704 92.0584C134.208 92.0584 134.724 91.9462 135.254 91.7215V92.5607C134.849 92.7775 134.34 92.8861 133.726 92.8861ZM140.014 92.8861C139.138 92.8861 138.46 92.6082 137.978 92.0527C137.5 91.4934 137.261 90.7037 137.261 89.6837C137.261 88.6372 137.504 87.8287 137.989 87.2578C138.478 86.6871 139.173 86.4017 140.074 86.4017C140.365 86.4017 140.655 86.434 140.946 86.4987C141.236 86.5634 141.464 86.6394 141.63 86.7271L141.348 87.5317C141.146 87.4482 140.926 87.3796 140.686 87.3264C140.448 87.2693 140.236 87.2407 140.052 87.2407C138.824 87.2407 138.21 88.0512 138.21 89.6724C138.21 90.441 138.359 91.0308 138.657 91.4419C138.958 91.8528 139.403 92.0584 139.991 92.0584C140.495 92.0584 141.012 91.9462 141.541 91.7215V92.5607C141.137 92.7775 140.628 92.8861 140.014 92.8861ZM146.439 92.8861C145.545 92.8861 144.839 92.6045 144.321 92.0412C143.806 91.478 143.549 90.6961 143.549 89.6952C143.549 88.6867 143.788 87.8858 144.266 87.2921C144.747 86.6984 145.393 86.4017 146.202 86.4017C146.959 86.4017 147.559 86.6604 148 87.1779C148.441 87.6917 148.662 88.3709 148.662 89.2157V89.815H144.497C144.516 90.5496 144.694 91.107 145.032 91.4875C145.374 91.868 145.854 92.0584 146.472 92.0584C147.123 92.0584 147.767 91.9175 148.403 91.636V92.4808C148.079 92.6254 147.772 92.728 147.481 92.789C147.195 92.8537 146.847 92.8861 146.439 92.8861ZM146.191 87.1951C145.705 87.1951 145.317 87.3587 145.027 87.6859C144.74 88.0132 144.571 88.466 144.519 89.0445H147.68C147.68 88.4471 147.552 87.9904 147.294 87.6746C147.037 87.3548 146.669 87.1951 146.191 87.1951ZM155.032 91.0651C155.032 91.6475 154.823 92.0964 154.403 92.4122C153.984 92.728 153.396 92.8861 152.638 92.8861C151.837 92.8861 151.211 92.7547 150.763 92.4921V91.6132C151.053 91.7654 151.364 91.8852 151.695 91.9727C152.03 92.0603 152.351 92.104 152.66 92.104C153.139 92.104 153.506 92.026 153.764 91.87C154.021 91.7102 154.15 91.4686 154.15 91.145C154.15 90.9014 154.047 90.6941 153.841 90.5229C153.639 90.3479 153.241 90.1424 152.649 89.9064C152.087 89.6896 151.686 89.5012 151.447 89.3414C151.211 89.1777 151.035 88.993 150.917 88.7877C150.803 88.5821 150.746 88.3366 150.746 88.0512C150.746 87.5413 150.947 87.1399 151.348 86.8469C151.748 86.55 152.298 86.4017 152.997 86.4017C153.648 86.4017 154.284 86.5387 154.905 86.8126L154.58 87.5832C153.973 87.3244 153.423 87.1951 152.931 87.1951C152.497 87.1951 152.169 87.2654 151.949 87.4063C151.728 87.5471 151.618 87.7412 151.618 87.9884C151.618 88.156 151.658 88.2986 151.739 88.4165C151.824 88.5346 151.958 88.6468 152.142 88.7534C152.326 88.8599 152.679 89.0141 153.201 89.2157C153.918 89.486 154.402 89.7579 154.652 90.0321C154.905 90.306 155.032 90.6503 155.032 91.0651ZM161.331 91.0651C161.331 91.6475 161.121 92.0964 160.702 92.4122C160.283 92.728 159.694 92.8861 158.937 92.8861C158.135 92.8861 157.51 92.7547 157.061 92.4921V91.6132C157.352 91.7654 157.663 91.8852 157.994 91.9727C158.328 92.0603 158.65 92.104 158.959 92.104C159.437 92.104 159.805 92.026 160.062 91.87C160.32 91.7102 160.448 91.4686 160.448 91.145C160.448 90.9014 160.345 90.6941 160.139 90.5229C159.937 90.3479 159.54 90.1424 158.948 89.9064C158.385 89.6896 157.984 89.5012 157.745 89.3414C157.51 89.1777 157.334 88.993 157.216 88.7877C157.102 88.5821 157.045 88.3366 157.045 88.0512C157.045 87.5413 157.245 87.1399 157.646 86.8469C158.047 86.55 158.597 86.4017 159.295 86.4017C159.946 86.4017 160.583 86.5387 161.204 86.8126L160.879 87.5832C160.272 87.3244 159.722 87.1951 159.229 87.1951C158.795 87.1951 158.468 87.2654 158.247 87.4063C158.027 87.5471 157.916 87.7412 157.916 87.9884C157.916 88.156 157.957 88.2986 158.038 88.4165C158.122 88.5346 158.257 88.6468 158.44 88.7534C158.624 88.8599 158.977 89.0141 159.5 89.2157C160.217 89.486 160.7 89.7579 160.95 90.0321C161.204 90.306 161.331 90.6503 161.331 91.0651Z"
          fill="#010101"/>
    <path d="M148.454 58.1122H145.062V53.3704H148.454V54.1942H146.311V55.2353H148.305V56.0592H146.311V57.2819H148.454V58.1122ZM151.594 55.4753H151.997C152.392 55.4753 152.683 55.4224 152.871 55.3164C153.059 55.2105 153.153 55.044 153.153 54.8169C153.153 54.592 153.056 54.432 152.863 54.3369C152.672 54.2418 152.376 54.1942 151.973 54.1942H151.594V55.4753ZM151.594 56.2927V58.1122H150.346V53.3704H152.062C152.862 53.3704 153.454 53.4882 153.838 53.7239C154.221 53.9574 154.413 54.3131 154.413 54.791C154.413 55.0699 154.318 55.3186 154.128 55.537C153.937 55.7532 153.667 55.9229 153.318 56.0462C154.204 57.1122 154.781 57.8009 155.05 58.1122H153.664L152.259 56.2927H151.594ZM157.699 55.6018H158.11C158.494 55.6018 158.781 55.5413 158.972 55.4202C159.162 55.297 159.258 55.1186 159.258 54.885C159.258 54.6493 159.177 54.4753 159.016 54.3628C158.858 54.2504 158.608 54.1942 158.267 54.1942H157.699V55.6018ZM160.518 54.8494C160.518 55.3597 160.32 55.7499 159.922 56.0202C159.528 56.2905 158.965 56.4257 158.235 56.4257H157.699V58.1122H156.451V53.3704H158.331C159.046 53.3704 159.588 53.4947 159.959 53.7434C160.332 53.9899 160.518 54.3585 160.518 54.8494Z"
          fill="#950000"/>
    <path d="M102.861 31.9792C101.919 31.9792 101.175 32.2937 100.628 32.9226C100.085 33.5476 99.814 34.405 99.814 35.4949C99.814 36.616 100.076 37.4832 100.599 38.0964C101.126 38.7058 101.876 39.0105 102.849 39.0105C103.447 39.0105 104.128 38.9031 104.894 38.6882V39.5613C104.3 39.7839 103.568 39.8953 102.697 39.8953C101.435 39.8953 100.46 39.5125 99.7729 38.7468C99.0894 37.9812 98.7476 36.8933 98.7476 35.4832C98.7476 34.6003 98.9116 33.8269 99.2397 33.1628C99.5718 32.4988 100.048 31.9871 100.669 31.6277C101.294 31.2683 102.029 31.0886 102.873 31.0886C103.771 31.0886 104.556 31.2527 105.228 31.5808L104.806 32.4363C104.158 32.1316 103.509 31.9792 102.861 31.9792ZM106.763 39.7781V31.2117H107.759V38.8757H111.539V39.7781H106.763ZM120.433 35.4832C120.433 36.8542 120.085 37.9324 119.39 38.7175C118.699 39.5027 117.736 39.8953 116.501 39.8953C115.24 39.8953 114.265 39.5105 113.578 38.741C112.894 37.9675 112.552 36.8777 112.552 35.4714C112.552 34.0769 112.896 32.9968 113.583 32.2312C114.271 31.4617 115.248 31.0769 116.513 31.0769C117.744 31.0769 118.705 31.4675 119.396 32.2488C120.087 33.03 120.433 34.1082 120.433 35.4832ZM113.607 35.4832C113.607 36.6433 113.853 37.5242 114.345 38.1257C114.841 38.7234 115.56 39.0222 116.501 39.0222C117.451 39.0222 118.167 38.7234 118.652 38.1257C119.136 37.5281 119.378 36.6472 119.378 35.4832C119.378 34.3308 119.136 33.4578 118.652 32.864C118.171 32.2664 117.458 31.9675 116.513 31.9675C115.564 31.9675 114.841 32.2683 114.345 32.8699C113.853 33.4675 113.607 34.3386 113.607 35.4832ZM128.818 31.2117V36.7546C128.818 37.7312 128.523 38.4988 127.933 39.0574C127.343 39.616 126.533 39.8953 125.501 39.8953C124.47 39.8953 123.671 39.614 123.105 39.0515C122.542 38.489 122.261 37.7156 122.261 36.7312V31.2117H123.257V36.8015C123.257 37.5164 123.453 38.0652 123.843 38.448C124.234 38.8308 124.808 39.0222 125.566 39.0222C126.289 39.0222 126.845 38.8308 127.236 38.448C127.626 38.0613 127.822 37.5085 127.822 36.7898V31.2117H128.818ZM137.929 35.4128C137.929 36.8269 137.544 37.9089 136.775 38.6589C136.009 39.405 134.906 39.7781 133.464 39.7781H131.091V31.2117H133.716C135.048 31.2117 136.083 31.5808 136.822 32.3191C137.56 33.0574 137.929 34.0886 137.929 35.4128ZM136.875 35.448C136.875 34.3308 136.593 33.489 136.031 32.9226C135.472 32.3562 134.64 32.073 133.535 32.073H132.087V38.9167H133.3C134.488 38.9167 135.38 38.6257 135.978 38.0437C136.576 37.4578 136.875 36.5925 136.875 35.448Z"
          fill="#5A5B5A"/>
</svg>
