<svg width="62" height="10" viewBox="0 0 62 10" fill="none" xmlns="http://www.w3.org/2000/svg">
    <g clip-path="url(#clip0)">
        <path d="M9.97393 3.83598C9.90847 3.63349 9.72887 3.48968 9.51639 3.47053L6.63011 3.20845L5.4888 0.537102C5.40465 0.341327 5.21299 0.2146 5.00005 0.2146C4.78711 0.2146 4.59545 0.341327 4.5113 0.53756L3.36999 3.20845L0.483257 3.47053C0.271154 3.49013 0.0920116 3.63349 0.0261682 3.83598C-0.0396751 4.03847 0.0211327 4.26057 0.181583 4.40057L2.36326 6.31392L1.71994 9.14778C1.67286 9.35614 1.75374 9.57153 1.92662 9.6965C2.01955 9.76364 2.12827 9.79782 2.23791 9.79782C2.33244 9.79782 2.42621 9.77234 2.51036 9.72198L5.00005 8.23398L7.48882 9.72198C7.67094 9.83154 7.90051 9.82155 8.07302 9.6965C8.24598 9.57115 8.32678 9.35569 8.27971 9.14778L7.63638 6.31392L9.81806 4.40096C9.97851 4.26057 10.0398 4.03886 9.97393 3.83598Z"
              fill="#FFC107"/>
    </g>
    <g clip-path="url(#clip1)">
        <path d="M22.9739 3.83598C22.9085 3.63349 22.7289 3.48968 22.5164 3.47053L19.6301 3.20845L18.4888 0.537102C18.4046 0.341327 18.213 0.2146 18 0.2146C17.7871 0.2146 17.5955 0.341327 17.5113 0.53756L16.37 3.20845L13.4833 3.47053C13.2712 3.49013 13.092 3.63349 13.0262 3.83598C12.9603 4.03847 13.0211 4.26057 13.1816 4.40057L15.3633 6.31392L14.7199 9.14778C14.6729 9.35614 14.7537 9.57153 14.9266 9.6965C15.0196 9.76364 15.1283 9.79782 15.2379 9.79782C15.3324 9.79782 15.4262 9.77234 15.5104 9.72198L18 8.23398L20.4888 9.72198C20.6709 9.83154 20.9005 9.82155 21.073 9.6965C21.246 9.57115 21.3268 9.35569 21.2797 9.14778L20.6364 6.31392L22.8181 4.40096C22.9785 4.26057 23.0398 4.03886 22.9739 3.83598Z"
              fill="#FFC107"/>
    </g>
    <g clip-path="url(#clip2)">
        <path d="M35.9739 3.83598C35.9085 3.63349 35.7289 3.48968 35.5164 3.47053L32.6301 3.20845L31.4888 0.537102C31.4046 0.341327 31.213 0.2146 31 0.2146C30.7871 0.2146 30.5955 0.341327 30.5113 0.53756L29.37 3.20845L26.4833 3.47053C26.2712 3.49013 26.092 3.63349 26.0262 3.83598C25.9603 4.03847 26.0211 4.26057 26.1816 4.40057L28.3633 6.31392L27.7199 9.14778C27.6729 9.35614 27.7537 9.57153 27.9266 9.6965C28.0196 9.76364 28.1283 9.79782 28.2379 9.79782C28.3324 9.79782 28.4262 9.77234 28.5104 9.72198L31 8.23398L33.4888 9.72198C33.6709 9.83154 33.9005 9.82155 34.073 9.6965C34.246 9.57115 34.3268 9.35569 34.2797 9.14778L33.6364 6.31392L35.8181 4.40096C35.9785 4.26057 36.0398 4.03886 35.9739 3.83598Z"
              fill="#FFC107"/>
    </g>
    <g clip-path="url(#clip3)">
        <path d="M48.9739 3.83598C48.9085 3.63349 48.7289 3.48968 48.5164 3.47053L45.6301 3.20845L44.4888 0.537102C44.4046 0.341327 44.213 0.2146 44 0.2146C43.7871 0.2146 43.5955 0.341327 43.5113 0.53756L42.37 3.20845L39.4833 3.47053C39.2712 3.49013 39.092 3.63349 39.0262 3.83598C38.9603 4.03847 39.0211 4.26057 39.1816 4.40057L41.3633 6.31392L40.7199 9.14778C40.6729 9.35614 40.7537 9.57153 40.9266 9.6965C41.0196 9.76364 41.1283 9.79782 41.2379 9.79782C41.3324 9.79782 41.4262 9.77234 41.5104 9.72198L44 8.23398L46.4888 9.72198C46.6709 9.83154 46.9005 9.82155 47.073 9.6965C47.246 9.57115 47.3268 9.35569 47.2797 9.14778L46.6364 6.31392L48.8181 4.40096C48.9785 4.26057 49.0398 4.03886 48.9739 3.83598Z"
              fill="#FFC107"/>
    </g>
    <g clip-path="url(#clip4)">
        <path d="M61.9739 3.83598C61.9085 3.63349 61.7289 3.48968 61.5164 3.47053L58.6301 3.20845L57.4888 0.537102C57.4046 0.341327 57.213 0.2146 57 0.2146C56.7871 0.2146 56.5955 0.341327 56.5113 0.53756L55.37 3.20845L52.4833 3.47053C52.2712 3.49013 52.092 3.63349 52.0262 3.83598C51.9603 4.03847 52.0211 4.26057 52.1816 4.40057L54.3633 6.31392L53.7199 9.14778C53.6729 9.35614 53.7537 9.57153 53.9266 9.6965C54.0196 9.76364 54.1283 9.79782 54.2379 9.79782C54.3324 9.79782 54.4262 9.77234 54.5104 9.72198L57 8.23398L59.4888 9.72198C59.6709 9.83154 59.9005 9.82155 60.073 9.6965C60.246 9.57115 60.3268 9.35569 60.2797 9.14778L59.6364 6.31392L61.8181 4.40096C61.9785 4.26057 62.0398 4.03886 61.9739 3.83598Z"
              fill="#FFC107"/>
    </g>
    <defs>
        <clipPath id="clip0">
            <rect width="10" height="10" fill="white"/>
        </clipPath>
        <clipPath id="clip1">
            <rect width="10" height="10" fill="white" transform="translate(13)"/>
        </clipPath>
        <clipPath id="clip2">
            <rect width="10" height="10" fill="white" transform="translate(26)"/>
        </clipPath>
        <clipPath id="clip3">
            <rect width="10" height="10" fill="white" transform="translate(39)"/>
        </clipPath>
        <clipPath id="clip4">
            <rect width="10" height="10" fill="white" transform="translate(52)"/>
        </clipPath>
    </defs>
</svg>
