<svg viewBox="0 0 25 26" fill="none" xmlns="http://www.w3.org/2000/svg">
    <g clip-path="url(#clip0)">
        <path d="M9.65697 3.8466L6.55131 0.742948C5.7311 -0.0913994 4.26626 -0.0913994 3.43139 0.742948L2.9332 1.25542C2.91548 1.27314 2.39141 1.78888 2.39141 1.81172C2.12764 2.08987 2.14214 2.54369 2.42056 2.8072L7.59149 7.97486C7.85521 8.26794 8.35307 8.26774 8.61698 7.97486L9.65697 6.93551C10.4925 6.12927 10.5434 4.70183 9.65697 3.8466Z"
              fill="#1689FC"/>
        <path d="M24.3516 18.5618L21.2461 15.4583C20.4259 14.6239 18.9757 14.6239 18.1553 15.4583L17.6427 15.9853L17.1153 16.4977C16.8224 16.7758 16.8224 17.2443 17.1153 17.5224L22.3009 22.7047C22.5541 22.9864 23.0362 23.009 23.3409 22.7047L23.8389 22.1924L24.3516 21.6654C25.216 20.8164 25.216 19.411 24.3516 18.5618Z"
              fill="#136EF1"/>
        <path d="M23.8387 22.1938L23.3407 22.7062C19.3418 26.3075 14.6688 25.4437 12.0322 22.794L2.31792 13.0562C-0.773045 9.98186 -0.773045 4.96055 2.31792 1.87169C2.33256 1.87169 2.4497 1.75453 2.4497 1.73998L2.93305 1.25684L9.12928 7.44925L8.83636 7.75672L8.61678 7.97627C8.14793 8.48869 7.76707 8.81071 7.76707 9.52804C7.76707 9.98186 7.94285 10.3918 8.25057 10.7138L10.6968 13.1587L14.3757 16.8651C15.0057 17.4946 16.1043 17.4946 16.7342 16.8651L17.1151 16.4991L17.6424 15.9867L23.8387 22.1938Z"
              fill="#17ACE8"/>
        <path d="M17.6427 15.9858L23.8389 22.1929L23.3409 22.7052C19.3419 26.3065 14.669 25.4427 12.0324 22.793L6.56604 17.3006C6.56604 17.286 6.56604 17.286 6.56604 17.286L10.697 13.1577L14.3759 16.8641C15.0059 17.4936 16.1045 17.4936 16.7345 16.8641L17.1153 16.4981L17.6427 15.9858Z"
              fill="#1689FC"/>
    </g>
    <defs>
        <clipPath id="clip0">
            <rect width="25" height="24.9846" fill="white" transform="translate(-6.10352e-05 0.117676)"/>
        </clipPath>
    </defs>
</svg>
