<svg viewBox="0 0 25 26" fill="none" xmlns="http://www.w3.org/2000/svg">
    <g clip-path="url(#clip0)">
        <path d="M15.6249 4.28176H18.7499C19.0376 4.28176 19.2708 4.0487 19.2708 3.76123V0.638156C19.2708 0.350735 19.0376 0.117676 18.7499 0.117676H15.6249C12.4622 0.12114 9.89921 2.68255 9.89579 5.8433V9.4869H6.24995C5.9623 9.4869 5.7291 9.71996 5.7291 10.0074V13.1305C5.7291 13.418 5.9623 13.651 6.24995 13.651H9.89579V24.5818C9.89579 24.8693 10.129 25.1023 10.4166 25.1023H13.5416C13.8293 25.1023 14.0625 24.8693 14.0625 24.5818V13.651H17.7083C17.9324 13.6509 18.1313 13.5075 18.2021 13.295L19.2437 10.1719C19.3347 9.8992 19.1871 9.60446 18.9142 9.5136C18.8613 9.49598 18.8058 9.48695 18.75 9.4869H14.0625V5.8433C14.0624 4.98089 14.762 4.28176 15.6249 4.28176Z"
              fill="#2196F3"/>
    </g>
    <defs>
        <clipPath id="clip0">
            <rect width="25" height="24.9846" fill="white" transform="translate(-6.10352e-05 0.117676)"/>
        </clipPath>
    </defs>
</svg>
