<svg viewBox="0 0 25 26" fill="none" xmlns="http://www.w3.org/2000/svg">
    <g clip-path="url(#clip0)">
        <path d="M24.9248 7.4595C24.8639 6.12975 24.6526 5.22165 24.3436 4.42715C24.0299 3.59358 23.5378 2.83855 22.9019 2.21447C22.2776 1.57895 21.5219 1.08697 20.6878 0.773209C19.8926 0.464599 18.9842 0.253586 17.6536 0.19316C16.3205 0.132163 15.8946 0.117676 12.4999 0.117676C9.10524 0.117676 8.67933 0.132163 7.34628 0.192779C6.01572 0.253586 5.10725 0.46479 4.31207 0.77359C3.47799 1.08716 2.72249 1.57895 2.09802 2.21447C1.46211 2.83836 0.969826 3.59339 0.655876 4.42696C0.347076 5.22165 0.135933 6.12975 0.07547 7.45931C0.0144348 8.79172 -6.10352e-05 9.21718 -6.10352e-05 12.6098C-6.10352e-05 16.0026 0.0144348 16.4282 0.07547 17.7605C0.136124 19.09 0.347458 19.9981 0.656448 20.7928C0.970207 21.6262 1.4623 22.3814 2.09821 23.0053C2.72249 23.6408 3.47818 24.1326 4.31226 24.4462C5.10725 24.7552 6.01591 24.9662 7.34647 25.027C8.67971 25.0878 9.10543 25.1021 12.5001 25.1021C15.8948 25.1021 16.3207 25.0878 17.6538 25.027C18.9844 24.9662 19.8928 24.7552 20.688 24.4462C22.367 23.7973 23.6944 22.4708 24.3436 20.7928C24.6528 19.9981 24.8639 19.09 24.9248 17.7605C24.9854 16.428 24.9999 16.0026 24.9999 12.61C24.9999 9.21718 24.9854 8.79172 24.9248 7.4595ZM22.6747 17.6581C22.6192 18.8761 22.4155 19.5376 22.2444 19.9777C21.8238 21.0673 20.9623 21.9283 19.872 22.3486C19.4316 22.5196 18.7698 22.7232 17.551 22.7787C16.2332 22.8389 15.8378 22.8515 12.4999 22.8515C9.16189 22.8515 8.76669 22.8389 7.44871 22.7787C6.2301 22.7232 5.56825 22.5196 5.12766 22.3486C4.58482 22.1483 4.09368 21.829 3.69047 21.414C3.27524 21.0111 2.95576 20.5204 2.75529 19.9777C2.58421 19.5376 2.3805 18.8761 2.325 17.6581C2.26492 16.3409 2.25214 15.9458 2.25214 12.6102C2.25214 9.27436 2.26492 8.87941 2.325 7.56205C2.38069 6.344 2.58421 5.68256 2.75529 5.24242C2.95576 4.69974 3.27543 4.2089 3.69047 3.80593C4.09368 3.39096 4.58482 3.07167 5.12785 2.87153C5.56825 2.70035 6.2301 2.49696 7.4489 2.4413C8.76688 2.38126 9.16227 2.36849 12.4999 2.36849H12.4997C15.8374 2.36849 16.2328 2.38126 17.551 2.44149C18.7698 2.49696 19.4314 2.70054 19.872 2.87153C20.4149 3.07186 20.906 3.39115 21.3092 3.80593C21.7244 4.2089 22.0439 4.69974 22.2442 5.24242C22.4155 5.68256 22.6192 6.344 22.6747 7.56205C22.7348 8.87921 22.7476 9.27436 22.7476 12.61C22.7476 15.9458 22.735 16.3407 22.6747 17.6581Z"
              fill="url(#paint0_linear)"/>
        <path d="M12.4997 6.19482C8.95473 6.19482 6.08093 9.06705 6.08093 12.6099C6.08093 16.1527 8.95473 19.0247 12.4997 19.0247C16.0449 19.0247 18.9187 16.1527 18.9187 12.6099C18.9187 9.06705 16.0449 6.19482 12.4997 6.19482ZM12.4997 16.7739C10.1987 16.7737 8.33313 14.9095 8.33332 12.6097C8.33332 10.3101 10.1987 8.44563 12.4999 8.44563C14.8011 8.44583 16.6665 10.3101 16.6665 12.6097C16.6665 14.9095 14.8009 16.7739 12.4997 16.7739Z"
              fill="url(#paint1_linear)"/>
        <path d="M20.6724 5.94159C20.6724 6.76944 20.0008 7.4406 19.1724 7.4406C18.3439 7.4406 17.6723 6.76944 17.6723 5.94159C17.6723 5.11355 18.3439 4.44238 19.1724 4.44238C20.0008 4.44238 20.6724 5.11355 20.6724 5.94159Z"
              fill="url(#paint2_linear)"/>
    </g>
    <defs>
        <linearGradient id="paint0_linear" x1="2.0979" y1="23.0054" x2="22.8892" y2="2.20133" gradientUnits="userSpaceOnUse">
            <stop stop-color="#FFD600"/>
            <stop offset="0.5" stop-color="#FF0100"/>
            <stop offset="1" stop-color="#D800B9"/>
        </linearGradient>
        <linearGradient id="paint1_linear" x1="7.96101" y1="17.1458" x2="17.0331" y2="8.06815" gradientUnits="userSpaceOnUse">
            <stop stop-color="#FF6400"/>
            <stop offset="0.5" stop-color="#FF0100"/>
            <stop offset="1" stop-color="#FD0056"/>
        </linearGradient>
        <linearGradient id="paint2_linear" x1="18.1117" y1="7.00148" x2="20.2317" y2="4.88021" gradientUnits="userSpaceOnUse">
            <stop stop-color="#F30072"/>
            <stop offset="1" stop-color="#E50097"/>
        </linearGradient>
        <clipPath id="clip0">
            <rect width="25" height="24.9846" fill="white" transform="translate(-6.10352e-05 0.117676)"/>
        </clipPath>
    </defs>
</svg>
