<svg viewBox="0 0 25 26" fill="none" xmlns="http://www.w3.org/2000/svg">
    <g clip-path="url(#clip0)">
        <path d="M24.1198 14.5807C24.8656 8.30646 23.7614 4.34536 21.7698 2.55375L21.7708 2.55271C18.5562 -0.506861 7.69996 -0.959707 3.85413 2.69013C2.12704 4.47549 1.51871 7.09575 1.45204 10.3396C1.38538 13.5845 1.30621 19.663 6.97392 21.312H6.97913L6.97392 23.8302C6.97392 23.8302 6.93538 24.8504 7.58746 25.0555C8.33329 25.297 8.67079 24.8234 10.9906 22.0542C14.8698 22.3905 17.8489 21.6201 18.1875 21.5077C18.9708 21.2454 23.4031 20.6593 24.1198 14.5807ZM11.3729 20.2824C11.3729 20.2824 8.91767 23.342 8.15413 24.1363C7.90413 24.3945 7.63017 24.3705 7.63434 23.8583C7.63434 23.5221 7.65309 19.6776 7.65309 19.6776C2.84788 18.3013 3.13121 13.1254 3.18329 10.4177C3.23538 7.70891 3.73121 5.49048 5.19371 3.99661C8.56767 0.83502 18.0854 1.54188 20.5104 3.81964C23.475 6.44615 22.4198 13.8666 22.426 14.1195C21.8166 19.1935 18.225 19.5152 17.5645 19.7348C17.2823 19.8285 14.6625 20.5021 11.3729 20.2824Z"
              fill="#8E24AA"/>
        <path d="M12.7313 4.59082C12.3302 4.59082 12.3302 5.21544 12.7313 5.22064C15.8427 5.24458 18.4052 7.412 18.4333 11.3877C18.4333 11.8072 19.0479 11.802 19.0427 11.3825H19.0417C19.0083 7.09865 16.2104 4.61476 12.7313 4.59082Z"
              fill="#8E24AA"/>
        <path d="M16.8239 10.7287C16.8146 11.1431 17.4281 11.1628 17.4333 10.7433C17.4844 8.38123 16.0271 6.43556 13.2885 6.23047C12.8875 6.20132 12.8458 6.83114 13.2458 6.86029C15.6208 7.04039 16.8719 8.66022 16.8239 10.7287Z"
              fill="#8E24AA"/>
        <path d="M16.1677 13.4157C15.6531 13.118 15.1292 13.3033 14.9125 13.5958L14.4594 14.1819C14.2292 14.4796 13.7989 14.4401 13.7989 14.4401C10.6594 13.6104 9.81979 10.327 9.81979 10.327C9.81979 10.327 9.78125 9.88247 10.0687 9.64407L10.6354 9.17561C10.9187 8.95075 11.0979 8.40941 10.8094 7.87745C10.0385 6.4856 9.52083 6.00569 9.25729 5.63716C8.9802 5.2905 8.56354 5.21243 8.1302 5.44666H8.12083C7.21979 5.97342 6.23333 6.95927 6.54896 7.97427C7.0875 9.04444 8.07708 12.4559 11.2312 15.0335C12.7135 16.2525 15.0594 17.5017 16.0552 17.7901L16.0646 17.8047C17.0458 18.1315 18 17.1072 18.5094 16.1796V16.1723C18.7354 15.7237 18.6604 15.2989 18.3302 15.021C17.7448 14.4505 16.8614 13.8207 16.1677 13.4157Z"
              fill="#8E24AA"/>
        <path d="M13.7177 8.55431C14.7188 8.61261 15.2042 9.13521 15.2563 10.2085C15.275 10.628 15.8844 10.5989 15.8656 10.1794C15.799 8.77813 15.0677 7.99737 13.7511 7.92449C13.35 7.90055 13.3125 8.53037 13.7177 8.55431Z"
              fill="#8E24AA"/>
    </g>
    <defs>
        <clipPath id="clip0">
            <rect width="25" height="24.9846" fill="white" transform="translate(-6.10352e-05 0.117676)"/>
        </clipPath>
    </defs>
</svg>
