<svg width="16" height="17" viewBox="0 0 16 17" fill="none" xmlns="http://www.w3.org/2000/svg">
    <path d="M15.7969 7.25195C15.7969 8.17643 15.6536 9.02279 15.3672 9.79102C15.0807 10.5592 14.6771 11.1549 14.1562 11.5781C13.6354 12.0013 13.0365 12.2129 12.3594 12.2129C11.7995 12.2129 11.3275 12.0436 10.9434 11.7051C10.5592 11.3665 10.3314 10.9336 10.2598 10.4062H10.1816C9.92122 10.9727 9.54688 11.4154 9.05859 11.7344C8.57682 12.0534 8.00391 12.2129 7.33984 12.2129C6.36328 12.2129 5.59831 11.8809 5.04492 11.2168C4.49805 10.5462 4.22461 9.63802 4.22461 8.49219C4.22461 7.16406 4.60872 6.08659 5.37695 5.25977C6.14518 4.42643 7.1543 4.00977 8.4043 4.00977C8.84701 4.00977 9.34831 4.05208 9.9082 4.13672C10.4681 4.21484 10.9727 4.32552 11.4219 4.46875L11.1777 9.05859V9.27344C11.1777 10.4323 11.6107 11.0117 12.4766 11.0117C13.069 11.0117 13.5508 10.6634 13.9219 9.9668C14.293 9.26367 14.4785 8.35221 14.4785 7.23242C14.4785 6.05404 14.2376 5.02214 13.7559 4.13672C13.2741 3.2513 12.5872 2.57096 11.6953 2.0957C10.8099 1.61393 9.79102 1.37305 8.63867 1.37305C7.18685 1.37305 5.92383 1.67578 4.84961 2.28125C3.77539 2.88021 2.95508 3.73958 2.38867 4.85938C1.82227 5.97266 1.53906 7.26172 1.53906 8.72656C1.53906 10.7122 2.06315 12.2389 3.11133 13.3066C4.15951 14.3743 5.66992 14.9082 7.64258 14.9082C9.00977 14.9082 10.429 14.6283 11.9004 14.0684V15.3672C10.6504 15.9141 9.23112 16.1875 7.64258 16.1875C5.2793 16.1875 3.44336 15.5397 2.13477 14.2441C0.832682 12.9421 0.181641 11.1257 0.181641 8.79492C0.181641 7.10221 0.529948 5.59505 1.22656 4.27344C1.92318 2.95182 2.91602 1.92969 4.20508 1.20703C5.49414 0.477865 6.97201 0.113281 8.63867 0.113281C10.0384 0.113281 11.2819 0.409505 12.3691 1.00195C13.4629 1.58789 14.306 2.42448 14.8984 3.51172C15.4974 4.59245 15.7969 5.83919 15.7969 7.25195ZM5.69922 8.53125C5.69922 10.1849 6.33398 11.0117 7.60352 11.0117C8.95117 11.0117 9.68359 9.99284 9.80078 7.95508L9.9375 5.40625C9.46875 5.27604 8.95768 5.21094 8.4043 5.21094C7.55794 5.21094 6.89388 5.50391 6.41211 6.08984C5.93685 6.67578 5.69922 7.48958 5.69922 8.53125Z"
          fill="#1B76FF"/>
</svg>
