<svg width="40" height="41" viewBox="0 0 40 41" fill="none" xmlns="http://www.w3.org/2000/svg">
    <path d="M21.085 23.6312L19.5937 22.4533C19.5374 22.4083 19.4728 22.3748 19.4035 22.3548C19.3342 22.3348 19.2616 22.3287 19.1899 22.3368C19.1183 22.345 19.0489 22.3672 18.9859 22.4022C18.9228 22.4372 18.8673 22.4844 18.8226 22.5409C18.7779 22.5974 18.7448 22.6623 18.7253 22.7316C18.7057 22.801 18.7001 22.8735 18.7088 22.9451C18.7174 23.0166 18.7401 23.0857 18.7756 23.1485C18.8111 23.2112 18.8587 23.2663 18.9156 23.3106L18.9722 23.3552C18.4111 23.1787 17.905 22.8606 17.5028 22.4318C17.1006 22.003 16.8158 21.4779 16.6759 20.9071C16.536 20.3363 16.5458 19.7392 16.7042 19.1733C16.8626 18.6073 17.1643 18.0917 17.5803 17.6762C17.6799 17.5732 17.735 17.4352 17.7337 17.2919C17.7324 17.1487 17.6749 17.0117 17.5735 16.9104C17.4721 16.8091 17.3349 16.7517 17.1915 16.7505C17.0481 16.7493 16.91 16.8044 16.8068 16.9039C16.2204 17.4896 15.8069 18.2254 15.6117 19.0305C15.4164 19.8356 15.447 20.6788 15.7001 21.4677C15.9532 22.2565 16.419 22.9605 17.0463 23.5022C17.6736 24.044 18.4382 24.4026 19.2562 24.5386L18.915 24.808C18.8581 24.8523 18.8105 24.9074 18.775 24.9702C18.7395 25.0329 18.7168 25.102 18.7081 25.1735C18.6995 25.2451 18.7051 25.3176 18.7246 25.387C18.7442 25.4564 18.7773 25.5212 18.822 25.5777C18.8667 25.6342 18.9222 25.6814 18.9852 25.7164C19.0483 25.7514 19.1176 25.7737 19.1893 25.7818C19.261 25.7899 19.3336 25.7838 19.4029 25.7638C19.4722 25.7438 19.5368 25.7103 19.5931 25.6653L21.085 24.4874C21.1497 24.4363 21.2021 24.3712 21.2381 24.2969C21.2741 24.2227 21.2928 24.1413 21.2928 24.0588C21.2928 23.9764 21.2741 23.895 21.2381 23.8207C21.2021 23.7465 21.1497 23.6814 21.085 23.6302V23.6312Z"
          fill="#1B76FF"/>
    <path d="M20 12.744C18.5424 12.744 17.1176 13.1758 15.9056 13.9848C14.6937 14.7937 13.7491 15.9435 13.1913 17.2887C12.6335 18.634 12.4876 20.1143 12.7719 21.5424C13.0563 22.9705 13.7582 24.2823 14.7888 25.3119C15.8195 26.3415 17.1327 27.0426 18.5622 27.3267C19.9918 27.6108 21.4736 27.465 22.8203 26.9078C24.1669 26.3505 25.3179 25.4069 26.1277 24.1962C26.9375 22.9855 27.3697 21.5622 27.3697 20.1061C27.3675 18.1542 26.5904 16.2829 25.2088 14.9027C23.8272 13.5225 21.9539 12.7462 20 12.744ZM20 26.3755C18.7587 26.3755 17.5453 26.0078 16.5133 25.3189C15.4812 24.63 14.6768 23.6509 14.2018 22.5053C13.7268 21.3597 13.6025 20.0991 13.8447 18.883C14.0868 17.6668 14.6845 16.5497 15.5622 15.6729C16.4399 14.7961 17.5582 14.199 18.7756 13.9571C19.993 13.7152 21.2549 13.8394 22.4017 14.3139C23.5485 14.7884 24.5286 15.592 25.2182 16.623C25.9078 17.654 26.2759 18.8661 26.2759 20.1061C26.2741 21.7683 25.6123 23.3619 24.4357 24.5373C23.2592 25.7126 21.6639 26.3737 20 26.3755Z"
          fill="#1B76FF"/>
    <path d="M32.0525 17.9133H29.885C29.632 16.763 29.177 15.6666 28.5412 14.6748L30.0747 13.1446C30.1255 13.0939 30.1658 13.0336 30.1933 12.9674C30.2208 12.9011 30.235 12.83 30.235 12.7583C30.235 12.6865 30.2208 12.6154 30.1933 12.5492C30.1658 12.4829 30.1255 12.4227 30.0747 12.3719L27.7434 10.0435C27.6409 9.94111 27.5018 9.8836 27.3568 9.8836C27.2119 9.8836 27.0728 9.94111 26.9703 10.0435L25.4375 11.5734C24.4447 10.9382 23.3471 10.4837 22.1956 10.2311V8.06619C22.1956 7.99444 22.1815 7.92339 22.1541 7.85709C22.1266 7.79079 22.0863 7.73055 22.0355 7.67981C21.9847 7.62908 21.9244 7.58884 21.8581 7.5614C21.7917 7.53396 21.7206 7.51986 21.6487 7.5199H18.3519C18.28 7.51986 18.2089 7.53396 18.1425 7.5614C18.0762 7.58884 18.0159 7.62908 17.9651 7.67981C17.9143 7.73055 17.874 7.79079 17.8465 7.85709C17.8191 7.92339 17.8049 7.99444 17.805 8.06619V10.2314C16.6535 10.4841 15.5559 10.9385 14.5631 11.5737L13.0312 10.0419C12.9287 9.93955 12.7896 9.88204 12.6447 9.88204C12.4997 9.88204 12.3607 9.93955 12.2581 10.0419L9.92685 12.3704C9.87603 12.4211 9.83571 12.4813 9.8082 12.5476C9.78069 12.6139 9.76653 12.6849 9.76653 12.7567C9.76653 12.8285 9.78069 12.8995 9.8082 12.9658C9.83571 13.0321 9.87603 13.0923 9.92685 13.143L11.4584 14.6742C10.8226 15.666 10.3677 16.7624 10.1147 17.9126H7.94748C7.87565 17.9126 7.80452 17.9267 7.73815 17.9541C7.67178 17.9816 7.61148 18.0218 7.56069 18.0726C7.5099 18.1233 7.46962 18.1835 7.44215 18.2498C7.41468 18.3161 7.40056 18.3872 7.4006 18.4589V21.7523C7.40056 21.8241 7.41468 21.8951 7.44215 21.9614C7.46962 22.0277 7.5099 22.088 7.56069 22.1387C7.61148 22.1894 7.67178 22.2297 7.73815 22.2571C7.80452 22.2846 7.87565 22.2987 7.94748 22.2986H10.115C10.368 23.4489 10.8229 24.5453 11.4587 25.5371L9.9256 27.0689C9.87478 27.1196 9.83446 27.1798 9.80695 27.2461C9.77944 27.3124 9.76528 27.3834 9.76528 27.4552C9.76528 27.5269 9.77944 27.598 9.80695 27.6643C9.83446 27.7306 9.87478 27.7908 9.9256 27.8415L12.2569 30.17C12.3594 30.2723 12.4984 30.3298 12.6434 30.3298C12.7884 30.3298 12.9274 30.2723 13.03 30.17L14.5625 28.6385C15.5553 29.2737 16.6528 29.7281 17.8044 29.9808V32.146C17.8043 32.2178 17.8184 32.2888 17.8459 32.3551C17.8734 32.4214 17.9136 32.4816 17.9644 32.5324C18.0152 32.5831 18.0755 32.6234 18.1419 32.6508C18.2083 32.6782 18.2794 32.6923 18.3512 32.6923H21.6481C21.7199 32.6923 21.7911 32.6782 21.8574 32.6508C21.9238 32.6234 21.9841 32.5831 22.0349 32.5324C22.0857 32.4816 22.126 32.4214 22.1534 32.3551C22.1809 32.2888 22.195 32.2178 22.195 32.146V29.9805C23.3465 29.7278 24.4441 29.2734 25.4368 28.6382L26.9703 30.1697C27.0728 30.272 27.2119 30.3295 27.3568 30.3295C27.5018 30.3295 27.6409 30.272 27.7434 30.1697L30.0747 27.8412C30.1255 27.7905 30.1658 27.7303 30.1933 27.664C30.2208 27.5977 30.235 27.5266 30.235 27.4549C30.235 27.3831 30.2208 27.3121 30.1933 27.2458C30.1658 27.1795 30.1255 27.1193 30.0747 27.0686L28.5415 25.5377C29.1773 24.5459 29.6323 23.4495 29.8853 22.2992H32.0528C32.1246 22.2993 32.1957 22.2852 32.2621 22.2577C32.3285 22.2303 32.3888 22.1901 32.4396 22.1393C32.4904 22.0886 32.5306 22.0284 32.5581 21.9621C32.5856 21.8958 32.5997 21.8247 32.5997 21.7529V18.4596C32.5997 18.3878 32.5856 18.3167 32.5581 18.2504C32.5306 18.1841 32.4903 18.1238 32.4395 18.0731C32.3886 18.0223 32.3283 17.9821 32.2619 17.9547C32.1955 17.9273 32.1243 17.9132 32.0525 17.9133ZM31.5056 21.206H29.435C29.3061 21.2061 29.1814 21.2515 29.0828 21.3345C28.9843 21.4174 28.9182 21.5324 28.8962 21.6593C28.6712 22.967 28.1564 24.2079 27.3897 25.2914C27.3155 25.3966 27.2809 25.5246 27.292 25.6528C27.3031 25.7811 27.3592 25.9012 27.4503 25.9922L28.9147 27.455L27.3568 29.0112L25.8922 27.5484C25.8011 27.4574 25.6808 27.4015 25.5524 27.3904C25.4241 27.3793 25.296 27.4138 25.1906 27.4878C24.106 28.2537 22.8639 28.768 21.555 28.9931C21.428 29.015 21.3128 29.081 21.2298 29.1795C21.1468 29.278 21.1013 29.4025 21.1012 29.5313V31.5994H18.8987V29.5313C18.8987 29.4025 18.8532 29.278 18.7701 29.1795C18.6871 29.081 18.572 29.015 18.445 28.9931C17.136 28.768 15.8939 28.2537 14.8094 27.4878C14.704 27.4138 14.5759 27.3793 14.4475 27.3904C14.3192 27.4015 14.1989 27.4574 14.1078 27.5484L12.6431 29.0112L11.0853 27.455L12.5497 25.9922C12.6408 25.9012 12.6968 25.7811 12.7079 25.6528C12.719 25.5246 12.6844 25.3966 12.6103 25.2914C11.8435 24.2079 11.3288 22.967 11.1037 21.6593C11.0818 21.5324 11.0157 21.4174 10.9171 21.3345C10.8186 21.2515 10.6938 21.2061 10.565 21.206H8.49435V19.0059H10.565C10.6938 19.0058 10.8186 18.9603 10.9171 18.8774C11.0157 18.7945 11.0818 18.6794 11.1037 18.5526C11.3288 17.2449 11.8435 16.004 12.6103 14.9205C12.6844 14.8153 12.719 14.6873 12.7079 14.559C12.6968 14.4308 12.6408 14.3106 12.5497 14.2197L11.0853 12.7569L12.6431 11.2007L14.1078 12.6635C14.1988 12.7546 14.3191 12.8106 14.4475 12.8217C14.5759 12.8328 14.704 12.7982 14.8094 12.7241C15.8939 11.9582 17.136 11.4439 18.445 11.2188C18.572 11.1969 18.6871 11.1309 18.7701 11.0324C18.8532 10.9339 18.8987 10.8093 18.8987 10.6806V8.61249H21.1012V10.6806C21.1013 10.8093 21.1468 10.9339 21.2298 11.0324C21.3128 11.1309 21.428 11.1969 21.555 11.2188C22.8639 11.4439 24.106 11.9582 25.1906 12.7241C25.2959 12.7982 25.4241 12.8328 25.5524 12.8217C25.6808 12.8106 25.8011 12.7546 25.8922 12.6635L27.3568 11.2007L28.9147 12.7569L27.4503 14.2197C27.3592 14.3106 27.3031 14.4308 27.292 14.559C27.2809 14.6873 27.3155 14.8153 27.3897 14.9205C28.1564 16.004 28.6712 17.2449 28.8962 18.5526C28.9182 18.6794 28.9843 18.7945 29.0828 18.8774C29.1814 18.9603 29.3061 19.0058 29.435 19.0059H31.5056V21.206Z"
          fill="#1B76FF"/>
    <path d="M20.7438 15.6608L21.085 15.3914C21.1419 15.3471 21.1895 15.292 21.225 15.2293C21.2605 15.1666 21.2832 15.0975 21.2918 15.0259C21.3005 14.9544 21.2949 14.8818 21.2753 14.8125C21.2558 14.7431 21.2227 14.6783 21.178 14.6218C21.1333 14.5652 21.0778 14.5181 21.0147 14.4831C20.9517 14.448 20.8823 14.4258 20.8107 14.4177C20.739 14.4095 20.6664 14.4156 20.5971 14.4356C20.5278 14.4556 20.4632 14.4891 20.4069 14.5342L18.915 15.712C18.8502 15.7632 18.7979 15.8283 18.7619 15.9025C18.7259 15.9768 18.7072 16.0582 18.7072 16.1406C18.7072 16.2231 18.7259 16.3045 18.7619 16.3787C18.7979 16.453 18.8502 16.5181 18.915 16.5692L20.4063 17.7471C20.4625 17.7921 20.5272 17.8256 20.5965 17.8456C20.6658 17.8656 20.7384 17.8717 20.81 17.8636C20.8817 17.8555 20.9511 17.8332 21.0141 17.7982C21.0772 17.7632 21.1326 17.716 21.1774 17.6595C21.2221 17.603 21.2552 17.5381 21.2747 17.4688C21.2942 17.3994 21.2999 17.3269 21.2912 17.2553C21.2826 17.1838 21.2599 17.1147 21.2244 17.0519C21.1889 16.9892 21.1413 16.9341 21.0844 16.8898L21.0278 16.8452C21.5889 17.0217 22.095 17.3397 22.4972 17.7685C22.8994 18.1973 23.1842 18.7224 23.3241 19.2931C23.464 19.8639 23.4543 20.461 23.2958 21.0269C23.1374 21.5928 22.8357 22.1084 22.4197 22.5239C22.3171 22.6264 22.2595 22.7655 22.2596 22.9104C22.2597 23.0554 22.3174 23.1943 22.42 23.2968C22.5227 23.3993 22.6618 23.4568 22.8069 23.4567C22.9521 23.4567 23.0912 23.399 23.1938 23.2965C23.7805 22.7108 24.1942 21.9749 24.3896 21.1696C24.5849 20.3644 24.5543 19.5209 24.3012 18.7319C24.048 17.9428 23.582 17.2388 22.9545 16.697C22.3269 16.1552 21.562 15.7967 20.7438 15.6608Z"
          fill="#1B76FF"/>
</svg>
