<svg viewBox="0 0 212 61" fill="none" xmlns="http://www.w3.org/2000/svg">
    <path d="M37.0648 52.0459C37.0648 56.6821 33.2935 60.4404 28.641 60.4404C23.9887 60.4404 20.2172 56.6821 20.2172 52.0459C20.2172 47.4096 23.9887 43.6514 28.641 43.6514C33.2935 43.6514 37.0648 47.4096 37.0648 52.0459Z"
          fill="#B48201"/>
    <path d="M48.016 33.9977C48.016 38.2475 44.5588 41.6926 40.2941 41.6926C36.0294 41.6926 32.5723 38.2475 32.5723 33.9977C32.5723 29.7478 36.0294 26.3027 40.2941 26.3027C44.5588 26.3027 48.016 29.7478 48.016 33.9977Z"
          fill="#5D8900"/>
    <path d="M60.6517 11.1927C60.6517 17.3742 55.6229 22.3853 49.4199 22.3853C43.2169 22.3853 38.1881 17.3742 38.1881 11.1927C38.1881 5.01112 43.2169 0 49.4199 0C55.6229 0 60.6517 5.01112 60.6517 11.1927Z"
          fill="#0A7C00"/>
    <path d="M22.7444 34.5573C22.7444 38.0343 19.9158 40.8532 16.4265 40.8532C12.9373 40.8532 10.1086 38.0343 10.1086 34.5573C10.1086 31.0803 12.9373 28.2615 16.4265 28.2615C19.9158 28.2615 22.7444 31.0803 22.7444 34.5573Z"
          fill="#DB5104"/>
    <path d="M16.8477 15.6697C16.8477 20.3058 13.0762 24.0642 8.42384 24.0642C3.77149 24.0642 0 20.3058 0 15.6697C0 11.0336 3.77149 7.27521 8.42384 7.27521C13.0762 7.27521 16.8477 11.0336 16.8477 15.6697Z"
          fill="#950000"/>
    <path d="M83.9916 36.6559L75.8146 15.2707H81.9379L86.0838 27.4553C86.5446 28.9982 86.8324 30.4586 86.9475 31.8355H87.0629C87.1267 30.6113 87.4148 29.1513 87.9267 27.4553L92.0535 15.2707H98.1768L89.9998 36.6559H83.9916ZM107.504 25.9251C107.504 28.0418 107.849 29.6423 108.54 30.7263C109.244 31.8101 110.383 32.3521 111.957 32.3521C113.518 32.3521 114.638 31.8165 115.316 30.7454C116.007 29.6614 116.353 28.0547 116.353 25.9251C116.353 23.8082 116.007 22.2206 115.316 21.1622C114.625 20.1038 113.493 19.5746 111.919 19.5746C110.358 19.5746 109.231 20.1038 108.54 21.1622C107.849 22.2079 107.504 23.7955 107.504 25.9251ZM122.342 25.9251C122.342 29.4065 121.42 32.1291 119.578 34.0928C117.735 36.0566 115.169 37.0384 111.88 37.0384C109.82 37.0384 108.003 36.5921 106.429 35.6995C104.855 34.794 103.646 33.4999 102.801 31.8165C101.957 30.1331 101.534 28.1694 101.534 25.9251C101.534 22.431 102.449 19.7148 104.279 17.7765C106.109 15.8382 108.681 14.8691 111.996 14.8691C114.056 14.8691 115.873 15.3154 117.447 16.208C119.021 17.1007 120.23 18.3822 121.075 20.0528C121.919 21.7233 122.342 23.6807 122.342 25.9251ZM128.502 9.74274C128.502 7.84267 129.564 6.89264 131.688 6.89264C133.812 6.89264 134.874 7.84267 134.874 9.74274C134.874 10.6481 134.606 11.3559 134.068 11.8659C133.543 12.3633 132.75 12.6119 131.688 12.6119C129.564 12.6119 128.502 11.6555 128.502 9.74274ZM134.606 36.6559H128.751V15.2707H134.606V36.6559ZM151.38 32.3904C152.404 32.3904 153.633 32.1671 155.066 31.7208V36.063C153.607 36.7133 151.816 37.0384 149.691 37.0384C147.35 37.0384 145.641 36.452 144.566 35.2787C143.504 34.0928 142.973 32.3202 142.973 29.961V19.6511H140.171V17.1836L143.395 15.2325L145.085 10.7183H148.828V15.2707H154.836V19.6511H148.828V29.961C148.828 30.7899 149.058 31.4021 149.519 31.7975C149.992 32.1926 150.613 32.3904 151.38 32.3904ZM174.624 36.6559L173.492 33.7484H173.338C172.353 34.9854 171.335 35.8461 170.286 36.3308C169.25 36.8026 167.893 37.0384 166.217 37.0384C164.157 37.0384 162.531 36.452 161.341 35.2787C160.164 34.1054 159.575 32.4349 159.575 30.2672C159.575 27.9973 160.369 26.3268 161.955 25.2556C163.555 24.1717 165.961 23.5723 169.173 23.4576L172.897 23.3428V22.4055C172.897 20.2377 171.783 19.1538 169.556 19.1538C167.842 19.1538 165.826 19.6702 163.51 20.7031L161.572 16.7627C164.041 15.4748 166.78 14.8308 169.787 14.8308C172.666 14.8308 174.874 15.4556 176.409 16.7054C177.945 17.955 178.713 19.8551 178.713 22.4055V36.6559H174.624ZM172.897 26.7476L170.631 26.8241C168.929 26.8751 167.663 27.1812 166.831 27.7422C165.999 28.3034 165.583 29.1577 165.583 30.3055C165.583 31.9505 166.53 32.7729 168.424 32.7729C169.781 32.7729 170.862 32.384 171.668 31.6061C172.487 30.8282 172.897 29.7954 172.897 28.5074V26.7476Z"
          fill="#1D67D7"/>
    <path d="M57.251 47.8956H60.6483C62.2443 47.8956 63.3987 48.1335 64.1116 48.6089C64.8246 49.0843 65.1812 49.8359 65.1812 50.8631C65.1812 51.5735 64.981 52.1612 64.5806 52.6257C64.1858 53.0848 63.607 53.3826 62.845 53.5194V53.6014C64.671 53.9128 65.5841 54.8692 65.5841 56.4703C65.5841 57.5417 65.2196 58.3778 64.4901 58.9789C63.7663 59.5802 62.7517 59.8807 61.4463 59.8807H57.251V47.8956ZM58.6493 53.0275H60.9527C61.94 53.0275 62.6501 52.8744 63.0834 52.5683C63.5166 52.2569 63.7334 51.735 63.7334 51.0024C63.7334 50.3303 63.4919 49.8468 63.0092 49.5516C62.5268 49.2511 61.7589 49.1008 60.7059 49.1008H58.6493V53.0275ZM58.6493 54.208V58.6921H61.1585C62.1292 58.6921 62.8584 58.5063 63.3467 58.1347C63.8401 57.7575 64.0869 57.1699 64.0869 56.3721C64.0869 55.6289 63.8348 55.0824 63.3302 54.7327C62.8312 54.3829 62.0689 54.208 61.0434 54.208H58.6493ZM70.6011 50.8961V56.7247C70.6011 57.457 70.7684 58.0034 71.1029 58.3641C71.4373 58.7248 71.9612 58.9053 72.6742 58.9053C73.6174 58.9053 74.3056 58.6484 74.7389 58.1347C75.1778 57.6209 75.3971 56.782 75.3971 55.618V50.8961H76.7626V59.8807H75.6354L75.438 58.6756H75.3642C75.0845 59.1182 74.6951 59.4571 74.1961 59.6921C73.7025 59.9272 73.1375 60.0447 72.5012 60.0447C71.4044 60.0447 70.5817 59.785 70.0333 59.266C69.4905 58.7466 69.219 57.9161 69.219 56.7736V50.8961H70.6011ZM86.8304 57.4295C86.8304 58.2659 86.5179 58.9106 85.8926 59.3642C85.2673 59.8178 84.3898 60.0447 83.2601 60.0447C82.0645 60.0447 81.1323 59.8561 80.4631 59.4789V58.2167C80.8964 58.4352 81.3597 58.6073 81.8534 58.7329C82.3526 58.8588 82.8325 58.9215 83.293 58.9215C84.0059 58.9215 84.5543 58.8096 84.9385 58.5855C85.3223 58.356 85.5141 58.009 85.5141 57.5443C85.5141 57.1945 85.3605 56.8968 85.0536 56.6508C84.752 56.3995 84.1595 56.1043 83.2767 55.7655C82.4374 55.454 81.8396 55.1835 81.4833 54.954C81.1323 54.719 80.8689 54.4537 80.6934 54.1588C80.5235 53.8636 80.4384 53.511 80.4384 53.1011C80.4384 52.3688 80.7375 51.7924 81.3353 51.3715C81.9328 50.9451 82.7528 50.7321 83.7948 50.7321C84.7655 50.7321 85.7143 50.9288 86.6412 51.3223L86.156 52.4289C85.251 52.0573 84.4311 51.8715 83.6962 51.8715C83.049 51.8715 82.561 51.9726 82.2319 52.1749C81.9028 52.3772 81.7382 52.6559 81.7382 53.011C81.7382 53.2516 81.7986 53.4564 81.9193 53.6257C82.0454 53.7953 82.2456 53.9565 82.5197 54.1095C82.794 54.2626 83.3205 54.4839 84.0992 54.7735C85.1687 55.1616 85.8898 55.5523 86.2627 55.946C86.6412 56.3394 86.8304 56.8338 86.8304 57.4295ZM91.7733 59.8807H90.4075V50.8961H91.7733V59.8807ZM90.2924 48.4611C90.2924 48.1497 90.3693 47.9231 90.5226 47.7809C90.6762 47.6332 90.8683 47.5596 91.0985 47.5596C91.3181 47.5596 91.5071 47.6332 91.6663 47.7809C91.8252 47.9284 91.9047 48.1553 91.9047 48.4611C91.9047 48.7673 91.8252 48.997 91.6663 49.1498C91.5071 49.2975 91.3181 49.3711 91.0985 49.3711C90.8683 49.3711 90.6762 49.2975 90.5226 49.1498C90.3693 48.997 90.2924 48.7673 90.2924 48.4611ZM102.187 59.8807V54.0687C102.187 53.3361 102.019 52.7896 101.685 52.4289C101.35 52.0683 100.826 51.8881 100.113 51.8881C99.1703 51.8881 98.4792 52.1421 98.0403 52.6503C97.6017 53.1587 97.3821 53.9976 97.3821 55.1669V59.8807H96.0167V50.8961H97.1272L97.3493 52.1256H97.4153C97.695 51.6829 98.0869 51.3413 98.5915 51.1009C99.0961 50.855 99.6583 50.7321 100.278 50.7321C101.364 50.7321 102.181 50.9943 102.729 51.519C103.278 52.0383 103.552 52.8716 103.552 54.0194V59.8807H102.187ZM111.522 60.0447C110.189 60.0447 109.136 59.6404 108.363 58.8314C107.595 58.0225 107.211 56.8996 107.211 55.4621C107.211 54.0138 107.568 52.8635 108.281 52.0109C108.999 51.1583 109.962 50.7321 111.168 50.7321C112.298 50.7321 113.192 51.1037 113.85 51.8469C114.508 52.5848 114.837 53.5602 114.837 54.7735V55.6342H108.627C108.654 56.6891 108.92 57.4897 109.424 58.0362C109.935 58.5827 110.65 58.856 111.572 58.856C112.542 58.856 113.502 58.6537 114.451 58.2494V59.4627C113.968 59.6703 113.51 59.8178 113.077 59.9054C112.649 59.9983 112.131 60.0447 111.522 60.0447ZM111.152 51.8715C110.428 51.8715 109.849 52.1066 109.416 52.5764C108.989 53.0465 108.736 53.6968 108.659 54.5276H113.373C113.373 53.6696 113.181 53.0138 112.797 52.5602C112.413 52.101 111.865 51.8715 111.152 51.8715ZM124.338 57.4295C124.338 58.2659 124.025 58.9106 123.4 59.3642C122.774 59.8178 121.897 60.0447 120.767 60.0447C119.572 60.0447 118.639 59.8561 117.97 59.4789V58.2167C118.404 58.4352 118.867 58.6073 119.361 58.7329C119.86 58.8588 120.34 58.9215 120.8 58.9215C121.513 58.9215 122.061 58.8096 122.446 58.5855C122.829 58.356 123.021 58.009 123.021 57.5443C123.021 57.1945 122.868 56.8968 122.561 56.6508C122.259 56.3995 121.667 56.1043 120.784 55.7655C119.945 55.454 119.347 55.1835 118.99 54.954C118.639 54.719 118.376 54.4537 118.201 54.1588C118.031 53.8636 117.946 53.511 117.946 53.1011C117.946 52.3688 118.245 51.7924 118.842 51.3715C119.44 50.9451 120.26 50.7321 121.302 50.7321C122.273 50.7321 123.221 50.9288 124.148 51.3223L123.663 52.4289C122.758 52.0573 121.938 51.8715 121.203 51.8715C120.556 51.8715 120.068 51.9726 119.739 52.1749C119.41 52.3772 119.245 52.6559 119.245 53.011C119.245 53.2516 119.306 53.4564 119.427 53.6257C119.553 53.7953 119.753 53.9565 120.027 54.1095C120.301 54.2626 120.828 54.4839 121.606 54.7735C122.676 55.1616 123.397 55.5523 123.77 55.946C124.148 56.3394 124.338 56.8338 124.338 57.4295ZM133.731 57.4295C133.731 58.2659 133.418 58.9106 132.793 59.3642C132.168 59.8178 131.29 60.0447 130.16 60.0447C128.965 60.0447 128.033 59.8561 127.363 59.4789V58.2167C127.797 58.4352 128.26 58.6073 128.754 58.7329C129.253 58.8588 129.733 58.9215 130.194 58.9215C130.907 58.9215 131.455 58.8096 131.839 58.5855C132.223 58.356 132.415 58.009 132.415 57.5443C132.415 57.1945 132.261 56.8968 131.954 56.6508C131.652 56.3995 131.06 56.1043 130.177 55.7655C129.338 55.454 128.74 55.1835 128.384 54.954C128.033 54.719 127.769 54.4537 127.594 54.1588C127.424 53.8636 127.339 53.511 127.339 53.1011C127.339 52.3688 127.638 51.7924 128.236 51.3715C128.833 50.9451 129.653 50.7321 130.695 50.7321C131.666 50.7321 132.615 50.9288 133.541 51.3223L133.056 52.4289C132.151 52.0573 131.331 51.8715 130.597 51.8715C129.949 51.8715 129.461 51.9726 129.132 52.1749C128.803 52.3772 128.639 52.6559 128.639 53.011C128.639 53.2516 128.699 53.4564 128.82 53.6257C128.946 53.7953 129.146 53.9565 129.42 54.1095C129.694 54.2626 130.221 54.4839 131 54.7735C132.069 55.1616 132.79 55.5523 133.163 55.946C133.541 56.3394 133.731 56.8338 133.731 57.4295ZM148.848 57.4295C148.848 58.2659 148.536 58.9106 147.911 59.3642C147.285 59.8178 146.408 60.0447 145.278 60.0447C144.083 60.0447 143.15 59.8561 142.481 59.4789V58.2167C142.914 58.4352 143.378 58.6073 143.871 58.7329C144.37 58.8588 144.85 58.9215 145.311 58.9215C146.024 58.9215 146.572 58.8096 146.956 58.5855C147.34 58.356 147.532 58.009 147.532 57.5443C147.532 57.1945 147.378 56.8968 147.071 56.6508C146.77 56.3995 146.178 56.1043 145.294 55.7655C144.455 55.454 143.858 55.1835 143.501 54.954C143.15 54.719 142.887 54.4537 142.711 54.1588C142.542 53.8636 142.456 53.511 142.456 53.1011C142.456 52.3688 142.755 51.7924 143.353 51.3715C143.951 50.9451 144.771 50.7321 145.813 50.7321C146.783 50.7321 147.732 50.9288 148.659 51.3223L148.174 52.4289C147.269 52.0573 146.449 51.8715 145.714 51.8715C145.067 51.8715 144.579 51.9726 144.25 52.1749C143.921 52.3772 143.756 52.6559 143.756 53.011C143.756 53.2516 143.817 53.4564 143.937 53.6257C144.063 53.7953 144.263 53.9565 144.538 54.1095C144.812 54.2626 145.338 54.4839 146.117 54.7735C147.187 55.1616 147.908 55.5523 148.281 55.946C148.659 56.3394 148.848 56.8338 148.848 57.4295ZM153.709 50.8961V56.7247C153.709 57.457 153.876 58.0034 154.21 58.3641C154.545 58.7248 155.069 58.9053 155.782 58.9053C156.725 58.9053 157.414 58.6484 157.847 58.1347C158.285 57.6209 158.505 56.782 158.505 55.618V50.8961H159.87V59.8807H158.743L158.546 58.6756H158.472C158.192 59.1182 157.803 59.4571 157.304 59.6921C156.81 59.9272 156.245 60.0447 155.609 60.0447C154.512 60.0447 153.69 59.785 153.141 59.266C152.598 58.7466 152.327 57.9161 152.327 56.7736V50.8961H153.709ZM167.725 60.0447C166.42 60.0447 165.408 59.6457 164.69 58.8479C163.977 58.0446 163.62 56.9105 163.62 55.4456C163.62 53.9427 163.982 52.7815 164.706 51.9616C165.436 51.1421 166.472 50.7321 167.816 50.7321C168.249 50.7321 168.682 50.7786 169.116 50.8715C169.549 50.9644 169.889 51.0735 170.135 51.1994L169.716 52.3551C169.414 52.235 169.085 52.1365 168.729 52.0601C168.372 51.9782 168.057 51.937 167.783 51.937C165.951 51.937 165.035 53.1011 165.035 55.4294C165.035 56.5333 165.257 57.3803 165.701 57.9707C166.151 58.5608 166.815 58.856 167.692 58.856C168.444 58.856 169.214 58.6949 170.004 58.3722V59.5774C169.401 59.8888 168.641 60.0447 167.725 60.0447ZM177.102 60.0447C175.797 60.0447 174.785 59.6457 174.067 58.8479C173.354 58.0446 172.997 56.9105 172.997 55.4456C172.997 53.9427 173.359 52.7815 174.083 51.9616C174.812 51.1421 175.849 50.7321 177.192 50.7321C177.626 50.7321 178.059 50.7786 178.492 50.8715C178.925 50.9644 179.266 51.0735 179.512 51.1994L179.093 52.3551C178.791 52.235 178.462 52.1365 178.106 52.0601C177.749 51.9782 177.434 51.937 177.16 51.937C175.328 51.937 174.412 53.1011 174.412 55.4294C174.412 56.5333 174.634 57.3803 175.078 57.9707C175.528 58.5608 176.192 58.856 177.069 58.856C177.821 58.856 178.591 58.6949 179.381 58.3722V59.5774C178.777 59.8888 178.018 60.0447 177.102 60.0447ZM186.684 60.0447C185.352 60.0447 184.299 59.6404 183.525 58.8314C182.758 58.0225 182.374 56.8996 182.374 55.4621C182.374 54.0138 182.73 52.8635 183.443 52.0109C184.162 51.1583 185.124 50.7321 186.331 50.7321C187.461 50.7321 188.355 51.1037 189.012 51.8469C189.671 52.5848 190 53.5602 190 54.7735V55.6342H183.789C183.816 56.6891 184.082 57.4897 184.587 58.0362C185.097 58.5827 185.813 58.856 186.734 58.856C187.705 58.856 188.664 58.6537 189.613 58.2494V59.4627C189.13 59.6703 188.672 59.8178 188.239 59.9054C187.812 59.9983 187.293 60.0447 186.684 60.0447ZM186.314 51.8715C185.59 51.8715 185.012 52.1066 184.578 52.5764C184.151 53.0465 183.898 53.6968 183.822 54.5276H188.535C188.535 53.6696 188.344 53.0138 187.959 52.5602C187.576 52.101 187.027 51.8715 186.314 51.8715ZM199.5 57.4295C199.5 58.2659 199.187 58.9106 198.562 59.3642C197.937 59.8178 197.059 60.0447 195.93 60.0447C194.734 60.0447 193.802 59.8561 193.133 59.4789V58.2167C193.566 58.4352 194.029 58.6073 194.523 58.7329C195.022 58.8588 195.502 58.9215 195.963 58.9215C196.676 58.9215 197.224 58.8096 197.608 58.5855C197.992 58.356 198.184 58.009 198.184 57.5443C198.184 57.1945 198.03 56.8968 197.723 56.6508C197.421 56.3995 196.829 56.1043 195.946 55.7655C195.107 55.454 194.509 55.1835 194.153 54.954C193.802 54.719 193.539 54.4537 193.363 54.1588C193.193 53.8636 193.108 53.511 193.108 53.1011C193.108 52.3688 193.407 51.7924 194.005 51.3715C194.603 50.9451 195.422 50.7321 196.464 50.7321C197.435 50.7321 198.384 50.9288 199.311 51.3223L198.825 52.4289C197.92 52.0573 197.1 51.8715 196.366 51.8715C195.718 51.8715 195.23 51.9726 194.901 52.1749C194.572 52.3772 194.408 52.6559 194.408 53.011C194.408 53.2516 194.468 53.4564 194.589 53.6257C194.715 53.7953 194.915 53.9565 195.189 54.1095C195.463 54.2626 195.99 54.4839 196.769 54.7735C197.838 55.1616 198.559 55.5523 198.932 55.946C199.311 56.3394 199.5 56.8338 199.5 57.4295ZM208.893 57.4295C208.893 58.2659 208.581 58.9106 207.955 59.3642C207.33 59.8178 206.453 60.0447 205.323 60.0447C204.127 60.0447 203.195 59.8561 202.526 59.4789V58.2167C202.959 58.4352 203.423 58.6073 203.916 58.7329C204.415 58.8588 204.895 58.9215 205.356 58.9215C206.069 58.9215 206.617 58.8096 207.001 58.5855C207.385 58.356 207.577 58.009 207.577 57.5443C207.577 57.1945 207.423 56.8968 207.116 56.6508C206.815 56.3995 206.222 56.1043 205.339 55.7655C204.5 55.454 203.902 55.1835 203.546 54.954C203.195 54.719 202.932 54.4537 202.756 54.1588C202.586 53.8636 202.501 53.511 202.501 53.1011C202.501 52.3688 202.8 51.7924 203.398 51.3715C203.996 50.9451 204.816 50.7321 205.858 50.7321C206.828 50.7321 207.777 50.9288 208.704 51.3223L208.219 52.4289C207.314 52.0573 206.494 51.8715 205.759 51.8715C205.112 51.8715 204.624 51.9726 204.295 52.1749C203.966 52.3772 203.801 52.6559 203.801 53.011C203.801 53.2516 203.861 53.4564 203.982 53.6257C204.108 53.7953 204.308 53.9565 204.583 54.1095C204.857 54.2626 205.383 54.4839 206.162 54.7735C207.232 55.1616 207.953 55.5523 208.326 55.946C208.704 56.3394 208.893 56.8338 208.893 57.4295Z"
          fill="#010101"/>
    <path d="M189.829 8.95412H184.75V0.165039H189.829V1.69201H186.62V3.62177H189.606V5.14873H186.62V7.41513H189.829V8.95412ZM194.534 4.06662H195.137C195.728 4.06662 196.165 3.96843 196.446 3.77206C196.728 3.57565 196.869 3.26707 196.869 2.84626C196.869 2.42944 196.724 2.13286 196.434 1.95652C196.149 1.78018 195.704 1.69201 195.101 1.69201H194.534V4.06662ZM194.534 5.58158V8.95412H192.664V0.165039H195.234C196.432 0.165039 197.319 0.383463 197.894 0.820312C198.469 1.25315 198.757 1.91244 198.757 2.79816C198.757 3.31517 198.614 3.77606 198.328 4.18084C198.043 4.58162 197.639 4.89622 197.116 5.12469C198.443 7.10053 199.308 8.377 199.71 8.95412H197.635L195.529 5.58158H194.534ZM203.678 4.30108H204.294C204.869 4.30108 205.299 4.18887 205.585 3.96443C205.87 3.73599 206.013 3.40533 206.013 2.97248C206.013 2.53565 205.892 2.21302 205.651 2.00461C205.414 1.79621 205.04 1.69201 204.529 1.69201H203.678V4.30108ZM207.901 2.90636C207.901 3.8522 207.604 4.57561 207.009 5.07659C206.417 5.57755 205.575 5.82804 204.481 5.82804H203.678V8.95412H201.808V0.165039H204.626C205.695 0.165039 206.508 0.395486 207.063 0.856383C207.622 1.31327 207.901 1.9966 207.901 2.90636Z"
          fill="#950000"/>
</svg>
