<svg width="40" height="41" viewBox="0 0 40 41" fill="none" xmlns="http://www.w3.org/2000/svg">
    <g clip-path="url(#clip0)">
        <path d="M38 7.13788H26C25.6318 7.13788 25.3333 7.43607 25.3333 7.80384V15.1294H14.6667V1.14423C14.6667 0.776458 14.3682 0.478271 14 0.478271H2.00001C1.63185 0.478271 1.33334 0.776458 1.33334 1.14423V39.77C1.33334 40.1378 1.63185 40.4359 2.00001 40.4359H38C38.3682 40.4359 38.6667 40.1378 38.6667 39.77V7.80384C38.6667 7.43607 38.3682 7.13788 38 7.13788ZM2.66668 1.81019H13.3333V39.104H2.66668V1.81019ZM14.6667 16.4613H25.3333V39.104H14.6667V16.4613ZM37.3333 39.104H26.6667V8.46981H37.3333V39.104Z"
              fill="#1B76FF"/>
    </g>
    <defs>
        <clipPath id="clip0">
            <rect width="40" height="39.9577" fill="white" transform="translate(0 0.478271)"/>
        </clipPath>
    </defs>
</svg>
