<svg width="10" height="11" viewBox="0 0 10 11" fill="none" xmlns="http://www.w3.org/2000/svg">
    <g clip-path="url(#clip0)">
        <path d="M0.648099 10.778C0.482248 10.778 0.316279 10.7146 0.190052 10.5883C-0.0633507 10.3351 -0.0633507 9.9258 0.190052 9.67264L8.89389 0.972831C9.14717 0.719668 9.5567 0.719668 9.80998 0.972831C10.0634 1.22599 10.0634 1.63532 9.80998 1.88849L1.10615 10.5883C0.979088 10.7152 0.81395 10.778 0.648099 10.778Z"
              fill="#F44336"/>
        <path d="M9.35194 10.778C9.18609 10.778 9.02024 10.7146 8.89389 10.5883L0.190052 1.88849C-0.0633507 1.63532 -0.0633507 1.22599 0.190052 0.972831C0.443336 0.719668 0.852743 0.719668 1.10615 0.972831L9.80998 9.67264C10.0634 9.9258 10.0634 10.3351 9.80998 10.5883C9.68364 10.7152 9.51779 10.778 9.35194 10.778Z"
              fill="#F44336"/>
    </g>
    <defs>
        <clipPath id="clip0">
            <rect width="10" height="9.99526" fill="white" transform="translate(0 0.774658)"/>
        </clipPath>
    </defs>
</svg>
