<svg width="10" height="10" viewBox="0 0 10 10" fill="none" xmlns="http://www.w3.org/2000/svg">
    <g clip-path="url(#clip0)">
        <path d="M9.62589 2.45633L4.99739 7.08526L0.368889 2.45633C0.282541 2.37292 0.144918 2.37532 0.0615047 2.46167C-0.0198505 2.54592 -0.0198505 2.67947 0.0615047 2.76369L4.84391 7.5461C4.92879 7.63096 5.0664 7.63096 5.1513 7.5461L9.93371 2.76369C10.0201 2.68028 10.0224 2.54268 9.93905 2.45631C9.85563 2.36996 9.71803 2.36758 9.63166 2.45097C9.62985 2.45272 9.62807 2.4545 9.62632 2.45631L9.62589 2.45633Z"
              fill="#FFC107"/>
        <path d="M4.99709 7.61004C4.9394 7.61014 4.88403 7.58732 4.84319 7.54656L0.0607799 2.76415C-0.0226336 2.6778 -0.0202288 2.54018 0.0661193 2.45677C0.150368 2.37541 0.283916 2.37541 0.368144 2.45677L4.99707 7.08527L9.62558 2.45634C9.70899 2.36999 9.84659 2.36761 9.93296 2.451C10.0193 2.53441 10.0217 2.67202 9.9383 2.75839C9.93655 2.7602 9.93477 2.76197 9.93296 2.76372L5.15057 7.54613C5.1099 7.58693 5.05469 7.6099 4.99709 7.61004Z"
              fill="black"/>
    </g>
    <defs>
        <clipPath id="clip0">
            <rect width="10" height="10" fill="white"/>
        </clipPath>
    </defs>
</svg>
