<svg width="40" height="41" viewBox="0 0 40 41" fill="none" xmlns="http://www.w3.org/2000/svg">
    <g clip-path="url(#clip0)">
        <path d="M20.0001 40.3181C19.127 40.3181 18.3451 39.8657 17.9087 39.108C17.9041 39.1001 17.8996 39.092 17.8952 39.084L7.97625 20.948C5.60859 16.6189 5.67648 11.4806 8.15789 7.20291C10.5855 3.01797 14.8973 0.461221 19.6922 0.363512C19.897 0.359298 20.103 0.359298 20.3077 0.363512C25.1026 0.461221 29.4145 3.01797 31.8421 7.20291C34.3235 11.4806 34.3914 16.6189 32.0238 20.948L22.1048 39.084C22.1004 39.092 22.0959 39.1001 22.0913 39.108C21.655 39.8657 20.8732 40.3181 20.0001 40.3181ZM20 2.85775C19.9141 2.85775 19.8285 2.8586 19.743 2.86032C15.8291 2.94008 12.3067 5.03154 10.3209 8.45502C8.28125 11.9712 8.22484 16.1939 10.1701 19.7506L20 37.7237L29.8298 19.7506C31.7751 16.1939 31.7188 11.9712 29.679 8.45502C27.6931 5.03161 24.1708 2.94008 20.2568 2.86032C20.1716 2.8586 20.0859 2.85775 20 2.85775Z"
              fill="#1B76FF"/>
        <path d="M20 18.4667C16.8984 18.4667 14.375 15.946 14.375 12.8477C14.375 9.74933 16.8984 7.22864 20 7.22864C23.1016 7.22864 25.625 9.74933 25.625 12.8477C25.625 15.946 23.1017 18.4667 20 18.4667ZM20 9.72599C18.2769 9.72599 16.875 11.1264 16.875 12.8477C16.875 14.569 18.2769 15.9694 20 15.9694C21.7231 15.9694 23.125 14.569 23.125 12.8477C23.125 11.1264 21.7231 9.72599 20 9.72599Z"
              fill="#1B76FF"/>
    </g>
    <defs>
        <clipPath id="clip0">
            <rect width="40" height="39.9577" fill="white" transform="translate(0 0.36084)"/>
        </clipPath>
    </defs>
</svg>
