<svg width="20" height="21" viewBox="0 0 20 21" fill="none" xmlns="http://www.w3.org/2000/svg">
    <g clip-path="url(#clip0)">
        <path d="M7.62206 7.92646L2.20535 13.3398L2.79459 13.9287L8.2113 8.51534L7.62206 7.92646Z" fill="#1B76FF"/>
        <path d="M12.3775 7.92656L11.7885 8.51562L17.2035 13.9307L17.7926 13.3416L12.3775 7.92656Z" fill="#1B76FF"/>
        <path d="M18.912 2.47754L9.99989 9.35998L1.08782 2.47754L0.578644 3.13713L9.74532 10.2161C9.81817 10.2725 9.90778 10.303 9.99989 10.3027C10.092 10.303 10.1816 10.2725 10.2545 10.2161L19.4211 3.13713L18.912 2.47754Z"
              fill="#1B76FF"/>
        <path d="M18.7499 1.97461H1.24994C0.559587 1.97461 -6.10352e-05 2.53391 -6.10352e-05 3.22384V14.8833C-6.10352e-05 15.5733 0.559587 16.1326 1.24994 16.1326H7.08326V18.2146C7.08322 18.383 7.18467 18.5349 7.34033 18.5994C7.39088 18.6204 7.44513 18.6312 7.4999 18.631C7.61041 18.631 7.71634 18.5871 7.79447 18.509L10.1724 16.1326H18.7499C19.4403 16.1326 19.9999 15.5733 19.9999 14.8833V3.22384C19.9999 2.53387 19.4403 1.97461 18.7499 1.97461ZM19.1666 14.8833C19.1666 15.1133 18.9801 15.2997 18.7499 15.2997H9.99994C9.88943 15.2998 9.78349 15.3436 9.70537 15.4217L7.91662 17.2094V15.7161C7.91662 15.4861 7.73006 15.2997 7.49994 15.2997H1.24994C1.01982 15.2997 0.833259 15.1132 0.833259 14.8833V3.22384C0.833259 2.99386 1.01982 2.80742 1.24994 2.80742H18.7499C18.9801 2.80742 19.1666 2.99386 19.1666 3.22384V14.8833Z"
              fill="#1B76FF"/>
    </g>
    <defs>
        <clipPath id="clip0">
            <rect width="20" height="19.9877" fill="white" transform="translate(-6.10352e-05 0.309082)"/>
        </clipPath>
    </defs>
</svg>
