<svg width="232" height="96" viewBox="0 0 232 96" fill="none" xmlns="http://www.w3.org/2000/svg">
    <g clip-path="url(#clip0)">
        <path d="M44.5866 58.9922V61.0585C44.5866 61.2516 44.4299 61.4082 44.2367 61.4082C44.0434 61.4082 43.8867 61.2516 43.8867 61.0585V58.9922C43.8867 57.3834 42.5842 56.0815 40.9745 56.0815C40.2129 56.0815 39.5219 55.6937 39.1259 55.044C39.0254 54.8791 39.0777 54.6638 39.2428 54.5633C39.4078 54.4628 39.6231 54.5151 39.7237 54.6801C39.9915 55.1196 40.4591 55.3819 40.9745 55.3819C42.9709 55.3818 44.5866 56.9966 44.5866 58.9922ZM38.4796 55.4859C38.5208 55.6747 38.4011 55.861 38.2122 55.9021C37.2912 56.1027 36.3546 55.9019 35.6088 55.3931C34.8704 56.1839 33.895 56.0815 34.0256 56.0815C32.416 56.0815 31.1134 57.3833 31.1134 58.9922V61.0585C31.1134 61.2516 30.9567 61.4082 30.7635 61.4082C30.5702 61.4082 30.4135 61.2516 30.4135 61.0585V58.9922C30.4135 56.9969 32.0289 55.3819 34.0255 55.3819C34.8331 55.3819 35.4878 54.7315 35.4878 53.9241V53.832C33.9603 53.1019 32.8882 51.5678 32.8228 49.7813C32.1942 49.6302 31.7258 49.0679 31.7258 48.3988V46.5854C31.7067 45.6978 31.8386 43.4748 33.4602 41.9124C35.4626 39.983 38.6738 40.1056 41.035 41.2417C41.2651 41.3526 41.3001 41.6634 41.109 41.8243C42.3052 42.1159 43.3367 42.8509 43.9993 43.9028C44.0335 43.957 44.0962 44.0421 44.0798 44.1777C44.0697 44.2622 44.0445 44.3336 43.9794 44.3996C43.5529 44.832 43.3181 45.4049 43.3181 46.0129V48.3988C43.3181 48.592 43.1614 48.7486 42.9681 48.7486C42.7748 48.7486 42.6182 48.592 42.6182 48.3988V46.0129C42.6182 45.3117 42.8578 44.6461 43.298 44.1114C42.6271 43.1523 41.5803 42.5355 40.3964 42.4088L39.7813 42.3429C39.4216 42.3044 39.3511 41.8092 39.6853 41.6717L39.9651 41.5566C36.3218 40.287 32.4257 41.6976 32.4257 46.5816V48.3988C32.4257 48.6763 32.5856 48.9175 32.8194 49.0387V46.7711C32.8194 45.421 33.9183 44.3225 35.2691 44.3225H39.731C41.0817 44.3225 42.1807 45.4209 42.1807 46.7709V49.6349C42.1807 52.677 39.2066 54.9876 36.1803 54.0971C36.1606 54.3466 36.0984 54.5875 35.9972 54.8113C36.5859 55.2154 37.3293 55.3784 38.0632 55.2186C38.252 55.1775 38.4385 55.2971 38.4796 55.4859ZM37.5 53.5872C39.695 53.5872 41.4808 51.8023 41.4808 49.6084V46.7709C41.4808 45.8067 40.6958 45.0221 39.731 45.0221H35.2691C34.3043 45.0221 33.5193 45.8067 33.5193 46.7711V49.6084C33.5193 51.8023 35.305 53.5872 37.5 53.5872ZM41.0433 59.6156H39.9935C39.8002 59.6156 39.6435 59.7722 39.6435 59.9654C39.6435 60.1585 39.8002 60.3152 39.9935 60.3152H41.0433C41.2366 60.3152 41.3933 60.1585 41.3933 59.9654C41.3933 59.7722 41.2366 59.6156 41.0433 59.6156Z"
              fill="#1B76FF"/>
    </g>
    <path d="M23.851 60.328H23.4344V49.4687C24.3751 48.8637 25 47.8087 25 46.6098C25 46.5461 24.9833 46.4835 24.9518 46.4282L22.0458 41.3453C21.8417 40.9884 21.4595 40.7666 21.0482 40.7666H3.95181C3.54053 40.7666 3.15825 40.9883 2.95415 41.3453L0.0482422 46.4282C0.0166504 46.4835 0 46.5462 0 46.6098C0 47.8087 0.624902 48.8637 1.56562 49.4687V60.328H1.14902C0.946777 60.328 0.782812 60.4919 0.782812 60.694C0.782812 60.8962 0.946777 61.06 1.14902 61.06H23.851C24.0533 61.06 24.2172 60.8962 24.2172 60.694C24.2172 60.4919 24.0532 60.328 23.851 60.328ZM0.757666 46.9759H1.93169C2.13394 46.9759 2.2979 46.812 2.2979 46.6098C2.2979 46.4077 2.13394 46.2438 1.93169 46.2438H0.997266L3.59009 41.7085C3.66411 41.5791 3.80269 41.4987 3.95181 41.4987H21.0482C21.1973 41.4987 21.3359 41.5791 21.4099 41.7085L24.0027 46.2438H23.0681C22.8658 46.2438 22.7019 46.4077 22.7019 46.6098C22.7019 46.812 22.8658 46.9759 23.0681 46.9759H24.2423C24.0632 48.2733 22.9468 49.2758 21.6003 49.2758C20.2539 49.2758 19.1379 48.2732 18.9588 46.9759H21.5026C21.7049 46.9759 21.8688 46.812 21.8688 46.6098C21.8688 46.4077 21.7049 46.2438 21.5026 46.2438H3.49761C3.29536 46.2438 3.1314 46.4077 3.1314 46.6098C3.1314 46.812 3.29536 46.9759 3.49761 46.9759H6.04111C5.86201 48.2732 4.74605 49.2758 3.39966 49.2758C2.05317 49.2758 0.936719 48.2733 0.757666 46.9759ZM18.1749 46.9759C17.9958 48.2732 16.8798 49.2758 15.5334 49.2758C14.187 49.2758 13.0711 48.2732 12.892 46.9759H18.1749ZM12.108 46.9759C11.9289 48.2732 10.8129 49.2758 9.46655 49.2758C8.12017 49.2758 7.0042 48.2732 6.8251 46.9759H12.108ZM20.7448 60.328H16.7803V59.1039H20.7448V60.328ZM20.7448 58.3719H16.7803V51.6706H20.7448V58.3719ZM22.702 60.328H21.4773V51.3046C21.4773 51.1024 21.3134 50.9385 21.1111 50.9385H16.4142C16.2119 50.9385 16.0479 51.1024 16.0479 51.3046V60.328H2.29805V49.8237C2.6438 49.9425 3.01411 50.0079 3.39966 50.0079C4.72266 50.0079 5.87153 49.2487 6.43311 48.1432C6.99468 49.2486 8.14355 50.0079 9.46655 50.0079C10.7896 50.0079 11.9384 49.2487 12.5 48.1432C13.0616 49.2486 14.2104 50.0079 15.5334 50.0079C16.8564 50.0079 18.0053 49.2487 18.5669 48.1432C19.1285 49.2486 20.2773 50.0079 21.6003 50.0079C21.9859 50.0079 22.3562 49.9425 22.702 49.8238V60.328Z"
          fill="#1B76FF"/>
    <path d="M14.4571 50.9385H3.88892C3.68667 50.9385 3.52271 51.1024 3.52271 51.3045V58.7379C3.52271 58.94 3.68667 59.1039 3.88892 59.1039H14.4571C14.6594 59.1039 14.8233 58.94 14.8233 58.7379V51.3045C14.8233 51.1023 14.6594 50.9385 14.4571 50.9385ZM14.0909 58.3718H4.25513V51.6706H14.0909V58.3718Z"
          fill="#1B76FF"/>
    <path d="M195.851 92.3128H195.434V81.4536C196.375 80.8485 197 79.7935 197 78.5947C197 78.531 196.983 78.4684 196.952 78.4131L194.046 73.3301C193.842 72.9732 193.459 72.7515 193.048 72.7515H175.952C175.541 72.7515 175.158 72.9732 174.954 73.3301L172.048 78.4131C172.017 78.4684 172 78.531 172 78.5947C172 79.7935 172.625 80.8485 173.566 81.4536V92.3128H173.149C172.947 92.3128 172.783 92.4767 172.783 92.6789C172.783 92.881 172.947 93.0449 173.149 93.0449H195.851C196.053 93.0449 196.217 92.881 196.217 92.6789C196.217 92.4767 196.053 92.3128 195.851 92.3128ZM172.758 78.9607H173.932C174.134 78.9607 174.298 78.7968 174.298 78.5947C174.298 78.3925 174.134 78.2287 173.932 78.2287H172.997L175.59 73.6934C175.664 73.5639 175.803 73.4835 175.952 73.4835H193.048C193.197 73.4835 193.336 73.5639 193.41 73.6934L196.003 78.2287H195.068C194.866 78.2287 194.702 78.3925 194.702 78.5947C194.702 78.7968 194.866 78.9607 195.068 78.9607H196.242C196.063 80.2582 194.947 81.2607 193.6 81.2607C192.254 81.2607 191.138 80.2581 190.959 78.9607H193.503C193.705 78.9607 193.869 78.7968 193.869 78.5947C193.869 78.3925 193.705 78.2287 193.503 78.2287H175.498C175.295 78.2287 175.131 78.3925 175.131 78.5947C175.131 78.7968 175.295 78.9607 175.498 78.9607H178.041C177.862 80.2581 176.746 81.2607 175.4 81.2607C174.053 81.2607 172.937 80.2582 172.758 78.9607ZM190.175 78.9607C189.996 80.2581 188.88 81.2607 187.533 81.2607C186.187 81.2607 185.071 80.2581 184.892 78.9607H190.175ZM184.108 78.9607C183.929 80.2581 182.813 81.2607 181.467 81.2607C180.12 81.2607 179.004 80.2581 178.825 78.9607H184.108ZM192.745 92.3129H188.78V91.0888H192.745V92.3129ZM192.745 90.3567H188.78V83.6555H192.745V90.3567ZM194.702 92.3129H193.477V83.2894C193.477 83.0873 193.313 82.9234 193.111 82.9234H188.414C188.212 82.9234 188.048 83.0873 188.048 83.2894V92.3128H174.298V81.8086C174.644 81.9273 175.014 81.9927 175.4 81.9927C176.723 81.9927 177.872 81.2335 178.433 80.128C178.995 81.2335 180.144 81.9927 181.467 81.9927C182.79 81.9927 183.938 81.2335 184.5 80.128C185.062 81.2335 186.21 81.9927 187.533 81.9927C188.856 81.9927 190.005 81.2335 190.567 80.128C191.128 81.2335 192.277 81.9927 193.6 81.9927C193.986 81.9927 194.356 81.9273 194.702 81.8086V92.3129Z"
          fill="#1B76FF"/>
    <path d="M186.457 82.9233H175.889C175.687 82.9233 175.523 83.0872 175.523 83.2894V90.7227C175.523 90.9249 175.687 91.0888 175.889 91.0888H186.457C186.659 91.0888 186.823 90.9249 186.823 90.7227V83.2894C186.823 83.0872 186.659 82.9233 186.457 82.9233ZM186.091 90.3567H176.255V83.6554H186.091V90.3567Z"
          fill="#1B76FF"/>
    <path d="M160.851 58.329H160.434V47.4697C161.375 46.8647 162 45.8096 162 44.6108C162 44.5471 161.983 44.4845 161.952 44.4292L159.046 39.3463C158.842 38.9893 158.459 38.7676 158.048 38.7676H140.952C140.541 38.7676 140.158 38.9893 139.954 39.3463L137.048 44.4292C137.017 44.4845 137 44.5472 137 44.6108C137 45.8096 137.625 46.8647 138.566 47.4697V58.329H138.149C137.947 58.329 137.783 58.4928 137.783 58.695C137.783 58.8971 137.947 59.061 138.149 59.061H160.851C161.053 59.061 161.217 58.8971 161.217 58.695C161.217 58.4928 161.053 58.329 160.851 58.329ZM137.758 44.9768H138.932C139.134 44.9768 139.298 44.813 139.298 44.6108C139.298 44.4087 139.134 44.2448 138.932 44.2448H137.997L140.59 39.7095C140.664 39.58 140.803 39.4997 140.952 39.4997H158.048C158.197 39.4997 158.336 39.58 158.41 39.7095L161.003 44.2448H160.068C159.866 44.2448 159.702 44.4087 159.702 44.6108C159.702 44.813 159.866 44.9768 160.068 44.9768H161.242C161.063 46.2743 159.947 47.2768 158.6 47.2768C157.254 47.2768 156.138 46.2742 155.959 44.9768H158.503C158.705 44.9768 158.869 44.813 158.869 44.6108C158.869 44.4087 158.705 44.2448 158.503 44.2448H140.498C140.295 44.2448 140.131 44.4087 140.131 44.6108C140.131 44.813 140.295 44.9768 140.498 44.9768H143.041C142.862 46.2742 141.746 47.2768 140.4 47.2768C139.053 47.2768 137.937 46.2743 137.758 44.9768ZM155.175 44.9768C154.996 46.2742 153.88 47.2768 152.533 47.2768C151.187 47.2768 150.071 46.2742 149.892 44.9768H155.175ZM149.108 44.9768C148.929 46.2742 147.813 47.2768 146.467 47.2768C145.12 47.2768 144.004 46.2742 143.825 44.9768H149.108ZM157.745 58.329H153.78V57.1049H157.745V58.329ZM157.745 56.3728H153.78V49.6716H157.745V56.3728ZM159.702 58.329H158.477V49.3055C158.477 49.1034 158.313 48.9395 158.111 48.9395H153.414C153.212 48.9395 153.048 49.1034 153.048 49.3055V58.329H139.298V47.8247C139.644 47.9434 140.014 48.0088 140.4 48.0088C141.723 48.0088 142.872 47.2496 143.433 46.1442C143.995 47.2496 145.144 48.0088 146.467 48.0088C147.79 48.0088 148.938 47.2496 149.5 46.1442C150.062 47.2496 151.21 48.0088 152.533 48.0088C153.856 48.0088 155.005 47.2496 155.567 46.1442C156.128 47.2496 157.277 48.0088 158.6 48.0088C158.986 48.0088 159.356 47.9434 159.702 47.8248V58.329Z"
          fill="#1B76FF"/>
    <path d="M151.457 48.9395H140.889C140.687 48.9395 140.523 49.1033 140.523 49.3055V56.7388C140.523 56.941 140.687 57.1049 140.889 57.1049H151.457C151.659 57.1049 151.823 56.941 151.823 56.7388V49.3055C151.823 49.1033 151.659 48.9395 151.457 48.9395ZM151.091 56.3728H141.255V49.6715H151.091V56.3728Z"
          fill="#1B76FF"/>
    <path d="M195.851 22.346H195.434V11.4868C196.375 10.8818 197 9.82674 197 8.62789C197 8.5642 196.983 8.50158 196.952 8.44629L194.046 3.36335C193.842 3.00644 193.459 2.78467 193.048 2.78467H175.952C175.541 2.78467 175.158 3.00639 174.954 3.36335L172.048 8.44629C172.017 8.50158 172 8.56425 172 8.62789C172 9.82674 172.625 10.8818 173.566 11.4868V22.346H173.149C172.947 22.346 172.783 22.5099 172.783 22.7121C172.783 22.9142 172.947 23.0781 173.149 23.0781H195.851C196.053 23.0781 196.217 22.9142 196.217 22.7121C196.217 22.5099 196.053 22.346 195.851 22.346ZM172.758 8.99393H173.932C174.134 8.99393 174.298 8.83004 174.298 8.62789C174.298 8.42574 174.134 8.26185 173.932 8.26185H172.997L175.59 3.72655C175.664 3.59712 175.803 3.51674 175.952 3.51674H193.048C193.197 3.51674 193.336 3.59712 193.41 3.72655L196.003 8.26185H195.068C194.866 8.26185 194.702 8.42574 194.702 8.62789C194.702 8.83004 194.866 8.99393 195.068 8.99393H196.242C196.063 10.2914 194.947 11.2939 193.6 11.2939C192.254 11.2939 191.138 10.2913 190.959 8.99393H193.503C193.705 8.99393 193.869 8.83004 193.869 8.62789C193.869 8.42574 193.705 8.26185 193.503 8.26185H175.498C175.295 8.26185 175.131 8.42574 175.131 8.62789C175.131 8.83004 175.295 8.99393 175.498 8.99393H178.041C177.862 10.2913 176.746 11.2939 175.4 11.2939C174.053 11.2939 172.937 10.2914 172.758 8.99393ZM190.175 8.99393C189.996 10.2913 188.88 11.2939 187.533 11.2939C186.187 11.2939 185.071 10.2913 184.892 8.99393H190.175ZM184.108 8.99393C183.929 10.2913 182.813 11.2939 181.467 11.2939C180.12 11.2939 179.004 10.2913 178.825 8.99393H184.108ZM192.745 22.3461H188.78V21.122H192.745V22.3461ZM192.745 20.3899H188.78V13.6887H192.745V20.3899ZM194.702 22.3461H193.477V13.3226C193.477 13.1205 193.313 12.9566 193.111 12.9566H188.414C188.212 12.9566 188.048 13.1205 188.048 13.3226V22.346H174.298V11.8418C174.644 11.9605 175.014 12.0259 175.4 12.0259C176.723 12.0259 177.872 11.2667 178.433 10.1612C178.995 11.2667 180.144 12.0259 181.467 12.0259C182.79 12.0259 183.938 11.2667 184.5 10.1612C185.062 11.2667 186.21 12.0259 187.533 12.0259C188.856 12.0259 190.005 11.2667 190.567 10.1612C191.128 11.2667 192.277 12.0259 193.6 12.0259C193.986 12.0259 194.356 11.9605 194.702 11.8418V22.3461Z"
          fill="#1B76FF"/>
    <path d="M186.457 12.9565H175.889C175.687 12.9565 175.523 13.1204 175.523 13.3226V20.7559C175.523 20.9581 175.687 21.122 175.889 21.122H186.457C186.659 21.122 186.823 20.9581 186.823 20.7559V13.3226C186.823 13.1204 186.659 12.9565 186.457 12.9565ZM186.091 20.3899H176.255V13.6886H186.091V20.3899Z"
          fill="#1B76FF"/>
    <path d="M230.851 58.329H230.434V47.4697C231.375 46.8647 232 45.8096 232 44.6108C232 44.5471 231.983 44.4845 231.952 44.4292L229.046 39.3463C228.842 38.9893 228.459 38.7676 228.048 38.7676H210.952C210.541 38.7676 210.158 38.9893 209.954 39.3463L207.048 44.4292C207.017 44.4845 207 44.5472 207 44.6108C207 45.8096 207.625 46.8647 208.566 47.4697V58.329H208.149C207.947 58.329 207.783 58.4928 207.783 58.695C207.783 58.8971 207.947 59.061 208.149 59.061H230.851C231.053 59.061 231.217 58.8971 231.217 58.695C231.217 58.4928 231.053 58.329 230.851 58.329ZM207.758 44.9768H208.932C209.134 44.9768 209.298 44.813 209.298 44.6108C209.298 44.4087 209.134 44.2448 208.932 44.2448H207.997L210.59 39.7095C210.664 39.58 210.803 39.4997 210.952 39.4997H228.048C228.197 39.4997 228.336 39.58 228.41 39.7095L231.003 44.2448H230.068C229.866 44.2448 229.702 44.4087 229.702 44.6108C229.702 44.813 229.866 44.9768 230.068 44.9768H231.242C231.063 46.2743 229.947 47.2768 228.6 47.2768C227.254 47.2768 226.138 46.2742 225.959 44.9768H228.503C228.705 44.9768 228.869 44.813 228.869 44.6108C228.869 44.4087 228.705 44.2448 228.503 44.2448H210.498C210.295 44.2448 210.131 44.4087 210.131 44.6108C210.131 44.813 210.295 44.9768 210.498 44.9768H213.041C212.862 46.2742 211.746 47.2768 210.4 47.2768C209.053 47.2768 207.937 46.2743 207.758 44.9768ZM225.175 44.9768C224.996 46.2742 223.88 47.2768 222.533 47.2768C221.187 47.2768 220.071 46.2742 219.892 44.9768H225.175ZM219.108 44.9768C218.929 46.2742 217.813 47.2768 216.467 47.2768C215.12 47.2768 214.004 46.2742 213.825 44.9768H219.108ZM227.745 58.329H223.78V57.1049H227.745V58.329ZM227.745 56.3728H223.78V49.6716H227.745V56.3728ZM229.702 58.329H228.477V49.3055C228.477 49.1034 228.313 48.9395 228.111 48.9395H223.414C223.212 48.9395 223.048 49.1034 223.048 49.3055V58.329H209.298V47.8247C209.644 47.9434 210.014 48.0088 210.4 48.0088C211.723 48.0088 212.872 47.2496 213.433 46.1442C213.995 47.2496 215.144 48.0088 216.467 48.0088C217.79 48.0088 218.938 47.2496 219.5 46.1442C220.062 47.2496 221.21 48.0088 222.533 48.0088C223.856 48.0088 225.005 47.2496 225.567 46.1442C226.128 47.2496 227.277 48.0088 228.6 48.0088C228.986 48.0088 229.356 47.9434 229.702 47.8248V58.329Z"
          fill="#1B76FF"/>
    <path d="M221.457 48.9395H210.889C210.687 48.9395 210.523 49.1033 210.523 49.3055V56.7388C210.523 56.941 210.687 57.1049 210.889 57.1049H221.457C221.659 57.1049 221.823 56.941 221.823 56.7388V49.3055C221.823 49.1033 221.659 48.9395 221.457 48.9395ZM221.091 56.3728H211.255V49.6715H221.091V56.3728Z"
          fill="#1B76FF"/>
    <path d="M115.354 56.7642C115.549 56.5689 115.549 56.2524 115.354 56.0571L112.172 52.8751C111.976 52.6798 111.66 52.6798 111.464 52.8751C111.269 53.0704 111.269 53.387 111.464 53.5822L114.293 56.4106L111.464 59.2391C111.269 59.4343 111.269 59.7509 111.464 59.9462C111.66 60.1414 111.976 60.1414 112.172 59.9462L115.354 56.7642ZM69 56.9106H115V55.9106H69V56.9106Z"
          fill="#1B76FF"/>
    <path d="M82.2012 53.7102H80.918V51.4192H76.4766V53.7102H75.2051V50.3528H75.7324C76.1934 49.6926 76.5586 48.8958 76.8281 47.9622C77.1016 47.0247 77.2637 46.0168 77.3145 44.9387H81.252V50.3528H82.2012V53.7102ZM79.8984 50.3528V45.9934H78.5039C78.4297 46.7981 78.2734 47.5911 78.0352 48.3723C77.8008 49.1536 77.5137 49.8137 77.1738 50.3528H79.8984ZM89.1504 48.1672C89.1504 49.2258 88.8789 50.052 88.3359 50.6458C87.793 51.2395 87.0371 51.5364 86.0684 51.5364C85.4629 51.5364 84.9277 51.3997 84.4629 51.1262C83.998 50.8528 83.6406 50.4602 83.3906 49.9485C83.1406 49.4368 83.0156 48.843 83.0156 48.1672C83.0156 47.1165 83.2852 46.2961 83.8242 45.7063C84.3633 45.1165 85.123 44.8215 86.1035 44.8215C87.041 44.8215 87.7832 45.1243 88.3301 45.7297C88.877 46.3313 89.1504 47.1438 89.1504 48.1672ZM84.4336 48.1672C84.4336 49.6633 84.9863 50.4114 86.0918 50.4114C87.1855 50.4114 87.7324 49.6633 87.7324 48.1672C87.7324 46.6868 87.1816 45.9465 86.0801 45.9465C85.502 45.9465 85.082 46.1379 84.8203 46.5208C84.5625 46.9036 84.4336 47.4524 84.4336 48.1672ZM97.4414 51.4192H96.0645V45.8879C96.0645 45.2278 96.0801 44.7043 96.1113 44.3176C96.0215 44.4114 95.9102 44.5149 95.7773 44.6282C95.6484 44.7415 95.2109 45.1008 94.4648 45.7063L93.7734 44.8333L96.293 42.8528H97.4414V51.4192ZM106.061 47.136C106.061 48.6243 105.82 49.7297 105.34 50.4524C104.863 51.175 104.133 51.5364 103.148 51.5364C102.195 51.5364 101.473 51.1633 100.98 50.4172C100.488 49.6711 100.242 48.5774 100.242 47.136C100.242 45.6243 100.48 44.511 100.957 43.7961C101.438 43.0774 102.168 42.718 103.148 42.718C104.105 42.718 104.83 43.093 105.322 43.843C105.814 44.593 106.061 45.6907 106.061 47.136ZM101.637 47.136C101.637 48.304 101.756 49.1379 101.994 49.6379C102.236 50.1379 102.621 50.3879 103.148 50.3879C103.676 50.3879 104.061 50.134 104.303 49.6262C104.549 49.1184 104.672 48.2883 104.672 47.136C104.672 45.9875 104.549 45.1575 104.303 44.6458C104.061 44.1301 103.676 43.8723 103.148 43.8723C102.621 43.8723 102.236 44.1243 101.994 44.6282C101.756 45.1321 101.637 45.968 101.637 47.136Z"
          fill="#1B76FF"/>
    <path d="M194.057 47.0003C193.206 46.575 191.611 46.5701 191.544 46.5701C191.341 46.5701 191.177 46.734 191.177 46.9363C191.177 47.1385 191.341 47.3025 191.544 47.3025C191.955 47.3025 193.15 47.3659 193.729 47.6554C193.782 47.6817 193.838 47.6941 193.893 47.6941C194.027 47.6941 194.156 47.6199 194.22 47.4916C194.311 47.3107 194.238 47.0908 194.057 47.0003Z"
          fill="#1B76FF"/>
    <path d="M195.882 52.2116L194.37 51.7797C194.305 51.7611 194.259 51.7006 194.259 51.6327V51.1282C194.382 51.0429 194.5 50.9476 194.609 50.8411C195.141 50.3254 195.434 49.6336 195.434 48.8931V48.1968L195.58 47.9045C195.741 47.5836 195.825 47.2243 195.825 46.8656V44.9793C195.825 44.7772 195.661 44.6133 195.459 44.6133H191.935C190.654 44.6133 189.611 45.6554 189.611 46.9362V46.958C189.611 47.2563 189.682 47.555 189.815 47.8218L190.003 48.1967V48.7946C190.003 49.7421 190.47 50.5922 191.177 51.1038L191.177 51.6327C191.177 51.7142 191.177 51.748 190.875 51.8344L190.137 52.0451L188.002 51.2692C188.01 51.1685 187.976 51.0661 187.902 50.989L187.22 50.2726V49.07C187.292 49.0107 187.363 48.9496 187.432 48.8851C188.293 48.0789 188.786 46.9405 188.786 45.762V44.8017C189.046 44.2365 189.178 43.6383 189.178 43.0224V39.1087C189.178 38.9066 189.014 38.7427 188.812 38.7427H183.33C181.401 38.7427 179.831 40.3115 179.831 42.2397V43.0225C179.831 43.6384 179.963 44.2366 180.223 44.8018V45.6281C180.223 46.9964 180.831 48.2291 181.789 49.0418V50.2727L181.107 50.989C181.033 51.0662 180.999 51.1686 181.007 51.2692L178.754 52.0881C178.591 52.1475 178.439 52.2279 178.301 52.3252L177.947 52.1484C179.001 51.6902 179.334 51.0457 179.35 51.0137C179.402 50.9107 179.402 50.7893 179.35 50.6863C179.086 50.1585 179.054 49.1912 179.029 48.4139C179.02 48.1552 179.012 47.9107 178.996 47.693C178.872 45.9373 177.536 44.6133 175.89 44.6133C174.244 44.6133 172.909 45.9373 172.784 47.693C172.769 47.9107 172.76 48.1552 172.752 48.414C172.726 49.1912 172.694 50.1585 172.43 50.6863C172.379 50.7893 172.379 50.9106 172.43 51.0137C172.446 51.0457 172.779 51.6888 173.835 52.1476L172.852 52.6387C172.326 52.9015 172 53.4293 172 54.0164V56.7206C172 56.9228 172.164 57.0867 172.366 57.0867C172.568 57.0867 172.732 56.9228 172.732 56.7206V54.0164C172.732 53.7083 172.904 53.4314 173.179 53.2936L174.403 52.682L174.829 53.0864C175.126 53.3691 175.508 53.5104 175.89 53.5104C176.272 53.5104 176.654 53.369 176.952 53.0864L177.377 52.6821L177.776 52.8815C177.588 53.182 177.482 53.5343 177.482 53.9034V56.7207C177.482 56.9229 177.646 57.0868 177.848 57.0868C178.05 57.0868 178.214 56.9229 178.214 56.7207V53.9034C178.214 53.401 178.532 52.9479 179.004 52.7762L181.38 51.9128L182.369 53.3955C182.495 53.5851 182.698 53.7067 182.925 53.7291C182.95 53.7316 182.975 53.7328 183 53.7328C183.2 53.7328 183.392 53.6541 183.535 53.511L184.138 52.9079V56.7208C184.138 56.9229 184.302 57.0868 184.505 57.0868C184.707 57.0868 184.871 56.9229 184.871 56.7208V52.9079L185.474 53.511C185.617 53.6542 185.809 53.7329 186.009 53.7329C186.034 53.7329 186.059 53.7317 186.085 53.7292C186.311 53.7067 186.514 53.5851 186.64 53.3956L187.629 51.9129L190.005 52.7763C190.477 52.948 190.795 53.401 190.795 53.9035V56.7208C190.795 56.923 190.959 57.0868 191.161 57.0868C191.363 57.0868 191.527 56.923 191.527 56.7208V53.9035C191.527 53.3946 191.325 52.9173 190.986 52.5643L191.076 52.5385C191.167 52.5124 191.292 52.4767 191.417 52.4155L192.352 53.35V56.7208C192.352 56.923 192.516 57.0868 192.718 57.0868C192.92 57.0868 193.084 56.923 193.084 56.7208V53.35L194.013 52.422C194.062 52.4471 194.114 52.4682 194.169 52.4838L195.681 52.9157C196.026 53.0143 196.268 53.3338 196.268 53.6928V56.7208C196.268 56.923 196.432 57.0868 196.634 57.0868C196.836 57.0868 197 56.923 197 56.7208V53.6928C197 53.0086 196.54 52.3996 195.882 52.2116ZM174.349 51.5651C173.664 51.3187 173.321 50.9903 173.174 50.8109C173.274 50.5496 173.339 50.2503 173.383 49.9344C173.585 50.4184 173.923 50.8316 174.349 51.1264V51.5651ZM176.447 52.5557C176.135 52.8524 175.646 52.8523 175.333 52.5557L174.993 52.2322C175.05 52.1246 175.082 52.0026 175.082 51.8748V51.4846C175.337 51.5644 175.609 51.6075 175.89 51.6075C176.171 51.6075 176.443 51.5642 176.699 51.4849L176.699 51.8747C176.699 52.0026 176.73 52.1247 176.788 52.2323L176.447 52.5557ZM175.89 50.8754C174.797 50.8754 173.907 49.9862 173.907 48.8932C173.907 48.691 173.743 48.5271 173.541 48.5271C173.521 48.5271 173.501 48.5292 173.481 48.5325C173.482 48.501 173.483 48.4695 173.484 48.4383C173.492 48.1866 173.5 47.9489 173.515 47.745C173.561 47.0873 173.824 46.4812 174.255 46.0384C174.69 45.5915 175.27 45.3454 175.89 45.3454C176.51 45.3454 177.091 45.5915 177.526 46.0384C177.956 46.4812 178.219 47.0873 178.266 47.745C178.28 47.9489 178.288 48.1865 178.297 48.4382C178.297 48.4598 178.298 48.4817 178.299 48.5035C177.9 47.8899 177.285 47.4377 176.49 47.1824C175.756 46.9465 175.124 46.9611 175.097 46.9618C175.001 46.9645 174.91 47.0046 174.844 47.0736L174.183 47.7585C174.043 47.904 174.047 48.1358 174.192 48.2761C174.338 48.4164 174.57 48.4122 174.71 48.2667L175.26 47.6968C175.733 47.7199 177.257 47.897 177.849 49.2009C177.7 50.1618 176.874 50.8754 175.89 50.8754ZM177.431 51.5663L177.431 51.1298C177.857 50.8366 178.196 50.4242 178.398 49.9365C178.442 50.2517 178.507 50.5503 178.606 50.811C178.461 50.9887 178.115 51.3201 177.431 51.5663ZM180.955 45.628V44.7199C180.955 44.6648 180.943 44.6103 180.919 44.5607C180.683 44.073 180.564 43.5554 180.564 43.0225V42.2397C180.564 40.7151 181.805 39.4748 183.33 39.4748H188.446V43.0225C188.446 43.5555 188.326 44.073 188.09 44.5608C188.067 44.6104 188.054 44.6648 188.054 44.7199V45.7621C188.054 46.7534 187.655 47.6729 186.931 48.3511C186.841 48.4357 186.747 48.5151 186.65 48.589C186.648 48.5905 186.646 48.5921 186.644 48.5936C185.966 49.1083 185.135 49.3584 184.268 49.3022C182.41 49.182 180.955 47.5681 180.955 45.628ZM183.017 52.9932C183.015 52.9958 183.009 53.0018 182.997 53.0005C182.985 52.9993 182.98 52.9924 182.978 52.9893L181.839 51.2817L182.206 50.8968L183.934 52.0773L183.017 52.9932ZM184.505 51.5807L182.521 50.2257V49.5425C183.035 49.8197 183.609 49.9931 184.22 50.0327C184.317 50.0389 184.413 50.042 184.508 50.042C185.209 50.042 185.883 49.8747 186.488 49.5571V50.2257L184.505 51.5807ZM186.031 52.9894C186.029 52.9925 186.024 52.9994 186.013 53.0006C186.001 53.0021 185.995 52.9958 185.992 52.9933L185.076 52.0774L186.804 50.8969L187.17 51.2818L186.031 52.9894ZM192.718 52.6806L191.887 51.85C191.902 51.7841 191.91 51.7121 191.91 51.6326L191.91 51.4781C192.14 51.5537 192.383 51.5986 192.635 51.6061C192.663 51.607 192.691 51.6074 192.719 51.6074C192.997 51.6074 193.268 51.5654 193.527 51.4854V51.6327C193.527 51.7058 193.536 51.7773 193.553 51.8461L192.718 52.6806ZM194.099 50.3158C193.711 50.6923 193.198 50.8911 192.657 50.8744C191.597 50.8426 190.735 49.9096 190.735 48.7947V48.1104C190.735 48.0535 190.722 47.9975 190.696 47.9467L190.47 47.4945C190.387 47.3288 190.343 47.1433 190.343 46.9581V46.9362C190.343 46.059 191.057 45.3454 191.935 45.3454H195.093V46.8657C195.093 47.1114 195.035 47.3574 194.925 47.5772L194.74 47.9467C194.715 47.9976 194.701 48.0535 194.701 48.1104V48.8931C194.701 49.4339 194.487 49.9391 194.099 50.3158Z"
          fill="#1B76FF"/>
    <path d="M195.068 54.0063C194.865 54.0063 194.701 54.1702 194.701 54.3724V56.7206C194.701 56.9228 194.865 57.0867 195.068 57.0867C195.27 57.0867 195.434 56.9228 195.434 56.7206V54.3724C195.434 54.1703 195.27 54.0063 195.068 54.0063Z"
          fill="#1B76FF"/>
    <path d="M173.932 54.49C173.73 54.49 173.566 54.6539 173.566 54.856V56.7204C173.566 56.9226 173.73 57.0865 173.932 57.0865C174.135 57.0865 174.299 56.9226 174.299 56.7204V54.856C174.299 54.6539 174.135 54.49 173.932 54.49Z"
          fill="#1B76FF"/>
    <path d="M187.505 43.1556C186.119 41.7706 183.222 42.0354 182.04 42.2135C181.668 42.2696 181.397 42.5846 181.397 42.9625V43.8061C181.397 44.0084 181.561 44.1723 181.764 44.1723C181.966 44.1723 182.13 44.0084 182.13 43.8061V42.9624C182.13 42.95 182.138 42.9393 182.149 42.9377C182.621 42.8665 183.558 42.7568 184.528 42.8215C185.67 42.8975 186.497 43.1842 186.987 43.6735C187.13 43.8165 187.362 43.8165 187.505 43.6735C187.648 43.5305 187.648 43.2986 187.505 43.1556Z"
          fill="#1B76FF"/>
    <path d="M180.197 54.7891C179.995 54.7891 179.831 54.9529 179.831 55.1551V56.7206C179.831 56.9228 179.995 57.0867 180.197 57.0867C180.4 57.0867 180.564 56.9228 180.564 56.7206V55.1551C180.564 54.953 180.4 54.7891 180.197 54.7891Z"
          fill="#1B76FF"/>
    <path d="M188.812 54.7891C188.61 54.7891 188.446 54.9529 188.446 55.1551V56.7206C188.446 56.9228 188.61 57.0867 188.812 57.0867C189.014 57.0867 189.178 56.9228 189.178 56.7206V55.1551C189.178 54.953 189.014 54.7891 188.812 54.7891Z"
          fill="#1B76FF"/>
    <defs>
        <clipPath id="clip0">
            <rect width="21" height="20.99" fill="white" transform="translate(27 40.4182)"/>
        </clipPath>
    </defs>
</svg>
