<svg width="104" height="105" viewBox="0 0 104 105" fill="none" xmlns="http://www.w3.org/2000/svg">
    <path d="M103.5 52.8962C103.5 81.3251 80.4429 104.372 52 104.372C23.5571 104.372 0.5 81.3251 0.5 52.8962C0.5 24.4674 23.5571 1.4209 52 1.4209C80.4429 1.4209 103.5 24.4674 103.5 52.8962Z"
          fill="white" stroke="#1B76FF"/>
    <g clip-path="url(#clip0)">
        <path d="M45.5866 61.4749V63.5411C45.5866 63.7343 45.4299 63.8909 45.2367 63.8909C45.0434 63.8909 44.8867 63.7343 44.8867 63.5411V61.4749C44.8867 59.8661 43.5842 58.5641 41.9745 58.5642C41.2129 58.5642 40.5219 58.1763 40.1259 57.5267C40.0254 57.3617 40.0777 57.1465 40.2428 57.046C40.4078 56.9455 40.6231 56.9978 40.7237 57.1628C40.9915 57.6023 41.4591 57.8646 41.9745 57.8646C43.9709 57.8645 45.5866 59.4793 45.5866 61.4749ZM39.4796 57.9686C39.5208 58.1573 39.4011 58.3437 39.2122 58.3848C38.2912 58.5854 37.3546 58.3846 36.6088 57.8758C35.8704 58.6666 34.895 58.5642 35.0256 58.5642C33.416 58.5641 32.1134 59.8659 32.1134 61.4749V63.5411C32.1134 63.7343 31.9567 63.8909 31.7635 63.8909C31.5702 63.8909 31.4135 63.7343 31.4135 63.5411V61.4749C31.4135 59.4795 33.0289 57.8646 35.0255 57.8646C35.8331 57.8646 36.4878 57.2142 36.4878 56.4068V56.3146C34.9603 55.5846 33.8882 54.0505 33.8228 52.264C33.1942 52.1129 32.7258 51.5505 32.7258 50.8814V49.0681C32.7067 48.1805 32.8386 45.9575 34.4602 44.395C36.4626 42.4657 39.6738 42.5883 42.035 43.7244C42.2652 43.8352 42.3001 44.146 42.109 44.307C43.3052 44.5986 44.3367 45.3336 44.9993 46.3855C45.0336 46.4397 45.0962 46.5247 45.0798 46.6604C45.0697 46.7448 45.0445 46.8163 44.9794 46.8823C44.5529 47.3146 44.3181 47.8875 44.3181 48.4955V50.8815C44.3181 51.0747 44.1614 51.2313 43.9681 51.2313C43.7749 51.2313 43.6182 51.0747 43.6182 50.8815V48.4955C43.6182 47.7943 43.8578 47.1288 44.298 46.5941C43.6271 45.635 42.5803 45.0181 41.3964 44.8914L40.7813 44.8256C40.4216 44.7871 40.3511 44.2919 40.6853 44.1543L40.9651 44.0392C37.3218 42.7697 33.4257 44.1803 33.4257 49.0643V50.8814C33.4257 51.159 33.5856 51.4002 33.8194 51.5214V49.2537C33.8194 47.9036 34.9183 46.8052 36.2691 46.8052H40.731C42.0817 46.8052 43.1807 47.9035 43.1807 49.2536V52.1176C43.1807 55.1596 40.2066 57.4702 37.1803 56.5797C37.1606 56.8293 37.0984 57.0701 36.9972 57.294C37.5859 57.6981 38.3293 57.8611 39.0632 57.7012C39.252 57.6601 39.4385 57.7798 39.4796 57.9686ZM38.5 56.0699C40.695 56.0699 42.4808 54.285 42.4808 52.091V49.2536C42.4808 48.2893 41.6958 47.5048 40.731 47.5048H36.2691C35.3043 47.5048 34.5193 48.2894 34.5193 49.2537V52.091C34.5193 54.285 36.305 56.0699 38.5 56.0699ZM42.0433 62.0983H40.9935C40.8002 62.0983 40.6435 62.2549 40.6435 62.448C40.6435 62.6412 40.8002 62.7978 40.9935 62.7978H42.0433C42.2366 62.7978 42.3933 62.6412 42.3933 62.448C42.3933 62.2549 42.2366 62.0983 42.0433 62.0983Z"
              fill="#1B76FF"/>
    </g>
    <path d="M74.851 62.8106H74.4344V51.9514C75.3751 51.3464 76 50.2913 76 49.0925C76 49.0288 75.9833 48.9662 75.9518 48.9109L73.0458 43.8279C72.8417 43.471 72.4595 43.2493 72.0482 43.2493H54.9518C54.5405 43.2493 54.1583 43.471 53.9542 43.8279L51.0482 48.9109C51.0167 48.9662 51 49.0288 51 49.0925C51 50.2913 51.6249 51.3464 52.5656 51.9514V62.8106H52.149C51.9468 62.8106 51.7828 62.9745 51.7828 63.1767C51.7828 63.3788 51.9468 63.5427 52.149 63.5427H74.851C75.0533 63.5427 75.2172 63.3788 75.2172 63.1767C75.2172 62.9745 75.0532 62.8106 74.851 62.8106ZM51.7577 49.4585H52.9317C53.1339 49.4585 53.2979 49.2946 53.2979 49.0925C53.2979 48.8903 53.1339 48.7265 52.9317 48.7265H51.9973L54.5901 44.1912C54.6641 44.0617 54.8027 43.9813 54.9518 43.9813H72.0482C72.1973 43.9813 72.3359 44.0617 72.4099 44.1912L75.0027 48.7265H74.0681C73.8658 48.7265 73.7019 48.8903 73.7019 49.0925C73.7019 49.2946 73.8658 49.4585 74.0681 49.4585H75.2423C75.0632 50.756 73.9468 51.7585 72.6003 51.7585C71.2539 51.7585 70.1379 50.7559 69.9588 49.4585H72.5026C72.7049 49.4585 72.8688 49.2946 72.8688 49.0925C72.8688 48.8903 72.7049 48.7265 72.5026 48.7265H54.4976C54.2954 48.7265 54.1314 48.8903 54.1314 49.0925C54.1314 49.2946 54.2954 49.4585 54.4976 49.4585H57.0411C56.862 50.7559 55.746 51.7585 54.3997 51.7585C53.0532 51.7585 51.9367 50.756 51.7577 49.4585ZM69.1749 49.4585C68.9958 50.7559 67.8798 51.7585 66.5334 51.7585C65.187 51.7585 64.0711 50.7559 63.892 49.4585H69.1749ZM63.108 49.4585C62.9289 50.7559 61.8129 51.7585 60.4666 51.7585C59.1202 51.7585 58.0042 50.7559 57.8251 49.4585H63.108ZM71.7448 62.8107H67.7803V61.5866H71.7448V62.8107ZM71.7448 60.8545H67.7803V54.1533H71.7448V60.8545ZM73.702 62.8107H72.4773V53.7872C72.4773 53.5851 72.3134 53.4212 72.1111 53.4212H67.4142C67.2119 53.4212 67.0479 53.5851 67.0479 53.7872V62.8106H53.298V52.3064C53.6438 52.4251 54.0141 52.4905 54.3997 52.4905C55.7227 52.4905 56.8715 51.7313 57.4331 50.6258C57.9947 51.7313 59.1436 52.4905 60.4666 52.4905C61.7896 52.4905 62.9384 51.7313 63.5 50.6258C64.0616 51.7313 65.2104 52.4905 66.5334 52.4905C67.8564 52.4905 69.0053 51.7313 69.5669 50.6258C70.1285 51.7313 71.2773 52.4905 72.6003 52.4905C72.9859 52.4905 73.3562 52.4251 73.702 52.3064V62.8107Z"
          fill="#1B76FF"/>
    <path d="M65.4571 53.4211H54.8889C54.6867 53.4211 54.5227 53.585 54.5227 53.7872V61.2205C54.5227 61.4227 54.6867 61.5866 54.8889 61.5866H65.4571C65.6594 61.5866 65.8233 61.4227 65.8233 61.2205V53.7872C65.8233 53.585 65.6594 53.4211 65.4571 53.4211ZM65.0909 60.8545H55.2551V54.1532H65.0909V60.8545Z"
          fill="#1B76FF"/>
    <defs>
        <clipPath id="clip0">
            <rect width="21" height="20.99" fill="white" transform="translate(28 42.9009)"/>
        </clipPath>
    </defs>
</svg>
