<svg width="213" height="128" viewBox="0 0 213 128" fill="none" xmlns="http://www.w3.org/2000/svg">
    <g clip-path="url(#clip0)">
        <path d="M44.5866 71.2293V73.2955C44.5866 73.4887 44.4299 73.6453 44.2367 73.6453C44.0434 73.6453 43.8867 73.4887 43.8867 73.2955V71.2293C43.8867 69.6205 42.5842 68.3185 40.9745 68.3186C40.2129 68.3186 39.5219 67.9307 39.1259 67.2811C39.0254 67.1161 39.0777 66.9009 39.2428 66.8004C39.4078 66.6999 39.6231 66.7522 39.7237 66.9172C39.9915 67.3566 40.4591 67.619 40.9745 67.619C42.9709 67.6189 44.5866 69.2337 44.5866 71.2293ZM38.4796 67.723C38.5208 67.9117 38.4011 68.0981 38.2122 68.1392C37.2912 68.3398 36.3546 68.139 35.6088 67.6302C34.8704 68.421 33.895 68.3186 34.0256 68.3186C32.416 68.3185 31.1134 69.6203 31.1134 71.2293V73.2955C31.1134 73.4887 30.9567 73.6453 30.7635 73.6453C30.5702 73.6453 30.4135 73.4887 30.4135 73.2955V71.2293C30.4135 69.2339 32.0289 67.619 34.0255 67.619C34.8331 67.619 35.4878 66.9686 35.4878 66.1612V66.069C33.9603 65.339 32.8882 63.8049 32.8228 62.0184C32.1942 61.8673 31.7258 61.3049 31.7258 60.6358V58.8225C31.7067 57.9349 31.8386 55.7118 33.4602 54.1494C35.4626 52.2201 38.6738 52.3426 41.035 53.4788C41.2652 53.5896 41.3001 53.9004 41.109 54.0614C42.3052 54.353 43.3367 55.088 43.9993 56.1399C44.0336 56.1941 44.0962 56.2791 44.0798 56.4148C44.0697 56.4992 44.0445 56.5707 43.9794 56.6367C43.5529 57.069 43.3181 57.6419 43.3181 58.2499V60.6359C43.3181 60.8291 43.1614 60.9857 42.9681 60.9857C42.7749 60.9857 42.6182 60.8291 42.6182 60.6359V58.2499C42.6182 57.5487 42.8578 56.8832 43.298 56.3485C42.6271 55.3894 41.5803 54.7725 40.3964 54.6458L39.7813 54.58C39.4216 54.5415 39.3511 54.0462 39.6853 53.9087L39.9651 53.7936C36.3218 52.5241 32.4257 53.9347 32.4257 58.8187V60.6358C32.4257 60.9134 32.5856 61.1546 32.8194 61.2758V59.0081C32.8194 57.658 33.9183 56.5596 35.2691 56.5596H39.731C41.0817 56.5596 42.1807 57.6579 42.1807 59.008V61.872C42.1807 64.914 39.2066 67.2246 36.1803 66.3341C36.1606 66.5837 36.0984 66.8245 35.9972 67.0484C36.5859 67.4525 37.3293 67.6155 38.0632 67.4556C38.252 67.4145 38.4385 67.5342 38.4796 67.723ZM37.5 65.8243C39.695 65.8243 41.4808 64.0394 41.4808 61.8454V59.008C41.4808 58.0437 40.6958 57.2592 39.731 57.2592H35.2691C34.3043 57.2592 33.5193 58.0438 33.5193 59.0081V61.8454C33.5193 64.0394 35.305 65.8243 37.5 65.8243ZM41.0433 71.8526H39.9935C39.8002 71.8526 39.6435 72.0093 39.6435 72.2024C39.6435 72.3956 39.8002 72.5522 39.9935 72.5522H41.0433C41.2366 72.5522 41.3933 72.3956 41.3933 72.2024C41.3933 72.0093 41.2366 71.8526 41.0433 71.8526Z"
              fill="#1B76FF"/>
    </g>
    <path d="M23.851 72.565H23.4344V61.7058C24.3751 61.1007 25 60.0457 25 58.8469C25 58.7832 24.9833 58.7206 24.9518 58.6653L22.0458 53.5823C21.8417 53.2254 21.4595 53.0037 21.0482 53.0037H3.95181C3.54053 53.0037 3.15825 53.2254 2.95415 53.5823L0.0482422 58.6653C0.0166504 58.7206 0 58.7832 0 58.8469C0 60.0457 0.624902 61.1007 1.56562 61.7058V72.565H1.14902C0.946777 72.565 0.782812 72.7289 0.782812 72.9311C0.782812 73.1332 0.946777 73.2971 1.14902 73.2971H23.851C24.0533 73.2971 24.2172 73.1332 24.2172 72.9311C24.2172 72.7289 24.0532 72.565 23.851 72.565ZM0.757666 59.2129H1.93169C2.13394 59.2129 2.2979 59.049 2.2979 58.8469C2.2979 58.6447 2.13394 58.4808 1.93169 58.4808H0.997266L3.59009 53.9455C3.66411 53.8161 3.80269 53.7357 3.95181 53.7357H21.0482C21.1973 53.7357 21.3359 53.8161 21.4099 53.9455L24.0027 58.4808H23.0681C22.8658 58.4808 22.7019 58.6447 22.7019 58.8469C22.7019 59.049 22.8658 59.2129 23.0681 59.2129H24.2423C24.0632 60.5104 22.9468 61.5129 21.6003 61.5129C20.2539 61.5129 19.1379 60.5103 18.9588 59.2129H21.5026C21.7049 59.2129 21.8688 59.049 21.8688 58.8469C21.8688 58.6447 21.7049 58.4808 21.5026 58.4808H3.49761C3.29536 58.4808 3.1314 58.6447 3.1314 58.8469C3.1314 59.049 3.29536 59.2129 3.49761 59.2129H6.04111C5.86201 60.5103 4.74605 61.5129 3.39966 61.5129C2.05317 61.5129 0.936719 60.5104 0.757666 59.2129ZM18.1749 59.2129C17.9958 60.5103 16.8798 61.5129 15.5334 61.5129C14.187 61.5129 13.0711 60.5103 12.892 59.2129H18.1749ZM12.108 59.2129C11.9289 60.5103 10.8129 61.5129 9.46655 61.5129C8.12017 61.5129 7.0042 60.5103 6.8251 59.2129H12.108ZM20.7448 72.5651H16.7803V71.341H20.7448V72.5651ZM20.7448 70.6089H16.7803V63.9077H20.7448V70.6089ZM22.702 72.5651H21.4773V63.5416C21.4773 63.3395 21.3134 63.1756 21.1111 63.1756H16.4142C16.2119 63.1756 16.0479 63.3395 16.0479 63.5416V72.565H2.29805V62.0608C2.6438 62.1795 3.01411 62.2449 3.39966 62.2449C4.72266 62.2449 5.87153 61.4857 6.43311 60.3802C6.99468 61.4857 8.14355 62.2449 9.46655 62.2449C10.7896 62.2449 11.9384 61.4857 12.5 60.3802C13.0616 61.4857 14.2104 62.2449 15.5334 62.2449C16.8564 62.2449 18.0053 61.4857 18.5669 60.3802C19.1285 61.4857 20.2773 62.2449 21.6003 62.2449C21.9859 62.2449 22.3562 62.1795 22.702 62.0608V72.5651Z"
          fill="#1B76FF"/>
    <path d="M14.4571 63.1755H3.88892C3.68667 63.1755 3.52271 63.3394 3.52271 63.5416V70.9749C3.52271 71.1771 3.68667 71.341 3.88892 71.341H14.4571C14.6594 71.341 14.8233 71.1771 14.8233 70.9749V63.5416C14.8233 63.3394 14.6594 63.1755 14.4571 63.1755ZM14.0909 70.6089H4.25513V63.9076H14.0909V70.6089Z"
          fill="#1B76FF"/>
    <g clip-path="url(#clip1)">
        <path d="M124.587 21.2539V23.3202C124.587 23.5133 124.43 23.67 124.237 23.67C124.043 23.67 123.887 23.5133 123.887 23.3202V21.2539C123.887 19.6451 122.584 18.3432 120.975 18.3432C120.213 18.3432 119.522 17.9554 119.126 17.3057C119.025 17.1408 119.078 16.9255 119.243 16.8251C119.408 16.7245 119.623 16.7768 119.724 16.9418C119.991 17.3813 120.459 17.6436 120.975 17.6436C122.971 17.6436 124.587 19.2584 124.587 21.2539ZM118.48 17.7476C118.521 17.9364 118.401 18.1227 118.212 18.1639C117.291 18.3644 116.355 18.1636 115.609 17.6548C114.87 18.4457 113.895 18.3432 114.026 18.3432C112.416 18.3432 111.113 19.645 111.113 21.2539V23.3202C111.113 23.5133 110.957 23.67 110.763 23.67C110.57 23.67 110.414 23.5133 110.414 23.3202V21.2539C110.414 19.2586 112.029 17.6436 114.026 17.6436C114.833 17.6436 115.488 16.9933 115.488 16.1858V16.0937C113.96 15.3636 112.888 13.8295 112.823 12.043C112.194 11.8919 111.726 11.3296 111.726 10.6605V8.84713C111.707 7.95954 111.839 5.73651 113.46 4.17409C115.463 2.24475 118.674 2.3673 121.035 3.50346C121.265 3.6143 121.3 3.92509 121.109 4.08603C122.305 4.37767 123.337 5.11266 123.999 6.16456C124.034 6.21873 124.096 6.30378 124.08 6.43945C124.07 6.52388 124.045 6.59532 123.979 6.66135C123.553 7.09368 123.318 7.66659 123.318 8.27457V10.6606C123.318 10.8537 123.161 11.0103 122.968 11.0103C122.775 11.0103 122.618 10.8537 122.618 10.6606V8.27457C122.618 7.57338 122.858 6.90782 123.298 6.37317C122.627 5.41405 121.58 4.79719 120.396 4.67048L119.781 4.60464C119.422 4.56616 119.351 4.0709 119.685 3.93339L119.965 3.81827C116.322 2.54876 112.426 3.95932 112.426 8.84332V10.6605C112.426 10.938 112.586 11.1793 112.819 11.3004V9.03278C112.819 7.68268 113.918 6.58426 115.269 6.58426H119.731C121.082 6.58426 122.181 7.6826 122.181 9.03265V11.8967C122.181 14.9387 119.207 17.2493 116.18 16.3588C116.161 16.6084 116.098 16.8492 115.997 17.0731C116.586 17.4771 117.329 17.6401 118.063 17.4803C118.252 17.4392 118.438 17.5589 118.48 17.7476ZM117.5 15.8489C119.695 15.8489 121.481 14.064 121.481 11.8701V9.03265C121.481 8.06837 120.696 7.28384 119.731 7.28384H115.269C114.304 7.28384 113.519 8.06841 113.519 9.03278V11.8701C113.519 14.064 115.305 15.8489 117.5 15.8489ZM121.043 21.8773H119.993C119.8 21.8773 119.644 22.0339 119.644 22.2271C119.644 22.4203 119.8 22.5769 119.993 22.5769H121.043C121.237 22.5769 121.393 22.4203 121.393 22.2271C121.393 22.0339 121.237 21.8773 121.043 21.8773Z"
              fill="#1B76FF"/>
    </g>
    <path d="M103.851 22.5887H103.434V11.7295C104.375 11.1244 105 10.0694 105 8.87057C105 8.80688 104.983 8.74426 104.952 8.68896L102.046 3.60602C101.842 3.24911 101.459 3.02734 101.048 3.02734H83.9518C83.5405 3.02734 83.1583 3.24906 82.9542 3.60602L80.0482 8.68896C80.0167 8.74426 80 8.80693 80 8.87057C80 10.0694 80.6249 11.1244 81.5656 11.7295V22.5887H81.149C80.9468 22.5887 80.7828 22.7526 80.7828 22.9548C80.7828 23.1569 80.9468 23.3208 81.149 23.3208H103.851C104.053 23.3208 104.217 23.1569 104.217 22.9548C104.217 22.7526 104.053 22.5887 103.851 22.5887ZM80.7577 9.23661H81.9317C82.1339 9.23661 82.2979 9.07272 82.2979 8.87057C82.2979 8.66842 82.1339 8.50453 81.9317 8.50453H80.9973L83.5901 3.96923C83.6641 3.8398 83.8027 3.75942 83.9518 3.75942H101.048C101.197 3.75942 101.336 3.8398 101.41 3.96923L104.003 8.50453H103.068C102.866 8.50453 102.702 8.66842 102.702 8.87057C102.702 9.07272 102.866 9.23661 103.068 9.23661H104.242C104.063 10.534 102.947 11.5365 101.6 11.5365C100.254 11.5365 99.1379 10.5339 98.9588 9.23661H101.503C101.705 9.23661 101.869 9.07272 101.869 8.87057C101.869 8.66842 101.705 8.50453 101.503 8.50453H83.4976C83.2954 8.50453 83.1314 8.66842 83.1314 8.87057C83.1314 9.07272 83.2954 9.23661 83.4976 9.23661H86.0411C85.862 10.5339 84.746 11.5365 83.3997 11.5365C82.0532 11.5365 80.9367 10.534 80.7577 9.23661ZM98.1749 9.23661C97.9958 10.5339 96.8798 11.5365 95.5334 11.5365C94.187 11.5365 93.0711 10.5339 92.892 9.23661H98.1749ZM92.108 9.23661C91.9289 10.5339 90.8129 11.5365 89.4666 11.5365C88.1202 11.5365 87.0042 10.5339 86.8251 9.23661H92.108ZM100.745 22.5888H96.7803V21.3647H100.745V22.5888ZM100.745 20.6326H96.7803V13.9313H100.745V20.6326ZM102.702 22.5888H101.477V13.5653C101.477 13.3632 101.313 13.1993 101.111 13.1993H96.4142C96.2119 13.1993 96.0479 13.3632 96.0479 13.5653V22.5887H82.298V12.0845C82.6438 12.2032 83.0141 12.2686 83.3997 12.2686C84.7227 12.2686 85.8715 11.5094 86.4331 10.4039C86.9947 11.5094 88.1436 12.2686 89.4666 12.2686C90.7896 12.2686 91.9384 11.5094 92.5 10.4039C93.0616 11.5094 94.2104 12.2686 95.5334 12.2686C96.8564 12.2686 98.0053 11.5094 98.5669 10.4039C99.1285 11.5094 100.277 12.2686 101.6 12.2686C101.986 12.2686 102.356 12.2032 102.702 12.0845V22.5888Z"
          fill="#1B76FF"/>
    <path d="M94.4571 13.1992H83.8889C83.6867 13.1992 83.5227 13.3631 83.5227 13.5653V20.9986C83.5227 21.2007 83.6867 21.3646 83.8889 21.3646H94.4571C94.6594 21.3646 94.8233 21.2007 94.8233 20.9986V13.5653C94.8233 13.3631 94.6594 13.1992 94.4571 13.1992ZM94.0909 20.6326H84.2551V13.9313H94.0909V20.6326Z"
          fill="#1B76FF"/>
    <path d="M211.851 72.565H211.434V61.7058C212.375 61.1007 213 60.0457 213 58.8469C213 58.7832 212.983 58.7206 212.952 58.6653L210.046 53.5823C209.842 53.2254 209.459 53.0037 209.048 53.0037H191.952C191.541 53.0037 191.158 53.2254 190.954 53.5823L188.048 58.6653C188.017 58.7206 188 58.7832 188 58.8469C188 60.0457 188.625 61.1007 189.566 61.7058V72.565H189.149C188.947 72.565 188.783 72.7289 188.783 72.9311C188.783 73.1332 188.947 73.2971 189.149 73.2971H211.851C212.053 73.2971 212.217 73.1332 212.217 72.9311C212.217 72.7289 212.053 72.565 211.851 72.565ZM188.758 59.2129H189.932C190.134 59.2129 190.298 59.049 190.298 58.8469C190.298 58.6447 190.134 58.4808 189.932 58.4808H188.997L191.59 53.9455C191.664 53.8161 191.803 53.7357 191.952 53.7357H209.048C209.197 53.7357 209.336 53.8161 209.41 53.9455L212.003 58.4808H211.068C210.866 58.4808 210.702 58.6447 210.702 58.8469C210.702 59.049 210.866 59.2129 211.068 59.2129H212.242C212.063 60.5104 210.947 61.5129 209.6 61.5129C208.254 61.5129 207.138 60.5103 206.959 59.2129H209.503C209.705 59.2129 209.869 59.049 209.869 58.8469C209.869 58.6447 209.705 58.4808 209.503 58.4808H191.498C191.295 58.4808 191.131 58.6447 191.131 58.8469C191.131 59.049 191.295 59.2129 191.498 59.2129H194.041C193.862 60.5103 192.746 61.5129 191.4 61.5129C190.053 61.5129 188.937 60.5104 188.758 59.2129ZM206.175 59.2129C205.996 60.5103 204.88 61.5129 203.533 61.5129C202.187 61.5129 201.071 60.5103 200.892 59.2129H206.175ZM200.108 59.2129C199.929 60.5103 198.813 61.5129 197.467 61.5129C196.12 61.5129 195.004 60.5103 194.825 59.2129H200.108ZM208.745 72.5651H204.78V71.341H208.745V72.5651ZM208.745 70.6089H204.78V63.9077H208.745V70.6089ZM210.702 72.5651H209.477V63.5416C209.477 63.3395 209.313 63.1756 209.111 63.1756H204.414C204.212 63.1756 204.048 63.3395 204.048 63.5416V72.565H190.298V62.0608C190.644 62.1795 191.014 62.2449 191.4 62.2449C192.723 62.2449 193.872 61.4857 194.433 60.3802C194.995 61.4857 196.144 62.2449 197.467 62.2449C198.79 62.2449 199.938 61.4857 200.5 60.3802C201.062 61.4857 202.21 62.2449 203.533 62.2449C204.856 62.2449 206.005 61.4857 206.567 60.3802C207.128 61.4857 208.277 62.2449 209.6 62.2449C209.986 62.2449 210.356 62.1795 210.702 62.0608V72.5651Z"
          fill="#1B76FF"/>
    <path d="M202.457 63.1755H191.889C191.687 63.1755 191.523 63.3394 191.523 63.5416V70.9749C191.523 71.1771 191.687 71.341 191.889 71.341H202.457C202.659 71.341 202.823 71.1771 202.823 70.9749V63.5416C202.823 63.3394 202.659 63.1755 202.457 63.1755ZM202.091 70.6089H192.255V63.9076H202.091V70.6089Z"
          fill="#1B76FF"/>
    <g clip-path="url(#clip2)">
        <path d="M182.587 71.9841V74.0959C182.587 74.2934 182.43 74.4534 182.237 74.4534C182.043 74.4534 181.887 74.2934 181.887 74.0959V71.9841C181.887 70.3397 180.584 69.009 178.975 69.0091C178.213 69.0091 177.522 68.6127 177.126 67.9487C177.025 67.7801 177.078 67.5601 177.243 67.4574C177.408 67.3547 177.623 67.4081 177.724 67.5768C177.991 68.0259 178.459 68.2941 178.975 68.2941C180.971 68.294 182.587 69.9444 182.587 71.9841ZM176.48 68.4003C176.521 68.5933 176.401 68.7837 176.212 68.8258C175.291 69.0308 174.355 68.8256 173.609 68.3055C172.87 69.1138 171.895 69.0091 172.026 69.0091C170.416 69.009 169.113 70.3396 169.113 71.9841V74.0959C169.113 74.2934 168.957 74.4534 168.763 74.4534C168.57 74.4534 168.414 74.2934 168.414 74.0959V71.9841C168.414 69.9447 170.029 68.2941 172.026 68.2941C172.833 68.2941 173.488 67.6293 173.488 66.8041V66.7099C171.96 65.9637 170.888 64.3957 170.823 62.5698C170.194 62.4154 169.726 61.8406 169.726 61.1567V59.3034C169.707 58.3962 169.839 56.1241 171.46 54.5271C173.463 52.5552 176.674 52.6805 179.035 53.8417C179.265 53.955 179.3 54.2726 179.109 54.4371C180.305 54.7352 181.337 55.4864 181.999 56.5616C182.034 56.6169 182.096 56.7038 182.08 56.8425C182.07 56.9288 182.045 57.0018 181.979 57.0693C181.553 57.5112 181.318 58.0968 181.318 58.7182V61.1568C181.318 61.3543 181.161 61.5143 180.968 61.5143C180.775 61.5143 180.618 61.3543 180.618 61.1568V58.7182C180.618 58.0015 180.858 57.3212 181.298 56.7748C180.627 55.7945 179.58 55.164 178.396 55.0345L177.781 54.9672C177.422 54.9279 177.351 54.4217 177.685 54.2811L177.965 54.1635C174.322 52.8659 170.426 54.3076 170.426 59.2995V61.1567C170.426 61.4404 170.586 61.687 170.819 61.8108V59.4931C170.819 58.1132 171.918 56.9905 173.269 56.9905H177.731C179.082 56.9905 180.181 58.1131 180.181 59.493V62.4202C180.181 65.5294 177.207 67.891 174.18 66.9808C174.161 67.2359 174.098 67.4821 173.997 67.7109C174.586 68.1239 175.329 68.2905 176.063 68.1271C176.252 68.0851 176.438 68.2074 176.48 68.4003ZM175.5 66.4597C177.695 66.4597 179.481 64.6354 179.481 62.393V59.493C179.481 58.5074 178.696 57.7055 177.731 57.7055H173.269C172.304 57.7055 171.519 58.5074 171.519 59.4931V62.393C171.519 64.6354 173.305 66.4597 175.5 66.4597ZM179.043 72.6212H177.993C177.8 72.6212 177.644 72.7813 177.644 72.9787C177.644 73.1761 177.8 73.3362 177.993 73.3362H179.043C179.237 73.3362 179.393 73.1761 179.393 72.9787C179.393 72.7813 179.237 72.6212 179.043 72.6212Z"
              fill="#1B76FF"/>
    </g>
    <path d="M103.851 124.54H103.434V113.681C104.375 113.076 105 112.021 105 110.822C105 110.759 104.983 110.696 104.952 110.641L102.046 105.558C101.842 105.201 101.459 104.979 101.048 104.979H83.9518C83.5405 104.979 83.1583 105.201 82.9542 105.558L80.0482 110.641C80.0167 110.696 80 110.759 80 110.822C80 112.021 80.6249 113.076 81.5656 113.681V124.54H81.149C80.9468 124.54 80.7828 124.704 80.7828 124.906C80.7828 125.109 80.9468 125.272 81.149 125.272H103.851C104.053 125.272 104.217 125.109 104.217 124.906C104.217 124.704 104.053 124.54 103.851 124.54ZM80.7577 111.188H81.9317C82.1339 111.188 82.2979 111.024 82.2979 110.822C82.2979 110.62 82.1339 110.456 81.9317 110.456H80.9973L83.5901 105.921C83.6641 105.791 83.8027 105.711 83.9518 105.711H101.048C101.197 105.711 101.336 105.791 101.41 105.921L104.003 110.456H103.068C102.866 110.456 102.702 110.62 102.702 110.822C102.702 111.024 102.866 111.188 103.068 111.188H104.242C104.063 112.486 102.947 113.488 101.6 113.488C100.254 113.488 99.1379 112.486 98.9588 111.188H101.503C101.705 111.188 101.869 111.024 101.869 110.822C101.869 110.62 101.705 110.456 101.503 110.456H83.4976C83.2954 110.456 83.1314 110.62 83.1314 110.822C83.1314 111.024 83.2954 111.188 83.4976 111.188H86.0411C85.862 112.486 84.746 113.488 83.3997 113.488C82.0532 113.488 80.9367 112.486 80.7577 111.188ZM98.1749 111.188C97.9958 112.486 96.8798 113.488 95.5334 113.488C94.187 113.488 93.0711 112.486 92.892 111.188H98.1749ZM92.108 111.188C91.9289 112.486 90.8129 113.488 89.4666 113.488C88.1202 113.488 87.0042 112.486 86.8251 111.188H92.108ZM100.745 124.54H96.7803V123.316H100.745V124.54ZM100.745 122.584H96.7803V115.883H100.745V122.584ZM102.702 124.54H101.477V115.517C101.477 115.315 101.313 115.151 101.111 115.151H96.4142C96.2119 115.151 96.0479 115.315 96.0479 115.517V124.54H82.298V114.036C82.6438 114.155 83.0141 114.22 83.3997 114.22C84.7227 114.22 85.8715 113.461 86.4331 112.356C86.9947 113.461 88.1436 114.22 89.4666 114.22C90.7896 114.22 91.9384 113.461 92.5 112.356C93.0616 113.461 94.2104 114.22 95.5334 114.22C96.8564 114.22 98.0053 113.461 98.5669 112.356C99.1285 113.461 100.277 114.22 101.6 114.22C101.986 114.22 102.356 114.155 102.702 114.036V124.54Z"
          fill="#1B76FF"/>
    <path d="M94.4571 115.151H83.8889C83.6867 115.151 83.5227 115.315 83.5227 115.517V122.95C83.5227 123.152 83.6867 123.316 83.8889 123.316H94.4571C94.6594 123.316 94.8233 123.152 94.8233 122.95V115.517C94.8233 115.315 94.6594 115.151 94.4571 115.151ZM94.0909 122.584H84.2551V115.883H94.0909V122.584Z"
          fill="#1B76FF"/>
    <g clip-path="url(#clip3)">
        <path d="M124.587 122.984V125.096C124.587 125.294 124.43 125.454 124.237 125.454C124.043 125.454 123.887 125.294 123.887 125.096V122.984C123.887 121.34 122.584 120.009 120.975 120.009C120.213 120.009 119.522 119.613 119.126 118.949C119.025 118.78 119.078 118.56 119.243 118.458C119.408 118.355 119.623 118.408 119.724 118.577C119.991 119.026 120.459 119.294 120.975 119.294C122.971 119.294 124.587 120.945 124.587 122.984ZM118.48 119.401C118.521 119.593 118.401 119.784 118.212 119.826C117.291 120.031 116.355 119.826 115.609 119.306C114.87 120.114 113.895 120.009 114.026 120.009C112.416 120.009 111.113 121.34 111.113 122.984V125.096C111.113 125.294 110.957 125.454 110.763 125.454C110.57 125.454 110.414 125.294 110.414 125.096V122.984C110.414 120.945 112.029 119.294 114.026 119.294C114.833 119.294 115.488 118.629 115.488 117.804V117.71C113.96 116.964 112.888 115.396 112.823 113.57C112.194 113.415 111.726 112.841 111.726 112.157V110.303C111.707 109.396 111.839 107.124 113.46 105.527C115.463 103.555 118.674 103.68 121.035 104.842C121.265 104.955 121.3 105.273 121.109 105.437C122.305 105.735 123.337 106.486 123.999 107.562C124.034 107.617 124.096 107.704 124.08 107.843C124.07 107.929 124.045 108.002 123.979 108.069C123.553 108.511 123.318 109.097 123.318 109.718V112.157C123.318 112.354 123.161 112.514 122.968 112.514C122.775 112.514 122.618 112.354 122.618 112.157V109.718C122.618 109.002 122.858 108.321 123.298 107.775C122.627 106.795 121.58 106.164 120.396 106.035L119.781 105.967C119.422 105.928 119.351 105.422 119.685 105.281L119.965 105.163C116.322 103.866 112.426 105.308 112.426 110.3V112.157C112.426 112.441 112.586 112.687 112.819 112.811V110.493C112.819 109.113 113.918 107.991 115.269 107.991H119.731C121.082 107.991 122.181 109.113 122.181 110.493V113.42C122.181 116.53 119.207 118.891 116.18 117.981C116.161 118.236 116.098 118.482 115.997 118.711C116.586 119.124 117.329 119.291 118.063 119.127C118.252 119.085 118.438 119.208 118.48 119.401ZM117.5 117.46C119.695 117.46 121.481 115.636 121.481 113.393V110.493C121.481 109.507 120.696 108.706 119.731 108.706H115.269C114.304 108.706 113.519 109.508 113.519 110.493V113.393C113.519 115.636 115.305 117.46 117.5 117.46ZM121.043 123.621H119.993C119.8 123.621 119.644 123.781 119.644 123.979C119.644 124.176 119.8 124.336 119.993 124.336H121.043C121.237 124.336 121.393 124.176 121.393 123.979C121.393 123.781 121.237 123.621 121.043 123.621Z"
              fill="#1B76FF"/>
    </g>
    <path d="M46 49.157C47.5 42.6601 57.5 30.6658 63.5 27.6672M167 49.157C165.5 42.6601 155.5 30.6658 149.5 27.6672" stroke="#1B76FF"/>
    <path d="M167 77.6435C165.5 84.1404 155.5 96.1347 149.5 99.1333M46 77.6435C47.5 84.1404 57.5 96.1347 63.5 99.1333" stroke="#1B76FF"/>
    <defs>
        <clipPath id="clip0">
            <rect width="21" height="20.99" fill="white" transform="translate(27 52.6553)"/>
        </clipPath>
        <clipPath id="clip1">
            <rect width="21" height="20.99" fill="white" transform="translate(107 2.67993)"/>
        </clipPath>
        <clipPath id="clip2">
            <rect width="21" height="21.4534" fill="white" transform="translate(165 53)"/>
        </clipPath>
        <clipPath id="clip3">
            <rect width="21" height="21.4537" fill="white" transform="translate(107 104)"/>
        </clipPath>
    </defs>
</svg>
