<svg width="40" height="41" viewBox="0 0 40 41" fill="none" xmlns="http://www.w3.org/2000/svg">
    <g clip-path="url(#clip0)">
        <path d="M19.8234 40.5535C19.6051 40.5535 19.3917 40.467 19.2334 40.3105C19.0367 40.114 18.9501 39.831 19.0051 39.5596L20.1834 33.6741C20.2167 33.511 20.2934 33.3628 20.4117 33.2479L33.3751 20.2983C34.3484 19.326 35.9367 19.326 36.9101 20.2983L39.2667 22.6525C40.2417 23.6265 40.2417 25.2098 39.2667 26.1838L26.3034 39.1334C26.1884 39.2499 26.0401 39.3282 25.8767 39.3615L19.9851 40.5385C19.9317 40.5485 19.8767 40.5535 19.8234 40.5535ZM21.7701 34.2452L20.8867 38.6589L25.3051 37.7765L38.0901 25.005C38.4151 24.6803 38.4151 24.1526 38.0901 23.8279L35.7334 21.4737C35.4084 21.1491 34.8801 21.1491 34.5551 21.4737L21.7701 34.2452ZM25.7151 38.544H25.7317H25.7151Z"
              fill="#1B76FF"/>
        <path d="M15.8333 35.5588H4.16667C1.86833 35.5588 0 33.6925 0 31.3966V9.75283C0 7.45693 1.86833 5.59058 4.16667 5.59058H7.5C7.96 5.59058 8.33333 5.96351 8.33333 6.42303C8.33333 6.88254 7.96 7.25548 7.5 7.25548H4.16667C2.78833 7.25548 1.66667 8.37596 1.66667 9.75283V31.3966C1.66667 32.7734 2.78833 33.8939 4.16667 33.8939H15.8333C16.2933 33.8939 16.6667 34.2669 16.6667 34.7264C16.6667 35.1859 16.2933 35.5588 15.8333 35.5588Z"
              fill="#1B76FF"/>
        <path d="M27.5 20.5747C27.04 20.5747 26.6667 20.2018 26.6667 19.7423V9.75283C26.6667 8.37596 25.545 7.25548 24.1667 7.25548H20.8333C20.3733 7.25548 20 6.88254 20 6.42303C20 5.96351 20.3733 5.59058 20.8333 5.59058H24.1667C26.465 5.59058 28.3333 7.45693 28.3333 9.75283V19.7423C28.3333 20.2018 27.96 20.5747 27.5 20.5747Z"
              fill="#1B76FF"/>
        <path d="M19.1666 10.5852H9.16663C7.78829 10.5852 6.66663 9.46476 6.66663 8.08789V4.75808C6.66663 4.29857 7.03996 3.92563 7.49996 3.92563H10.0833C10.47 2.02764 12.155 0.595825 14.1666 0.595825C16.1783 0.595825 17.8633 2.02764 18.25 3.92563H20.8333C21.2933 3.92563 21.6666 4.29857 21.6666 4.75808V8.08789C21.6666 9.46476 20.545 10.5852 19.1666 10.5852ZM8.33329 5.59053V8.08789C8.33329 8.54574 8.70829 8.92034 9.16663 8.92034H19.1666C19.625 8.92034 20 8.54574 20 8.08789V5.59053H17.5C17.04 5.59053 16.6666 5.2176 16.6666 4.75808C16.6666 3.38121 15.545 2.26073 14.1666 2.26073C12.7883 2.26073 11.6666 3.38121 11.6666 4.75808C11.6666 5.2176 11.2933 5.59053 10.8333 5.59053H8.33329Z"
              fill="#1B76FF"/>
        <path d="M22.5 15.5799H5.83333C5.37333 15.5799 5 15.207 5 14.7475C5 14.288 5.37333 13.915 5.83333 13.915H22.5C22.96 13.915 23.3333 14.288 23.3333 14.7475C23.3333 15.207 22.96 15.5799 22.5 15.5799Z"
              fill="#1B76FF"/>
        <path d="M22.5 20.5747H5.83333C5.37333 20.5747 5 20.2018 5 19.7422C5 19.2827 5.37333 18.9098 5.83333 18.9098H22.5C22.96 18.9098 23.3333 19.2827 23.3333 19.7422C23.3333 20.2018 22.96 20.5747 22.5 20.5747Z"
              fill="#1B76FF"/>
        <path d="M22.5 25.5694H5.83333C5.37333 25.5694 5 25.1965 5 24.737C5 24.2775 5.37333 23.9045 5.83333 23.9045H22.5C22.96 23.9045 23.3333 24.2775 23.3333 24.737C23.3333 25.1965 22.96 25.5694 22.5 25.5694Z"
              fill="#1B76FF"/>
    </g>
    <defs>
        <clipPath id="clip0">
            <rect width="40" height="39.9577" fill="white" transform="translate(0 0.595825)"/>
        </clipPath>
    </defs>
</svg>
