<svg width="178" height="85" viewBox="0 0 178 85" fill="none" xmlns="http://www.w3.org/2000/svg">
    <path d="M23.851 56.0894H23.4344V45.2302C24.3751 44.6252 25 43.5701 25 42.3713C25 42.3076 24.9833 42.245 24.9518 42.1897L22.0458 37.1068C21.8417 36.7498 21.4595 36.5281 21.0482 36.5281H3.95181C3.54053 36.5281 3.15825 36.7498 2.95415 37.1068L0.0482422 42.1897C0.0166504 42.245 0 42.3077 0 42.3713C0 43.5701 0.624902 44.6252 1.56562 45.2302V56.0894H1.14902C0.946777 56.0894 0.782812 56.2533 0.782812 56.4555C0.782812 56.6576 0.946777 56.8215 1.14902 56.8215H23.851C24.0533 56.8215 24.2172 56.6576 24.2172 56.4555C24.2172 56.2533 24.0532 56.0894 23.851 56.0894ZM0.757666 42.7373H1.93169C2.13394 42.7373 2.2979 42.5735 2.2979 42.3713C2.2979 42.1691 2.13394 42.0053 1.93169 42.0053H0.997266L3.59009 37.47C3.66411 37.3405 3.80269 37.2602 3.95181 37.2602H21.0482C21.1973 37.2602 21.3359 37.3405 21.4099 37.47L24.0027 42.0053H23.0681C22.8658 42.0053 22.7019 42.1691 22.7019 42.3713C22.7019 42.5735 22.8658 42.7373 23.0681 42.7373H24.2423C24.0632 44.0348 22.9468 45.0373 21.6003 45.0373C20.2539 45.0373 19.1379 44.0347 18.9588 42.7373H21.5026C21.7049 42.7373 21.8688 42.5735 21.8688 42.3713C21.8688 42.1691 21.7049 42.0053 21.5026 42.0053H3.49761C3.29536 42.0053 3.1314 42.1691 3.1314 42.3713C3.1314 42.5735 3.29536 42.7373 3.49761 42.7373H6.04111C5.86201 44.0347 4.74605 45.0373 3.39966 45.0373C2.05317 45.0373 0.936719 44.0348 0.757666 42.7373ZM18.1749 42.7373C17.9958 44.0347 16.8798 45.0373 15.5334 45.0373C14.187 45.0373 13.0711 44.0347 12.892 42.7373H18.1749ZM12.108 42.7373C11.9289 44.0347 10.8129 45.0373 9.46655 45.0373C8.12017 45.0373 7.0042 44.0347 6.8251 42.7373H12.108ZM20.7448 56.0895H16.7803V54.8654H20.7448V56.0895ZM20.7448 54.1333H16.7803V47.4321H20.7448V54.1333ZM22.702 56.0895H21.4773V47.066C21.4773 46.8639 21.3134 46.7 21.1111 46.7H16.4142C16.2119 46.7 16.0479 46.8639 16.0479 47.066V56.0894H2.29805V45.5852C2.6438 45.7039 3.01411 45.7693 3.39966 45.7693C4.72266 45.7693 5.87153 45.0101 6.43311 43.9047C6.99468 45.0101 8.14355 45.7693 9.46655 45.7693C10.7896 45.7693 11.9384 45.0101 12.5 43.9047C13.0616 45.0101 14.2104 45.7693 15.5334 45.7693C16.8564 45.7693 18.0053 45.0101 18.5669 43.9047C19.1285 45.0101 20.2773 45.7693 21.6003 45.7693C21.9859 45.7693 22.3562 45.7039 22.702 45.5853V56.0895Z"
          fill="#1B76FF"/>
    <path d="M14.4571 46.7H3.88892C3.68667 46.7 3.52271 46.8638 3.52271 47.066V54.4993C3.52271 54.7015 3.68667 54.8654 3.88892 54.8654H14.4571C14.6594 54.8654 14.8233 54.7015 14.8233 54.4993V47.066C14.8233 46.8638 14.6594 46.7 14.4571 46.7ZM14.0909 54.1333H4.25513V47.432H14.0909V54.1333Z"
          fill="#1B76FF"/>
    <path d="M49.0567 45.7603C48.206 45.335 46.611 45.3301 46.5435 45.3301C46.3413 45.3301 46.1773 45.494 46.1773 45.6963C46.1773 45.8985 46.3413 46.0625 46.5435 46.0625C46.9551 46.0625 48.1501 46.1259 48.7291 46.4154C48.7817 46.4417 48.8376 46.4541 48.8926 46.4541C49.0269 46.4541 49.1563 46.3799 49.2204 46.2517C49.3109 46.0707 49.2376 45.8508 49.0567 45.7603Z"
          fill="#1B76FF"/>
    <path d="M50.8824 50.9716L49.37 50.5397C49.3047 50.5211 49.2591 50.4606 49.2591 50.3928V49.8882C49.3821 49.8029 49.4995 49.7076 49.6092 49.6011C50.141 49.0854 50.4338 48.3936 50.4338 47.6531V46.9568L50.58 46.6645C50.7405 46.3436 50.8253 45.9844 50.8253 45.6256V43.7393C50.8253 43.5372 50.6614 43.3733 50.4591 43.3733H46.9351C45.6536 43.3733 44.611 44.4154 44.611 45.6962V45.718C44.611 46.0163 44.6816 46.3151 44.815 46.5818L45.0026 46.9567V47.5546C45.0026 48.5021 45.4697 49.3522 46.1773 49.8638L46.1774 50.3927C46.1774 50.4742 46.1774 50.508 45.875 50.5944L45.137 50.8051L43.0022 50.0292C43.0099 49.9285 42.9759 49.8261 42.9024 49.749L42.2202 49.0326V47.8301C42.2923 47.7707 42.3634 47.7097 42.4323 47.6451C43.2929 46.8389 43.7865 45.7006 43.7865 44.5221V43.5617C44.0463 42.9965 44.178 42.3984 44.178 41.7824V37.8687C44.178 37.6666 44.0141 37.5027 43.8118 37.5027H38.3299C36.4007 37.5027 34.8313 39.0715 34.8313 40.9997V41.7825C34.8313 42.3985 34.9629 42.9966 35.2228 43.5618V44.3881C35.2228 45.7564 35.8315 46.9891 36.7891 47.8018V49.0327L36.1069 49.749C36.0334 49.8262 35.9994 49.9286 36.0071 50.0293L33.7539 50.8482C33.5906 50.9075 33.4389 50.9879 33.3012 51.0853L32.9474 50.9084C34.0006 50.4502 34.3342 49.8057 34.3502 49.7737C34.4018 49.6707 34.4018 49.5494 34.3502 49.4463C34.0862 48.9186 34.0542 47.9512 34.0286 47.1739C34.02 46.9152 34.0119 46.6707 33.9964 46.453C33.8716 44.6973 32.5362 43.3733 30.8902 43.3733C29.2442 43.3733 27.9088 44.6973 27.784 46.453C27.7686 46.6707 27.7604 46.9152 27.7519 47.174C27.7262 47.9512 27.6942 48.9185 27.4302 49.4463C27.3787 49.5493 27.3787 49.6706 27.4302 49.7737C27.4462 49.8057 27.7792 50.4488 28.8345 50.9076L27.8518 51.3987C27.3264 51.6615 27 52.1893 27 52.7764V55.4806C27 55.6828 27.164 55.8467 27.3662 55.8467C27.5685 55.8467 27.7324 55.6828 27.7324 55.4806V52.7764C27.7324 52.4683 27.9037 52.1914 28.1793 52.0536L29.4031 51.442L29.8288 51.8464C30.1264 52.1291 30.5083 52.2704 30.8902 52.2704C31.2721 52.2704 31.6542 52.129 31.9517 51.8464L32.3773 51.4421L32.7764 51.6415C32.5885 51.942 32.4818 52.2943 32.4818 52.6635V55.4807C32.4818 55.6829 32.6458 55.8468 32.848 55.8468C33.0503 55.8468 33.2143 55.6829 33.2143 55.4807V52.6635C33.2143 52.161 33.5317 51.708 34.0042 51.5362L36.3798 50.6728L37.3687 52.1555C37.4951 52.3451 37.6977 52.4667 37.9245 52.4891C37.9498 52.4916 37.975 52.4928 38 52.4928C38.2001 52.4928 38.3918 52.4141 38.5351 52.271L39.1384 51.6679V55.4808C39.1384 55.6829 39.3023 55.8468 39.5046 55.8468C39.7068 55.8468 39.8708 55.6829 39.8708 55.4808V51.6679L40.4741 52.271C40.6173 52.4142 40.809 52.4929 41.0091 52.4929C41.0342 52.4929 41.0594 52.4917 41.0846 52.4892C41.3115 52.4667 41.5141 52.3452 41.6405 52.1556L42.6294 50.6729L45.005 51.5363C45.4774 51.7081 45.7949 52.1611 45.7949 52.6636V55.4808C45.7949 55.683 45.9589 55.8469 46.1611 55.8469C46.3634 55.8469 46.5273 55.683 46.5273 55.4808V52.6636C46.5273 52.1546 46.325 51.6773 45.9857 51.3243L46.0762 51.2985C46.1674 51.2724 46.2919 51.2367 46.4169 51.1755L47.352 52.1101V55.4808C47.352 55.683 47.5159 55.8469 47.7182 55.8469C47.9204 55.8469 48.0844 55.683 48.0844 55.4808V52.1101L49.0129 51.182C49.0623 51.2071 49.1141 51.2283 49.1687 51.2438L50.6812 51.6757C51.0264 51.7743 51.2676 52.0939 51.2676 52.4528V55.4808C51.2676 55.683 51.4315 55.8469 51.6338 55.8469C51.836 55.8469 52 55.683 52 55.4808V52.4528C52 51.7686 51.5404 51.1596 50.8824 50.9716ZM29.3494 50.3251C28.6644 50.0787 28.3208 49.7503 28.1741 49.5709C28.2741 49.3096 28.3389 49.0104 28.3828 48.6944C28.5848 49.1784 28.923 49.5916 29.3494 49.8864V50.3251ZM31.4473 51.3158C31.1349 51.6124 30.6456 51.6123 30.3333 51.3157L29.9928 50.9922C30.0502 50.8846 30.0818 50.7626 30.0818 50.6348V50.2446C30.3373 50.3244 30.6089 50.3675 30.8903 50.3675C31.1714 50.3675 31.4429 50.3242 31.6988 50.2449L31.6987 50.6347C31.6987 50.7626 31.7303 50.8847 31.7878 50.9923L31.4473 51.3158ZM30.8904 49.6354C29.7969 49.6354 28.9073 48.7462 28.9073 47.6532C28.9073 47.451 28.7433 47.2872 28.5411 47.2872C28.5206 47.2872 28.5005 47.2893 28.481 47.2925C28.482 47.261 28.4831 47.2295 28.4841 47.1983C28.4923 46.9466 28.5001 46.7089 28.5146 46.505C28.5614 45.8473 28.8244 45.2412 29.255 44.7984C29.6896 44.3515 30.2703 44.1055 30.8903 44.1055C31.5104 44.1055 32.0911 44.3515 32.5256 44.7984C32.9563 45.2412 33.2192 45.8473 33.266 46.505C33.2805 46.7089 33.2884 46.9465 33.2967 47.1982C33.2974 47.2198 33.2981 47.2417 33.2989 47.2635C32.9004 46.6499 32.2851 46.1977 31.49 45.9424C30.7555 45.7065 30.1238 45.7211 30.0971 45.7218C30.0012 45.7245 29.9102 45.7646 29.8437 45.8336L29.1829 46.5185C29.0425 46.6641 29.0467 46.8958 29.1923 47.0361C29.3379 47.1764 29.5698 47.1722 29.7102 47.0267L30.26 46.4568C30.7334 46.4799 32.2567 46.657 32.8492 47.9609C32.7001 48.9218 31.8738 49.6354 30.8904 49.6354ZM32.4311 50.3263L32.4312 49.8898C32.8572 49.5966 33.1959 49.1842 33.398 48.6965C33.4419 49.0117 33.5067 49.3103 33.6065 49.571C33.4606 49.7487 33.1154 50.0801 32.4311 50.3263ZM35.9552 44.388V43.4799C35.9552 43.4248 35.9428 43.3704 35.9188 43.3207C35.6832 42.833 35.5637 42.3154 35.5637 41.7825V40.9998C35.5637 39.4751 36.8046 38.2348 38.3299 38.2348H43.4456V41.7825C43.4456 42.3155 43.3261 42.833 43.0905 43.3208C43.0665 43.3704 43.0541 43.4248 43.0541 43.4799V44.5222C43.0541 45.5134 42.6554 46.4329 41.9314 47.1111C41.8411 47.1957 41.7473 47.2751 41.6503 47.349C41.6481 47.3505 41.6461 47.3521 41.644 47.3536C40.9658 47.8683 40.1352 48.1184 39.2677 48.0622C37.4102 47.942 35.9552 46.3281 35.9552 44.388ZM38.0172 51.7532C38.0146 51.7558 38.0087 51.7618 37.9968 51.7605C37.9849 51.7593 37.9802 51.7524 37.9782 51.7493L36.8393 50.0418L37.2058 49.6568L38.9335 50.8373L38.0172 51.7532ZM39.5046 50.3407L37.5215 48.9858V48.3025C38.0346 48.5798 38.6092 48.7532 39.2203 48.7927C39.3168 48.7989 39.4127 48.802 39.5084 48.802C40.2086 48.802 40.8826 48.6347 41.4878 48.3171V48.9858L39.5046 50.3407ZM41.0311 51.7494C41.0291 51.7525 41.0244 51.7594 41.0125 51.7606C41.0005 51.7621 40.9947 51.7558 40.9921 51.7533L40.0757 50.8374L41.8035 49.6569L42.1701 50.0418L41.0311 51.7494ZM47.7182 51.4406L46.8871 50.61C46.9016 50.5442 46.9098 50.4721 46.9098 50.3926L46.9097 50.2381C47.1403 50.3137 47.3834 50.3586 47.6349 50.3662C47.6631 50.367 47.6911 50.3674 47.7192 50.3674C47.9972 50.3674 48.2685 50.3255 48.5267 50.2454V50.3928C48.5267 50.4658 48.5358 50.5373 48.5531 50.6061L47.7182 51.4406ZM49.0992 49.0758C48.711 49.4523 48.1983 49.6511 47.6569 49.6344C46.5972 49.6027 45.735 48.6696 45.735 47.5547V46.8704C45.735 46.8135 45.7218 46.7575 45.6963 46.7067L45.4701 46.2545C45.3873 46.0888 45.3435 45.9033 45.3435 45.7181V45.6963C45.3435 44.819 46.0575 44.1054 46.9351 44.1054H50.0929V45.6257C50.0929 45.8714 50.0348 46.1174 49.9249 46.3372L49.74 46.7067C49.7146 46.7576 49.7014 46.8135 49.7014 46.8704V47.6531C49.7014 48.1939 49.4875 48.6991 49.0992 49.0758Z"
          fill="#1B76FF"/>
    <path d="M50.0676 52.7664C49.8653 52.7664 49.7014 52.9302 49.7014 53.1324V55.4806C49.7014 55.6828 49.8653 55.8467 50.0676 55.8467C50.2698 55.8467 50.4338 55.6828 50.4338 55.4806V53.1324C50.4338 52.9303 50.2698 52.7664 50.0676 52.7664Z"
          fill="#1B76FF"/>
    <path d="M28.9324 53.25C28.7302 53.25 28.5662 53.4139 28.5662 53.616V55.4804C28.5662 55.6826 28.7302 55.8465 28.9324 55.8465C29.1347 55.8465 29.2986 55.6826 29.2986 55.4804V53.616C29.2986 53.4139 29.1347 53.25 28.9324 53.25Z"
          fill="#1B76FF"/>
    <path d="M42.5045 41.9156C41.1195 40.5306 38.2216 40.7954 37.0398 40.9735C36.6676 41.0296 36.3975 41.3446 36.3975 41.7225V42.5661C36.3975 42.7684 36.5615 42.9323 36.7637 42.9323C36.9659 42.9323 37.1299 42.7684 37.1299 42.5661V41.7224C37.1299 41.71 37.1381 41.6993 37.1491 41.6977C37.6211 41.6265 38.5577 41.5168 39.5282 41.5815C40.6702 41.6575 41.4974 41.9442 41.9867 42.4335C42.1297 42.5765 42.3616 42.5765 42.5045 42.4335C42.6476 42.2905 42.6476 42.0586 42.5045 41.9156Z"
          fill="#1B76FF"/>
    <path d="M35.1974 53.5491C34.9952 53.5491 34.8312 53.713 34.8312 53.9151V55.4806C34.8312 55.6828 34.9952 55.8467 35.1974 55.8467C35.3997 55.8467 35.5637 55.6828 35.5637 55.4806V53.9151C35.5637 53.713 35.3997 53.5491 35.1974 53.5491Z"
          fill="#1B76FF"/>
    <path d="M43.8118 53.5491C43.6096 53.5491 43.4456 53.713 43.4456 53.9151V55.4806C43.4456 55.6828 43.6096 55.8467 43.8118 55.8467C44.014 55.8467 44.178 55.6828 44.178 55.4806V53.9151C44.178 53.713 44.014 53.5491 43.8118 53.5491Z"
          fill="#1B76FF"/>
    <path d="M149.851 22.1056H149.434V11.2463C150.375 10.6413 151 9.58626 151 8.38741C151 8.32372 150.983 8.26111 150.952 8.20581L148.046 3.12287C147.842 2.76596 147.459 2.54419 147.048 2.54419H129.952C129.541 2.54419 129.158 2.76591 128.954 3.12287L126.048 8.20581C126.017 8.26111 126 8.32377 126 8.38741C126 9.58626 126.625 10.6413 127.566 11.2463V22.1056H127.149C126.947 22.1056 126.783 22.2694 126.783 22.4716C126.783 22.6737 126.947 22.8376 127.149 22.8376H149.851C150.053 22.8376 150.217 22.6737 150.217 22.4716C150.217 22.2694 150.053 22.1056 149.851 22.1056ZM126.758 8.75345H127.932C128.134 8.75345 128.298 8.58956 128.298 8.38741C128.298 8.18526 128.134 8.02138 127.932 8.02138H126.997L129.59 3.48608C129.664 3.35665 129.803 3.27626 129.952 3.27626H147.048C147.197 3.27626 147.336 3.35665 147.41 3.48608L150.003 8.02138H149.068C148.866 8.02138 148.702 8.18526 148.702 8.38741C148.702 8.58956 148.866 8.75345 149.068 8.75345H150.242C150.063 10.0509 148.947 11.0534 147.6 11.0534C146.254 11.0534 145.138 10.0508 144.959 8.75345H147.503C147.705 8.75345 147.869 8.58956 147.869 8.38741C147.869 8.18526 147.705 8.02138 147.503 8.02138H129.498C129.295 8.02138 129.131 8.18526 129.131 8.38741C129.131 8.58956 129.295 8.75345 129.498 8.75345H132.041C131.862 10.0508 130.746 11.0534 129.4 11.0534C128.053 11.0534 126.937 10.0509 126.758 8.75345ZM144.175 8.75345C143.996 10.0508 142.88 11.0534 141.533 11.0534C140.187 11.0534 139.071 10.0508 138.892 8.75345H144.175ZM138.108 8.75345C137.929 10.0508 136.813 11.0534 135.467 11.0534C134.12 11.0534 133.004 10.0508 132.825 8.75345H138.108ZM146.745 22.1056H142.78V20.8815H146.745V22.1056ZM146.745 20.1495H142.78V13.4482H146.745V20.1495ZM148.702 22.1056H147.477V13.0822C147.477 12.88 147.313 12.7161 147.111 12.7161H142.414C142.212 12.7161 142.048 12.88 142.048 13.0822V22.1056H128.298V11.6013C128.644 11.7201 129.014 11.7855 129.4 11.7855C130.723 11.7855 131.872 11.0262 132.433 9.92077C132.995 11.0262 134.144 11.7855 135.467 11.7855C136.79 11.7855 137.938 11.0262 138.5 9.92077C139.062 11.0262 140.21 11.7855 141.533 11.7855C142.856 11.7855 144.005 11.0262 144.567 9.92077C145.128 11.0262 146.277 11.7855 147.6 11.7855C147.986 11.7855 148.356 11.7201 148.702 11.6014V22.1056Z"
          fill="#1B76FF"/>
    <path d="M140.457 12.7161H129.889C129.687 12.7161 129.523 12.88 129.523 13.0821V20.5154C129.523 20.7176 129.687 20.8815 129.889 20.8815H140.457C140.659 20.8815 140.823 20.7176 140.823 20.5154V13.0821C140.823 12.8799 140.659 12.7161 140.457 12.7161ZM140.091 20.1494H130.255V13.4481H140.091V20.1494Z"
          fill="#1B76FF"/>
    <path d="M175.057 11.7764C174.206 11.3511 172.611 11.3462 172.544 11.3462C172.341 11.3462 172.177 11.5102 172.177 11.7124C172.177 11.9146 172.341 12.0786 172.544 12.0786C172.955 12.0787 174.15 12.142 174.729 12.4315C174.782 12.4579 174.838 12.4703 174.893 12.4703C175.027 12.4703 175.156 12.396 175.22 12.2678C175.311 12.0869 175.238 11.8669 175.057 11.7764Z"
          fill="#1B76FF"/>
    <path d="M176.882 16.9877L175.37 16.5558C175.305 16.5372 175.259 16.4768 175.259 16.4089V15.9043C175.382 15.8191 175.5 15.7237 175.609 15.6173C176.141 15.1015 176.434 14.4097 176.434 13.6692V12.9729L176.58 12.6806C176.741 12.3597 176.825 12.0005 176.825 11.6418V9.75544C176.825 9.55329 176.661 9.3894 176.459 9.3894H172.935C171.654 9.3894 170.611 10.4315 170.611 11.7123V11.7341C170.611 12.0324 170.682 12.3312 170.815 12.5979L171.003 12.9729V13.5707C171.003 14.5182 171.47 15.3684 172.177 15.8799L172.177 16.4088C172.177 16.4903 172.177 16.5241 171.875 16.6105L171.137 16.8212L169.002 16.0453C169.01 15.9446 168.976 15.8422 168.902 15.7651L168.22 15.0487V13.8462C168.292 13.7868 168.363 13.7258 168.432 13.6612C169.293 12.855 169.786 11.7167 169.786 10.5382V9.57779C170.046 9.01258 170.178 8.41447 170.178 7.79851V3.88484C170.178 3.68269 170.014 3.5188 169.812 3.5188H164.33C162.401 3.5188 160.831 5.08759 160.831 7.01582V7.7986C160.831 8.41457 160.963 9.01267 161.223 9.57789V10.4042C161.223 11.7725 161.831 13.0052 162.789 13.8179V15.0488L162.107 15.7651C162.033 15.8423 161.999 15.9447 162.007 16.0454L159.754 16.8643C159.591 16.9236 159.439 17.004 159.301 17.1014L158.947 16.9245C160.001 16.4663 160.334 15.8218 160.35 15.7898C160.402 15.6868 160.402 15.5655 160.35 15.4624C160.086 14.9347 160.054 13.9673 160.029 13.19C160.02 12.9313 160.012 12.6868 159.996 12.4691C159.872 10.7134 158.536 9.3894 156.89 9.3894C155.244 9.3894 153.909 10.7134 153.784 12.4691C153.769 12.6869 153.76 12.9313 153.752 13.1901C153.726 13.9674 153.694 14.9346 153.43 15.4624C153.379 15.5654 153.379 15.6868 153.43 15.7898C153.446 15.8218 153.779 16.4649 154.835 16.9237L153.852 17.4148C153.326 17.6776 153 18.2054 153 18.7925V21.4967C153 21.6989 153.164 21.8628 153.366 21.8628C153.568 21.8628 153.732 21.6989 153.732 21.4967V18.7925C153.732 18.4844 153.904 18.2075 154.179 18.0697L155.403 17.4581L155.829 17.8625C156.126 18.1452 156.508 18.2865 156.89 18.2865C157.272 18.2865 157.654 18.1451 157.952 17.8625L158.377 17.4582L158.776 17.6576C158.588 17.9581 158.482 18.3105 158.482 18.6796V21.4968C158.482 21.699 158.646 21.8629 158.848 21.8629C159.05 21.8629 159.214 21.699 159.214 21.4968V18.6796C159.214 18.1771 159.532 17.7241 160.004 17.5523L162.38 16.6889L163.369 18.1717C163.495 18.3612 163.698 18.4828 163.925 18.5052C163.95 18.5077 163.975 18.5089 164 18.5089C164.2 18.5089 164.392 18.4302 164.535 18.2871L165.138 17.684V21.4969C165.138 21.699 165.302 21.8629 165.505 21.8629C165.707 21.8629 165.871 21.699 165.871 21.4969V17.684L166.474 18.2871C166.617 18.4303 166.809 18.509 167.009 18.509C167.034 18.509 167.059 18.5078 167.085 18.5053C167.311 18.4828 167.514 18.3613 167.64 18.1717L168.629 16.689L171.005 17.5524C171.477 17.7242 171.795 18.1772 171.795 18.6797V21.4969C171.795 21.6991 171.959 21.863 172.161 21.863C172.363 21.863 172.527 21.6991 172.527 21.4969V18.6797C172.527 18.1707 172.325 17.6934 171.986 17.3404L172.076 17.3146C172.167 17.2885 172.292 17.2529 172.417 17.1916L173.352 18.1262V21.4969C173.352 21.6991 173.516 21.863 173.718 21.863C173.92 21.863 174.084 21.6991 174.084 21.4969V18.1262L175.013 17.1981C175.062 17.2232 175.114 17.2444 175.169 17.2599L176.681 17.6919C177.026 17.7904 177.268 18.11 177.268 18.4689V21.4969C177.268 21.6991 177.432 21.863 177.634 21.863C177.836 21.863 178 21.6991 178 21.4969V18.4689C178 17.7847 177.54 17.1757 176.882 16.9877ZM155.349 16.3412C154.664 16.0949 154.321 15.7664 154.174 15.587C154.274 15.3257 154.339 15.0265 154.383 14.7106C154.585 15.1946 154.923 15.6077 155.349 15.9025V16.3412ZM157.447 17.3319C157.135 17.6285 156.646 17.6285 156.333 17.3318L155.993 17.0083C156.05 16.9007 156.082 16.7787 156.082 16.6509V16.2607C156.337 16.3405 156.609 16.3836 156.89 16.3836C157.171 16.3836 157.443 16.3403 157.699 16.261L157.699 16.6508C157.699 16.7787 157.73 16.9008 157.788 17.0084L157.447 17.3319ZM156.89 15.6515C155.797 15.6515 154.907 14.7623 154.907 13.6693C154.907 13.4672 154.743 13.3033 154.541 13.3033C154.521 13.3033 154.501 13.3054 154.481 13.3086C154.482 13.2772 154.483 13.2456 154.484 13.2144C154.492 12.9628 154.5 12.725 154.515 12.5211C154.561 11.8634 154.824 11.2574 155.255 10.8145C155.69 10.3676 156.27 10.1216 156.89 10.1216C157.51 10.1216 158.091 10.3676 158.526 10.8145C158.956 11.2574 159.219 11.8634 159.266 12.5211C159.28 12.725 159.288 12.9627 159.297 13.2143C159.297 13.2359 159.298 13.2578 159.299 13.2796C158.9 12.666 158.285 12.2138 157.49 11.9585C156.756 11.7226 156.124 11.7372 156.097 11.7379C156.001 11.7406 155.91 11.7807 155.844 11.8497L155.183 12.5346C155.043 12.6802 155.047 12.9119 155.192 13.0522C155.338 13.1925 155.57 13.1883 155.71 13.0428L156.26 12.4729C156.733 12.496 158.257 12.6731 158.849 13.977C158.7 14.9379 157.874 15.6515 156.89 15.6515ZM158.431 16.3424L158.431 15.9059C158.857 15.6127 159.196 15.2003 159.398 14.7127C159.442 15.0278 159.507 15.3264 159.606 15.5871C159.461 15.7648 159.115 16.0962 158.431 16.3424ZM161.955 10.4042V9.49599C161.955 9.44089 161.943 9.38647 161.919 9.33684C161.683 8.84908 161.564 8.33155 161.564 7.7986V7.01587C161.564 5.49125 162.805 4.25092 164.33 4.25092H169.446V7.79865C169.446 8.3316 169.326 8.84913 169.09 9.33689C169.067 9.38652 169.054 9.44094 169.054 9.49604V10.5383C169.054 11.5295 168.655 12.449 167.931 13.1272C167.841 13.2119 167.747 13.2912 167.65 13.3651C167.648 13.3666 167.646 13.3682 167.644 13.3697C166.966 13.8844 166.135 14.1345 165.268 14.0783C163.41 13.9581 161.955 12.3442 161.955 10.4042ZM164.017 17.7694C164.015 17.7719 164.009 17.7779 163.997 17.7766C163.985 17.7755 163.98 17.7685 163.978 17.7655L162.839 16.0579L163.206 15.6729L164.934 16.8534L164.017 17.7694ZM165.505 16.3568L163.521 15.0019V14.3186C164.035 14.5959 164.609 14.7693 165.22 14.8088C165.317 14.815 165.413 14.8181 165.508 14.8181C166.209 14.8181 166.883 14.6508 167.488 14.3332V15.0019L165.505 16.3568ZM167.031 17.7656C167.029 17.7686 167.024 17.7756 167.013 17.7767C167.001 17.7782 166.995 17.7719 166.992 17.7695L166.076 16.8535L167.804 15.673L168.17 16.058L167.031 17.7656ZM173.718 17.4567L172.887 16.6261C172.902 16.5603 172.91 16.4882 172.91 16.4087L172.91 16.2542C173.14 16.3299 173.383 16.3748 173.635 16.3823C173.663 16.3832 173.691 16.3835 173.719 16.3835C173.997 16.3835 174.268 16.3416 174.527 16.2615V16.4089C174.527 16.4819 174.536 16.5534 174.553 16.6222L173.718 17.4567ZM175.099 15.0919C174.711 15.4684 174.198 15.6672 173.657 15.6505C172.597 15.6188 171.735 14.6858 171.735 13.5708V12.8865C171.735 12.8297 171.722 12.7736 171.696 12.7228L171.47 12.2706C171.387 12.1049 171.343 11.9194 171.343 11.7342V11.7124C171.343 10.8352 172.057 10.1215 172.935 10.1215H176.093V11.6418C176.093 11.8875 176.035 12.1335 175.925 12.3533L175.74 12.7228C175.715 12.7737 175.701 12.8297 175.701 12.8865V13.6693C175.701 14.21 175.487 14.7152 175.099 15.0919Z"
          fill="#1B76FF"/>
    <path d="M176.068 18.7825C175.865 18.7825 175.701 18.9464 175.701 19.1485V21.4968C175.701 21.6989 175.865 21.8628 176.068 21.8628C176.27 21.8628 176.434 21.6989 176.434 21.4968V19.1485C176.434 18.9464 176.27 18.7825 176.068 18.7825Z"
          fill="#1B76FF"/>
    <path d="M154.932 19.2661C154.73 19.2661 154.566 19.43 154.566 19.6322V21.4966C154.566 21.6987 154.73 21.8626 154.932 21.8626C155.135 21.8626 155.299 21.6987 155.299 21.4966V19.6322C155.299 19.43 155.135 19.2661 154.932 19.2661Z"
          fill="#1B76FF"/>
    <path d="M168.505 7.93176C167.119 6.5467 164.222 6.81149 163.04 6.98962C162.668 7.04572 162.397 7.36071 162.397 7.73859V8.58225C162.397 8.78449 162.561 8.94846 162.764 8.94846C162.966 8.94846 163.13 8.78449 163.13 8.58225V7.73855C163.13 7.7261 163.138 7.71545 163.149 7.71379C163.621 7.64265 164.558 7.53288 165.528 7.59758C166.67 7.6736 167.497 7.96027 167.987 8.44963C168.13 8.59265 168.362 8.59265 168.505 8.44963C168.648 8.30661 168.648 8.07473 168.505 7.93176Z"
          fill="#1B76FF"/>
    <path d="M161.197 19.5652C160.995 19.5652 160.831 19.7291 160.831 19.9312V21.4967C160.831 21.6989 160.995 21.8628 161.197 21.8628C161.4 21.8628 161.564 21.6989 161.564 21.4967V19.9312C161.564 19.7291 161.4 19.5652 161.197 19.5652Z"
          fill="#1B76FF"/>
    <path d="M169.812 19.5652C169.61 19.5652 169.446 19.7291 169.446 19.9312V21.4967C169.446 21.6989 169.61 21.8628 169.812 21.8628C170.014 21.8628 170.178 21.6989 170.178 21.4967V19.9312C170.178 19.7291 170.014 19.5652 169.812 19.5652Z"
          fill="#1B76FF"/>
    <path d="M149.851 81.0775H149.434V70.2182C150.375 69.6132 151 68.5582 151 67.3593C151 67.2956 150.983 67.233 150.952 67.1777L148.046 62.0948C147.842 61.7379 147.459 61.5161 147.048 61.5161H129.952C129.541 61.5161 129.158 61.7378 128.954 62.0948L126.048 67.1777C126.017 67.233 126 67.2957 126 67.3593C126 68.5582 126.625 69.6132 127.566 70.2182V81.0775H127.149C126.947 81.0775 126.783 81.2414 126.783 81.4435C126.783 81.6457 126.947 81.8096 127.149 81.8096H149.851C150.053 81.8096 150.217 81.6457 150.217 81.4435C150.217 81.2414 150.053 81.0775 149.851 81.0775ZM126.758 67.7254H127.932C128.134 67.7254 128.298 67.5615 128.298 67.3593C128.298 67.1572 128.134 66.9933 127.932 66.9933H126.997L129.59 62.458C129.664 62.3286 129.803 62.2482 129.952 62.2482H147.048C147.197 62.2482 147.336 62.3286 147.41 62.458L150.003 66.9933H149.068C148.866 66.9933 148.702 67.1572 148.702 67.3593C148.702 67.5615 148.866 67.7254 149.068 67.7254H150.242C150.063 69.0228 148.947 70.0253 147.6 70.0253C146.254 70.0253 145.138 69.0227 144.959 67.7254H147.503C147.705 67.7254 147.869 67.5615 147.869 67.3593C147.869 67.1572 147.705 66.9933 147.503 66.9933H129.498C129.295 66.9933 129.131 67.1572 129.131 67.3593C129.131 67.5615 129.295 67.7254 129.498 67.7254H132.041C131.862 69.0227 130.746 70.0253 129.4 70.0253C128.053 70.0253 126.937 69.0228 126.758 67.7254ZM144.175 67.7254C143.996 69.0227 142.88 70.0253 141.533 70.0253C140.187 70.0253 139.071 69.0227 138.892 67.7254H144.175ZM138.108 67.7254C137.929 69.0227 136.813 70.0253 135.467 70.0253C134.12 70.0253 133.004 69.0227 132.825 67.7254H138.108ZM146.745 81.0775H142.78V79.8535H146.745V81.0775ZM146.745 79.1214H142.78V72.4201H146.745V79.1214ZM148.702 81.0775H147.477V72.0541C147.477 71.8519 147.313 71.688 147.111 71.688H142.414C142.212 71.688 142.048 71.8519 142.048 72.0541V81.0775H128.298V70.5732C128.644 70.692 129.014 70.7574 129.4 70.7574C130.723 70.7574 131.872 69.9982 132.433 68.8927C132.995 69.9981 134.144 70.7574 135.467 70.7574C136.79 70.7574 137.938 69.9982 138.5 68.8927C139.062 69.9981 140.21 70.7574 141.533 70.7574C142.856 70.7574 144.005 69.9982 144.567 68.8927C145.128 69.9981 146.277 70.7574 147.6 70.7574C147.986 70.7574 148.356 70.692 148.702 70.5733V81.0775Z"
          fill="#1B76FF"/>
    <path d="M140.457 71.688H129.889C129.687 71.688 129.523 71.8519 129.523 72.054V79.4874C129.523 79.6895 129.687 79.8534 129.889 79.8534H140.457C140.659 79.8534 140.823 79.6895 140.823 79.4874V72.054C140.823 71.8518 140.659 71.688 140.457 71.688ZM140.091 79.1213H130.255V72.4201H140.091V79.1213Z"
          fill="#1B76FF"/>
    <path d="M175.057 70.7483C174.206 70.323 172.611 70.3181 172.544 70.3181C172.341 70.3181 172.177 70.4821 172.177 70.6843C172.177 70.8866 172.341 71.0505 172.544 71.0505C172.955 71.0506 174.15 71.114 174.729 71.4035C174.782 71.4298 174.838 71.4422 174.893 71.4422C175.027 71.4422 175.156 71.368 175.22 71.2397C175.311 71.0588 175.238 70.8388 175.057 70.7483Z"
          fill="#1B76FF"/>
    <path d="M176.882 75.9597L175.37 75.5277C175.305 75.5091 175.259 75.4487 175.259 75.3808V74.8762C175.382 74.791 175.5 74.6956 175.609 74.5892C176.141 74.0734 176.434 73.3816 176.434 72.6411V71.9448L176.58 71.6525C176.741 71.3316 176.825 70.9724 176.825 70.6137V68.7274C176.825 68.5252 176.661 68.3613 176.459 68.3613H172.935C171.654 68.3613 170.611 69.4034 170.611 70.6842V70.7061C170.611 71.0044 170.682 71.3031 170.815 71.5699L171.003 71.9448V72.5426C171.003 73.4901 171.47 74.3403 172.177 74.8518L172.177 75.3807C172.177 75.4623 172.177 75.496 171.875 75.5824L171.137 75.7931L169.002 75.0172C169.01 74.9166 168.976 74.8142 168.902 74.737L168.22 74.0206V72.8181C168.292 72.7587 168.363 72.6977 168.432 72.6332C169.293 71.8269 169.786 70.6886 169.786 69.5101V68.5497C170.046 67.9845 170.178 67.3864 170.178 66.7704V62.8568C170.178 62.6546 170.014 62.4907 169.812 62.4907H164.33C162.401 62.4907 160.831 64.0595 160.831 65.9877V66.7705C160.831 67.3865 160.963 67.9846 161.223 68.5498V69.3761C161.223 70.7444 161.831 71.9771 162.789 72.7898V74.0207L162.107 74.7371C162.033 74.8142 161.999 74.9166 162.007 75.0173L159.754 75.8362C159.591 75.8955 159.439 75.9759 159.301 76.0733L158.947 75.8965C160.001 75.4382 160.334 74.7938 160.35 74.7618C160.402 74.6587 160.402 74.5374 160.35 74.4344C160.086 73.9066 160.054 72.9392 160.029 72.162C160.02 71.9032 160.012 71.6587 159.996 71.4411C159.872 69.6854 158.536 68.3613 156.89 68.3613C155.244 68.3613 153.909 69.6853 153.784 71.4411C153.769 71.6588 153.76 71.9032 153.752 72.1621C153.726 72.9393 153.694 73.9065 153.43 74.4343C153.379 74.5373 153.379 74.6587 153.43 74.7617C153.446 74.7937 153.779 75.4369 154.835 75.8956L153.852 76.3868C153.326 76.6495 153 77.1774 153 77.7644V80.4687C153 80.6708 153.164 80.8347 153.366 80.8347C153.568 80.8347 153.732 80.6708 153.732 80.4687V77.7644C153.732 77.4564 153.904 77.1794 154.179 77.0416L155.403 76.4301L155.829 76.8344C156.126 77.1171 156.508 77.2584 156.89 77.2584C157.272 77.2584 157.654 77.117 157.952 76.8344L158.377 76.4301L158.776 76.6295C158.588 76.93 158.482 77.2824 158.482 77.6515V80.4688C158.482 80.6709 158.646 80.8348 158.848 80.8348C159.05 80.8348 159.214 80.6709 159.214 80.4688V77.6515C159.214 77.149 159.532 76.696 160.004 76.5242L162.38 75.6608L163.369 77.1436C163.495 77.3331 163.698 77.4547 163.925 77.4772C163.95 77.4797 163.975 77.4809 164 77.4809C164.2 77.4809 164.392 77.4022 164.535 77.259L165.138 76.656V80.4688C165.138 80.671 165.302 80.8348 165.505 80.8348C165.707 80.8348 165.871 80.671 165.871 80.4688V76.656L166.474 77.259C166.617 77.4022 166.809 77.4809 167.009 77.4809C167.034 77.4809 167.059 77.4797 167.085 77.4772C167.311 77.4548 167.514 77.3332 167.64 77.1436L168.629 75.6609L171.005 76.5243C171.477 76.6961 171.795 77.1491 171.795 77.6516V80.4689C171.795 80.671 171.959 80.8349 172.161 80.8349C172.363 80.8349 172.527 80.671 172.527 80.4689V77.6516C172.527 77.1427 172.325 76.6653 171.986 76.3123L172.076 76.2865C172.167 76.2605 172.292 76.2248 172.417 76.1635L173.352 77.0981V80.4689C173.352 80.671 173.516 80.8349 173.718 80.8349C173.92 80.8349 174.084 80.671 174.084 80.4689V77.0981L175.013 76.17C175.062 76.1951 175.114 76.2163 175.169 76.2319L176.681 76.6638C177.026 76.7624 177.268 77.0819 177.268 77.4408V80.4689C177.268 80.671 177.432 80.8349 177.634 80.8349C177.836 80.8349 178 80.671 178 80.4689V77.4408C178 76.7567 177.54 76.1476 176.882 75.9597ZM155.349 75.3132C154.664 75.0668 154.321 74.7383 154.174 74.559C154.274 74.2977 154.339 73.9984 154.383 73.6825C154.585 74.1665 154.923 74.5797 155.349 74.8744V75.3132ZM157.447 76.3038C157.135 76.6004 156.646 76.6004 156.333 76.3037L155.993 75.9803C156.05 75.8727 156.082 75.7506 156.082 75.6228V75.2327C156.337 75.3125 156.609 75.3555 156.89 75.3555C157.171 75.3555 157.443 75.3123 157.699 75.2329L157.699 75.6228C157.699 75.7506 157.73 75.8727 157.788 75.9804L157.447 76.3038ZM156.89 74.6234C155.797 74.6234 154.907 73.7342 154.907 72.6412C154.907 72.4391 154.743 72.2752 154.541 72.2752C154.521 72.2752 154.501 72.2773 154.481 72.2806C154.482 72.2491 154.483 72.2175 154.484 72.1864C154.492 71.9347 154.5 71.6969 154.515 71.493C154.561 70.8353 154.824 70.2293 155.255 69.7864C155.69 69.3396 156.27 69.0935 156.89 69.0935C157.51 69.0935 158.091 69.3396 158.526 69.7864C158.956 70.2293 159.219 70.8353 159.266 71.493C159.28 71.6969 159.288 71.9346 159.297 72.1862C159.297 72.2078 159.298 72.2298 159.299 72.2515C158.9 71.6379 158.285 71.1858 157.49 70.9304C156.756 70.6945 156.124 70.7091 156.097 70.7098C156.001 70.7125 155.91 70.7526 155.844 70.8216L155.183 71.5066C155.043 71.6521 155.047 71.8838 155.192 72.0241C155.338 72.1645 155.57 72.1602 155.71 72.0147L156.26 71.4448C156.733 71.468 158.257 71.645 158.849 72.9489C158.7 73.9098 157.874 74.6234 156.89 74.6234ZM158.431 75.3144L158.431 74.8778C158.857 74.5846 159.196 74.1722 159.398 73.6846C159.442 73.9998 159.507 74.2983 159.606 74.5591C159.461 74.7367 159.115 75.0681 158.431 75.3144ZM161.955 69.3761V68.4679C161.955 68.4128 161.943 68.3584 161.919 68.3088C161.683 67.821 161.564 67.3035 161.564 66.7705V65.9878C161.564 64.4632 162.805 63.2228 164.33 63.2228H169.446V66.7706C169.446 67.3035 169.326 67.8211 169.09 68.3088C169.067 68.3584 169.054 68.4129 169.054 68.468V69.5102C169.054 70.5015 168.655 71.4209 167.931 72.0991C167.841 72.1838 167.747 72.2631 167.65 72.3371C167.648 72.3385 167.646 72.3401 167.644 72.3417C166.966 72.8563 166.135 73.1064 165.268 73.0503C163.41 72.9301 161.955 71.3162 161.955 69.3761ZM164.017 76.7413C164.015 76.7438 164.009 76.7498 163.997 76.7486C163.985 76.7474 163.98 76.7404 163.978 76.7374L162.839 75.0298L163.206 74.6449L164.934 75.8253L164.017 76.7413ZM165.505 75.3287L163.521 73.9738V73.2905C164.035 73.5678 164.609 73.7412 165.22 73.7807C165.317 73.787 165.413 73.79 165.508 73.79C166.209 73.79 166.883 73.6227 167.488 73.3052V73.9738L165.505 75.3287ZM167.031 76.7375C167.029 76.7405 167.024 76.7475 167.013 76.7487C167.001 76.7502 166.995 76.7439 166.992 76.7414L166.076 75.8255L167.804 74.645L168.17 75.0299L167.031 76.7375ZM173.718 76.4286L172.887 75.598C172.902 75.5322 172.91 75.4601 172.91 75.3806L172.91 75.2261C173.14 75.3018 173.383 75.3467 173.635 75.3542C173.663 75.3551 173.691 75.3555 173.719 75.3555C173.997 75.3555 174.268 75.3135 174.527 75.2334V75.3808C174.527 75.4538 174.536 75.5254 174.553 75.5941L173.718 76.4286ZM175.099 74.0638C174.711 74.4403 174.198 74.6392 173.657 74.6225C172.597 74.5907 171.735 73.6577 171.735 72.5427V71.8584C171.735 71.8016 171.722 71.7456 171.696 71.6948L171.47 71.2425C171.387 71.0768 171.343 70.8914 171.343 70.7061V70.6843C171.343 69.8071 172.057 69.0934 172.935 69.0934H176.093V70.6137C176.093 70.8594 176.035 71.1054 175.925 71.3252L175.74 71.6948C175.715 71.7456 175.701 71.8016 175.701 71.8584V72.6412C175.701 73.1819 175.487 73.6872 175.099 74.0638Z"
          fill="#1B76FF"/>
    <path d="M176.068 77.7544C175.865 77.7544 175.701 77.9183 175.701 78.1204V80.4687C175.701 80.6708 175.865 80.8347 176.068 80.8347C176.27 80.8347 176.434 80.6708 176.434 80.4687V78.1204C176.434 77.9183 176.27 77.7544 176.068 77.7544Z"
          fill="#1B76FF"/>
    <path d="M154.932 78.238C154.73 78.238 154.566 78.4019 154.566 78.6041V80.4685C154.566 80.6706 154.73 80.8345 154.932 80.8345C155.135 80.8345 155.299 80.6706 155.299 80.4685V78.6041C155.299 78.402 155.135 78.238 154.932 78.238Z"
          fill="#1B76FF"/>
    <path d="M168.505 66.9037C167.119 65.5186 164.222 65.7834 163.04 65.9615C162.668 66.0176 162.397 66.3326 162.397 66.7105V67.5542C162.397 67.7564 162.561 67.9204 162.764 67.9204C162.966 67.9204 163.13 67.7564 163.13 67.5542V66.7105C163.13 66.698 163.138 66.6874 163.149 66.6857C163.621 66.6146 164.558 66.5048 165.528 66.5695C166.67 66.6455 167.497 66.9322 167.987 67.4216C168.13 67.5646 168.362 67.5646 168.505 67.4216C168.648 67.2785 168.648 67.0467 168.505 66.9037Z"
          fill="#1B76FF"/>
    <path d="M161.197 78.5371C160.995 78.5371 160.831 78.701 160.831 78.9031V80.4687C160.831 80.6708 160.995 80.8347 161.197 80.8347C161.4 80.8347 161.564 80.6708 161.564 80.4687V78.9031C161.564 78.701 161.4 78.5371 161.197 78.5371Z"
          fill="#1B76FF"/>
    <path d="M169.812 78.5371C169.61 78.5371 169.446 78.701 169.446 78.9031V80.4687C169.446 80.6708 169.61 80.8347 169.812 80.8347C170.014 80.8347 170.178 80.6708 170.178 80.4687V78.9031C170.178 78.701 170.014 78.5371 169.812 78.5371Z"
          fill="#1B76FF"/>
    <path d="M115.354 51.5262C115.549 51.3309 115.549 51.0143 115.354 50.8191L112.172 47.6371C111.976 47.4418 111.66 47.4418 111.464 47.6371C111.269 47.8323 111.269 48.1489 111.464 48.3442L114.293 51.1726L111.464 54.001C111.269 54.1963 111.269 54.5129 111.464 54.7081C111.66 54.9034 111.976 54.9034 112.172 54.7081L115.354 51.5262ZM69 51.6726H115V50.6726H69V51.6726Z"
          fill="#1B76FF"/>
    <path d="M81.2012 48.4722H79.918V46.1812H75.4766V48.4722H74.2051V45.1147H74.7324C75.1934 44.4546 75.5586 43.6577 75.8281 42.7241C76.1016 41.7866 76.2637 40.7788 76.3145 39.7007H80.252V45.1147H81.2012V48.4722ZM78.8984 45.1147V40.7554H77.5039C77.4297 41.5601 77.2734 42.353 77.0352 43.1343C76.8008 43.9155 76.5137 44.5757 76.1738 45.1147H78.8984ZM88.1504 42.9292C88.1504 43.9878 87.8789 44.814 87.3359 45.4077C86.793 46.0015 86.0371 46.2983 85.0684 46.2983C84.4629 46.2983 83.9277 46.1616 83.4629 45.8882C82.998 45.6147 82.6406 45.2222 82.3906 44.7104C82.1406 44.1987 82.0156 43.605 82.0156 42.9292C82.0156 41.8784 82.2852 41.0581 82.8242 40.4683C83.3633 39.8784 84.123 39.5835 85.1035 39.5835C86.041 39.5835 86.7832 39.8862 87.3301 40.4917C87.877 41.0933 88.1504 41.9058 88.1504 42.9292ZM83.4336 42.9292C83.4336 44.4253 83.9863 45.1733 85.0918 45.1733C86.1855 45.1733 86.7324 44.4253 86.7324 42.9292C86.7324 41.4487 86.1816 40.7085 85.0801 40.7085C84.502 40.7085 84.082 40.8999 83.8203 41.2827C83.5625 41.6655 83.4336 42.2144 83.4336 42.9292ZM98.2051 46.1812H92.3984V45.1382L94.6074 42.9175C95.2598 42.2495 95.6914 41.7769 95.9023 41.4995C96.1172 41.2183 96.2734 40.9546 96.3711 40.7085C96.4688 40.4624 96.5176 40.1987 96.5176 39.9175C96.5176 39.5308 96.4004 39.2261 96.166 39.0034C95.9355 38.7808 95.6152 38.6694 95.2051 38.6694C94.877 38.6694 94.5586 38.73 94.25 38.8511C93.9453 38.9722 93.5918 39.1909 93.1895 39.5073L92.4453 38.5991C92.9219 38.1968 93.3848 37.9116 93.834 37.7437C94.2832 37.5757 94.7617 37.4917 95.2695 37.4917C96.0664 37.4917 96.7051 37.7007 97.1855 38.1187C97.666 38.5327 97.9062 39.0913 97.9062 39.7944C97.9062 40.1812 97.8359 40.5483 97.6953 40.896C97.5586 41.2437 97.3457 41.603 97.0566 41.9741C96.7715 42.3413 96.2949 42.8394 95.627 43.4683L94.1387 44.9097V44.9683H98.2051V46.1812ZM105.061 41.8979C105.061 43.3862 104.82 44.4917 104.34 45.2144C103.863 45.937 103.133 46.2983 102.148 46.2983C101.195 46.2983 100.473 45.9253 99.9805 45.1792C99.4883 44.4331 99.2422 43.3394 99.2422 41.8979C99.2422 40.3862 99.4805 39.2729 99.957 38.5581C100.438 37.8394 101.168 37.48 102.148 37.48C103.105 37.48 103.83 37.855 104.322 38.605C104.814 39.355 105.061 40.4526 105.061 41.8979ZM100.637 41.8979C100.637 43.0659 100.756 43.8999 100.994 44.3999C101.236 44.8999 101.621 45.1499 102.148 45.1499C102.676 45.1499 103.061 44.896 103.303 44.3882C103.549 43.8804 103.672 43.0503 103.672 41.8979C103.672 40.7495 103.549 39.9194 103.303 39.4077C103.061 38.8921 102.676 38.6343 102.148 38.6343C101.621 38.6343 101.236 38.8862 100.994 39.3901C100.756 39.894 100.637 40.73 100.637 41.8979Z"
          fill="#1B76FF"/>
</svg>
