<svg width="20" height="21" viewBox="0 0 20 21" fill="none" xmlns="http://www.w3.org/2000/svg">
    <g clip-path="url(#clip0)">
        <path d="M16.7491 18.1162V20.0838C16.7491 20.2677 16.5998 20.4169 16.4158 20.4169C16.2317 20.4169 16.0825 20.2677 16.0825 20.0838V18.1162C16.0825 16.5842 14.842 15.3445 13.309 15.3445C12.5836 15.3445 11.9255 14.9752 11.5484 14.3566C11.4527 14.1995 11.5025 13.9945 11.6597 13.8988C11.8169 13.8031 12.0219 13.8529 12.1177 14.01C12.3728 14.4285 12.8181 14.6783 13.309 14.6783C15.2103 14.6783 16.7491 16.2159 16.7491 18.1162ZM10.9329 14.7773C10.9721 14.9571 10.8581 15.1345 10.6782 15.1737C9.80111 15.3647 8.90902 15.1735 8.19873 14.689C7.49558 15.4421 6.56662 15.3445 6.69097 15.3445C5.15805 15.3445 3.91746 16.5841 3.91746 18.1162V20.0838C3.91746 20.2677 3.76823 20.4169 3.58417 20.4169C3.40012 20.4169 3.25089 20.2677 3.25089 20.0838V18.1162C3.25089 16.2161 4.78939 14.6783 6.69089 14.6783C7.46004 14.6783 8.08358 14.059 8.08358 13.2901V13.2024C6.62882 12.5072 5.6077 11.0463 5.54546 9.34516C4.94679 9.20131 4.50072 8.66579 4.50072 8.02864V6.30189C4.48251 5.45669 4.60808 3.33981 6.1525 1.85201C8.05954 0.0147965 11.1178 0.131501 13.3666 1.2134C13.5858 1.31895 13.6191 1.61489 13.437 1.76815C14.5763 2.04586 15.5586 2.74576 16.1898 3.74742C16.2223 3.79901 16.282 3.87999 16.2664 4.00919C16.2568 4.08958 16.2328 4.15762 16.1708 4.22049C15.7646 4.63218 15.5409 5.17773 15.5409 5.75667V8.02872C15.5409 8.21267 15.3917 8.36181 15.2076 8.36181C15.0236 8.36181 14.8744 8.21267 14.8744 8.02872V5.75667C14.8744 5.08896 15.1026 4.45519 15.5219 3.94607C14.8829 3.03275 13.8859 2.44535 12.7584 2.32469L12.1726 2.26199C11.83 2.22535 11.7628 1.75375 12.0812 1.6228L12.3476 1.51318C8.87781 0.304288 5.16726 1.64749 5.16726 6.29827V8.02864C5.16726 8.29294 5.31957 8.52264 5.54221 8.63802V6.47867C5.54221 5.19305 6.58882 4.14708 7.87524 4.14708H12.1247C13.4111 4.14708 14.4577 5.19297 14.4577 6.47855V9.2058C14.4577 12.1026 11.6252 14.3028 8.74304 13.4548C8.72429 13.6925 8.66509 13.9218 8.56864 14.135C9.12932 14.5198 9.83735 14.675 10.5363 14.5228C10.7162 14.4836 10.8937 14.5976 10.9329 14.7773ZM9.99996 12.9693C12.0904 12.9693 13.7911 11.2697 13.7911 9.18049V6.47855C13.7911 5.56032 13.0436 4.81325 12.1247 4.81325H7.87524C6.95636 4.81325 6.20879 5.56036 6.20879 6.47867V9.18049C6.20879 11.2697 7.90948 12.9693 9.99996 12.9693ZM13.3745 18.7098H12.3746C12.1906 18.7098 12.0414 18.859 12.0414 19.0429C12.0414 19.2269 12.1906 19.376 12.3746 19.376H13.3745C13.5586 19.376 13.7078 19.2269 13.7078 19.0429C13.7078 18.859 13.5586 18.7098 13.3745 18.7098Z"
              fill="#1B76FF"/>
    </g>
    <defs>
        <clipPath id="clip0">
            <rect width="20" height="19.9877" fill="white" transform="translate(-6.10352e-05 0.429199)"/>
        </clipPath>
    </defs>
</svg>
