<svg width="40" height="41" viewBox="0 0 40 41" fill="none" xmlns="http://www.w3.org/2000/svg">
    <g clip-path="url(#clip0)">
        <path d="M11.848 18.1677L11.8466 18.1932C11.748 19.9175 12.7149 21.5329 14.3105 22.3073L14.3269 22.3153C14.8894 22.5841 15.3505 23.0273 15.6414 23.5783L15.648 23.5903C16.452 25.1196 18.1149 26.0466 19.8876 25.9536L19.9145 25.9522C20.5574 25.9162 21.1956 26.0818 21.7396 26.4262C23.2407 27.3641 25.1461 27.3641 26.6472 26.4262C27.1912 26.0818 27.8294 25.9162 28.4723 25.9522L28.4992 25.9536C30.269 26.0473 31.9341 25.1196 32.7399 23.5878L32.7439 23.5794C33.0359 23.0269 33.4981 22.583 34.0624 22.3139L34.0755 22.3073C35.6711 21.5325 36.6384 19.9175 36.5395 18.1928L36.538 18.1688C36.5053 17.5615 36.674 16.9603 37.0188 16.4586C38.0111 15.0129 38.0111 13.1066 37.0191 11.6605C36.6748 11.1592 36.5053 10.5584 36.538 9.95104L36.5395 9.92561C36.6384 8.2009 35.6711 6.5859 34.0741 5.81072L34.0595 5.80346C33.4981 5.53538 33.0381 5.0944 32.7468 4.5448L32.7384 4.52845C31.9341 2.99918 30.269 2.07253 28.4992 2.16516L28.4719 2.16661C27.8294 2.20257 27.1912 2.03693 26.6476 1.69257H26.6468C25.1457 0.754658 23.2403 0.754658 21.7392 1.69257C21.1952 2.03656 20.557 2.20221 19.9141 2.16624L19.8872 2.16479C18.1171 2.07107 16.4523 2.99881 15.6484 4.52773L15.6422 4.53899C15.3509 5.09113 14.8894 5.53465 14.3262 5.80382L14.3109 5.81109C12.7153 6.58553 11.748 8.2009 11.8469 9.92561L11.8484 9.94959C11.8811 10.5569 11.7124 11.1581 11.3677 11.6594C10.3753 13.1055 10.3753 15.0122 11.3677 16.4579C11.712 16.9592 11.8811 17.5604 11.848 18.1677ZM12.5935 12.5043C13.1255 11.7306 13.3862 10.8029 13.3353 9.86567L13.3338 9.84025C13.2815 8.69747 13.9236 7.63605 14.9604 7.15039L14.9731 7.14421C15.8236 6.73737 16.52 6.06754 16.9593 5.23425L16.9665 5.22044C17.5007 4.20407 18.6196 3.588 19.808 3.65121L19.8341 3.6523C20.785 3.70569 21.7287 3.46087 22.533 2.95159C23.5487 2.31699 24.8374 2.31699 25.853 2.95159C26.6574 3.46014 27.601 3.70533 28.5515 3.65266L28.5777 3.65121C29.7719 3.58873 30.8853 4.20407 31.4181 5.21754L31.4279 5.23606C31.8672 6.06827 32.5628 6.73701 33.4122 7.14349L33.4246 7.14966C34.4777 7.66112 35.117 8.71708 35.0526 9.84061L35.0511 9.86713C35.0002 10.8043 35.2613 11.7317 35.7933 12.5054C36.4362 13.4422 36.4359 14.6773 35.7926 15.6137C35.261 16.3878 35.0002 17.3156 35.0511 18.2527L35.0526 18.2778C35.117 19.4013 34.4777 20.4577 33.4242 20.9695L33.4133 20.9746C32.5621 21.3821 31.865 22.0527 31.4253 22.8874L31.4199 22.8983C30.8853 23.9147 29.7683 24.5311 28.5781 24.4676L28.5523 24.4661C27.6014 24.4131 26.6574 24.6583 25.8526 25.1672C24.8374 25.8014 23.5487 25.8014 22.5334 25.1672C21.8018 24.704 20.953 24.4585 20.0869 24.4592C20.0029 24.4592 19.9185 24.4614 19.8341 24.4661L19.808 24.4672C18.6352 24.5417 17.5258 23.9285 16.9654 22.8965L16.9578 22.8823C16.5193 22.0505 15.824 21.3821 14.9749 20.9757L14.9611 20.9688C13.9076 20.4573 13.2684 19.401 13.3331 18.2778L13.3345 18.2513C13.3851 17.3141 13.124 16.3864 12.5924 15.613C11.9498 14.6762 11.9502 13.4411 12.5935 12.505V12.5043Z"
              fill="#1B76FF"/>
        <path d="M19.388 21.75C19.7367 21.9676 20.196 21.8611 20.4138 21.5128L29.2359 7.39473C29.3799 7.16915 29.3919 6.88363 29.2669 6.64716C29.1418 6.41032 28.8989 6.25921 28.6312 6.25085C28.3636 6.2425 28.112 6.37835 27.9723 6.60684L19.1506 20.7249C18.9327 21.0736 19.0389 21.5324 19.388 21.75Z"
              fill="#1B76FF"/>
        <path d="M20.1785 14.096C21.992 14.096 23.4676 12.4153 23.4676 10.3495C23.4676 8.28366 21.992 6.60327 20.1785 6.60327C18.3651 6.60327 16.8898 8.28366 16.8898 10.3495C16.8898 12.4153 18.3651 14.096 20.1785 14.096ZM20.1785 8.09114C21.1709 8.09114 21.9781 9.10424 21.9781 10.3495C21.9781 11.5947 21.1709 12.6081 20.1785 12.6081C19.1865 12.6081 18.3792 11.5943 18.3792 10.3495C18.3792 9.10461 19.1865 8.09114 20.1785 8.09114Z"
              fill="#1B76FF"/>
        <path d="M24.9187 17.7699C24.9187 19.8357 26.3939 21.5161 28.2074 21.5161C30.0208 21.5161 31.4965 19.8353 31.4965 17.7699C31.4965 15.7048 30.0212 14.0237 28.2078 14.0237C26.3939 14.0237 24.9187 15.7037 24.9187 17.7699ZM30.007 17.7699C30.007 19.0151 29.1998 20.0282 28.2074 20.0282C27.2154 20.0282 26.4081 19.0151 26.4081 17.7699C26.4081 16.5247 27.2154 15.5116 28.2074 15.5116C29.1998 15.5116 30.007 16.5239 30.007 17.7699Z"
              fill="#1B76FF"/>
        <path d="M39.9041 30.1232C38.9179 28.3749 36.7311 27.7091 34.9365 28.6106L29.1027 31.3641C28.2973 29.8678 26.7522 28.9154 25.0519 28.8675L19.6664 28.7193C18.8137 28.6949 17.977 28.4788 17.2188 28.0879L16.6708 27.8042C13.865 26.3432 10.5207 26.3469 7.71779 27.8137L7.75197 26.5735C7.76324 26.1627 7.43924 25.8205 7.02797 25.8093L1.12256 25.6469C0.711287 25.6356 0.369107 25.9593 0.357834 26.3701L0.00110943 39.316C-0.0101633 39.7268 0.313835 40.069 0.725105 40.0802L6.63052 40.2426H6.65125C7.05452 40.2422 7.38433 39.9215 7.39561 39.519L7.41233 38.8997L8.94651 38.0791C9.54868 37.7554 10.253 37.6784 10.9109 37.8644L20.0719 40.433C20.0879 40.4377 20.1039 40.4413 20.1203 40.4449C20.7824 40.5833 21.4573 40.6527 22.1341 40.6524C23.5668 40.6531 24.9828 40.3447 26.2849 39.7475C26.3169 39.733 26.3478 39.7163 26.3773 39.6974L39.6601 31.1142C39.9914 30.9006 40.0983 30.4658 39.9041 30.1232ZM1.51055 38.6131L1.82619 27.1551L6.24289 27.2764L5.92689 38.7348L1.51055 38.6131ZM25.6137 38.418C23.9959 39.1474 22.189 39.3487 20.4501 38.9934L11.3134 36.4321C10.2854 36.1415 9.18432 36.2621 8.2436 36.7674L7.45961 37.1866L7.66979 29.5682C10.1538 27.9176 13.3399 27.7479 15.9857 29.125L16.5337 29.4087C17.4915 29.9027 18.5483 30.1755 19.6257 30.2064L25.0111 30.3546C26.5238 30.3978 27.8086 31.4738 28.1155 32.9544L20.0937 32.7339C19.6824 32.7226 19.3403 33.0463 19.329 33.4571C19.3177 33.8679 19.6417 34.2101 20.053 34.2214L28.9056 34.4648H28.9267C29.3296 34.4644 29.6595 34.1437 29.6707 33.7412C29.6798 33.4179 29.6555 33.0942 29.5987 32.776L35.5812 29.9518L35.5987 29.9434C36.4474 29.514 37.474 29.6575 38.1718 30.303L25.6137 38.418Z"
              fill="#1B76FF"/>
    </g>
    <defs>
        <clipPath id="clip0">
            <rect width="40" height="39.9577" fill="white" transform="translate(0 0.831787)"/>
        </clipPath>
    </defs>
</svg>
