<svg width="40" height="41" viewBox="0 0 40 41" fill="none" xmlns="http://www.w3.org/2000/svg">
    <g clip-path="url(#clip0)">
        <path d="M25.9763 40.671H4.55379C2.28136 40.671 0.434082 38.803 0.434082 36.5087V9.87027C0.434082 7.57603 2.28136 5.70801 4.55379 5.70801H7.84956C8.30438 5.70801 8.6735 6.08095 8.6735 6.54046C8.6735 6.99997 8.30438 7.37291 7.84956 7.37291H4.55379C3.19099 7.37291 2.08197 8.49339 2.08197 9.87027V36.5087C2.08197 37.8856 3.19099 39.0061 4.55379 39.0061H25.9763C27.3391 39.0061 28.4481 37.8856 28.4481 36.5087V9.87027C28.4481 8.49339 27.3391 7.37291 25.9763 7.37291H22.6805C22.2257 7.37291 21.8566 6.99997 21.8566 6.54046C21.8566 6.08095 22.2257 5.70801 22.6805 5.70801H25.9763C28.2487 5.70801 30.096 7.57603 30.096 9.87027V36.5087C30.096 38.803 28.2487 40.671 25.9763 40.671Z"
              fill="#1B76FF"/>
        <path d="M21.0326 10.7027H9.4974C8.1346 10.7027 7.02557 9.5822 7.02557 8.20532V4.87551C7.02557 4.416 7.3947 4.04306 7.84952 4.04306H11.2277C11.61 2.14507 13.276 0.713257 15.265 0.713257C17.254 0.713257 18.92 2.14507 19.3023 4.04306H22.6805C23.1353 4.04306 23.5044 4.416 23.5044 4.87551V8.20532C23.5044 9.5822 22.3954 10.7027 21.0326 10.7027ZM8.67346 5.70797V8.20532C8.67346 8.66483 9.04423 9.03777 9.4974 9.03777H21.0326C21.4858 9.03777 21.8565 8.66483 21.8565 8.20532V5.70797H18.5608C18.1059 5.70797 17.7368 5.33503 17.7368 4.87551C17.7368 3.49864 16.6278 2.37816 15.265 2.37816C13.9022 2.37816 12.7932 3.49864 12.7932 4.87551C12.7932 5.33503 12.424 5.70797 11.9692 5.70797H8.67346Z"
              fill="#1B76FF"/>
        <path d="M36.6875 35.6762C36.3761 35.6762 36.091 35.498 35.9509 35.2167L33.8268 30.9245C33.5417 30.3485 33.3917 29.7058 33.3917 29.0632V14.0324C33.3917 12.1961 34.8699 10.7026 36.6875 10.7026C38.5051 10.7026 39.9833 12.1961 39.9833 14.0324V29.0632C39.9833 29.7058 39.8333 30.3485 39.5482 30.9245L37.4241 35.2167C37.284 35.498 36.999 35.6762 36.6875 35.6762ZM36.6875 12.3675C35.7779 12.3675 35.0396 13.1151 35.0396 14.0324V29.0632C35.0396 29.4478 35.1302 29.8357 35.3 30.1803L36.6875 32.9824L38.075 30.1803C38.2448 29.8357 38.3354 29.4478 38.3354 29.0632V14.0324C38.3354 13.1151 37.5971 12.3675 36.6875 12.3675ZM38.8116 30.5516H38.8281H38.8116Z"
              fill="#1B76FF"/>
        <path d="M24.3284 17.3623H6.20166C5.74684 17.3623 5.37772 16.9894 5.37772 16.5298C5.37772 16.0703 5.74684 15.6974 6.20166 15.6974H24.3284C24.7832 15.6974 25.1523 16.0703 25.1523 16.5298C25.1523 16.9894 24.7832 17.3623 24.3284 17.3623Z"
              fill="#1B76FF"/>
        <path d="M24.3284 22.357H6.20166C5.74684 22.357 5.37772 21.9841 5.37772 21.5246C5.37772 21.0651 5.74684 20.6921 6.20166 20.6921H24.3284C24.7832 20.6921 25.1523 21.0651 25.1523 21.5246C25.1523 21.9841 24.7832 22.357 24.3284 22.357Z"
              fill="#1B76FF"/>
        <path d="M24.3284 27.3517H6.20166C5.74684 27.3517 5.37772 26.9787 5.37772 26.5192C5.37772 26.0597 5.74684 25.6868 6.20166 25.6868H24.3284C24.7832 25.6868 25.1523 26.0597 25.1523 26.5192C25.1523 26.9787 24.7832 27.3517 24.3284 27.3517Z"
              fill="#1B76FF"/>
        <path d="M24.3284 32.3464H6.20166C5.74684 32.3464 5.37772 31.9735 5.37772 31.514C5.37772 31.0545 5.74684 30.6815 6.20166 30.6815H24.3284C24.7832 30.6815 25.1523 31.0545 25.1523 31.514C25.1523 31.9735 24.7832 32.3464 24.3284 32.3464Z"
              fill="#1B76FF"/>
    </g>
    <defs>
        <clipPath id="clip0">
            <rect width="39.5492" height="39.9577" fill="white" transform="translate(0.434082 0.713257)"/>
        </clipPath>
    </defs>
</svg>
