<svg width="40" height="41" viewBox="0 0 40 41" fill="none" xmlns="http://www.w3.org/2000/svg">
    <g clip-path="url(#clip0)">
        <path d="M19.9999 14.2351C18.1595 14.2351 16.6674 15.7256 16.6674 17.5641C16.6696 19.4017 18.1603 20.8909 19.9999 20.893C21.8404 20.893 23.3324 19.4026 23.3324 17.5641C23.3324 15.7256 21.8404 14.2351 19.9999 14.2351ZM19.9999 19.5614C18.8956 19.5614 18.0004 18.6672 18.0004 17.5641C18.0016 16.4614 18.8961 15.5679 19.9999 15.5667C21.1042 15.5667 21.9994 16.4609 21.9994 17.5641C21.9994 18.6672 21.1042 19.5614 19.9999 19.5614Z"
              fill="#1B76FF"/>
        <path d="M26.8908 16.201L25.9702 15.7953C25.9343 15.6669 25.8958 15.5426 25.8543 15.4224L26.3665 14.5395C26.4843 14.3363 26.4863 14.0861 26.3716 13.8812C26.1024 13.4007 25.7808 12.9515 25.4126 12.5418C25.2508 12.3612 25.0036 12.2827 24.7672 12.3369L23.9988 12.5127V8.24275C23.9976 6.78725 23.2045 5.44751 21.9282 4.74527C22.9449 3.68142 22.9057 1.99563 21.8407 0.97997C20.7758 -0.0356105 19.0883 0.00350475 18.0716 1.06744C17.0881 2.09658 17.0881 3.7162 18.0716 4.74527C16.7954 5.44751 16.0022 6.78725 16.001 8.24275V12.5127L15.2326 12.3369C14.9963 12.2828 14.7493 12.3611 14.5876 12.5414C14.2194 12.9511 13.8977 13.4002 13.6282 13.8805C13.5136 14.0856 13.5156 14.3358 13.6334 14.5391L14.1456 15.4221C14.1046 15.5411 14.0664 15.6637 14.0311 15.7901L13.0736 16.1977C12.8279 16.3023 12.6685 16.5433 12.6685 16.8101V18.3172C12.6685 18.5841 12.8279 18.8251 13.0736 18.9297L14.0311 19.3373C14.0665 19.4641 14.1046 19.5863 14.1456 19.705L13.6334 20.5879C13.5156 20.7911 13.5136 21.0412 13.6282 21.2462C13.8975 21.7266 14.2192 22.1758 14.5872 22.5856C14.7489 22.7664 14.9961 22.8449 15.2326 22.7904L16.2004 22.5691C16.2955 22.6435 16.3932 22.7155 16.4937 22.7853L16.5874 23.8109C16.6091 24.0475 16.7554 24.2546 16.9711 24.3545C17.4652 24.5854 17.9839 24.7595 18.5173 24.8733C18.7546 24.9222 18.9999 24.8392 19.1584 24.6562L19.8376 23.8691H20.1623L20.8415 24.6562C20.9999 24.8395 21.2453 24.9226 21.4826 24.8733C22.0158 24.7593 22.5345 24.5853 23.0284 24.3545C23.2441 24.2548 23.3902 24.0477 23.4118 23.8113L23.5059 22.7853C23.6064 22.7157 23.7042 22.6436 23.7994 22.5691L24.7672 22.7904C25.0037 22.8448 25.2509 22.7663 25.4126 22.5856C25.7805 22.1759 26.102 21.7269 26.3716 21.2469C26.4862 21.0417 26.4842 20.7916 26.3665 20.5883L25.8543 19.7053C25.8959 19.5847 25.9346 19.4603 25.9702 19.3322L26.8908 18.9264C27.1323 18.8198 27.2881 18.581 27.2882 18.3172V16.8101C27.2881 16.5465 27.1323 16.3076 26.8908 16.201ZM19.9999 1.58484C20.7362 1.58484 21.3329 2.18097 21.3329 2.91642C21.3329 3.65187 20.7362 4.248 19.9999 4.248C19.2637 4.248 18.667 3.65187 18.667 2.91642C18.6677 2.18131 19.264 1.58559 19.9999 1.58484ZM17.334 8.24275C17.334 6.77193 18.5276 5.57958 19.9999 5.57958C21.4723 5.57958 22.6659 6.77193 22.6659 8.24275V10.6282C22.2833 10.4691 21.8873 10.3439 21.4826 10.2541C21.2454 10.205 21 10.2881 20.8416 10.4712L20.1624 11.2583H19.8377L19.1591 10.4712C19.0004 10.2881 18.755 10.2049 18.5177 10.2541C18.1128 10.3439 17.7168 10.4691 17.334 10.6282V8.24275H17.334ZM25.9551 17.8834L25.1343 18.2453C24.9416 18.3304 24.8005 18.5014 24.7536 18.7066C24.6928 18.9814 24.6088 19.2505 24.5026 19.5112C24.4234 19.7028 24.438 19.9202 24.542 20.0996L25.0162 20.9165C24.9088 21.0829 24.7928 21.2448 24.6682 21.4022L23.7759 21.198C23.5667 21.1495 23.3469 21.2052 23.1862 21.3476C22.9787 21.5298 22.7561 21.6942 22.5207 21.8388C22.3428 21.9489 22.227 22.1361 22.208 22.3443L22.1207 23.2952C21.9414 23.3658 21.7626 23.4264 21.5841 23.4773L20.9726 22.7689C20.846 22.6222 20.6618 22.5378 20.4678 22.5378H19.5319C19.338 22.5379 19.1537 22.6222 19.0271 22.7689L18.4156 23.4776C18.2372 23.4266 18.0579 23.3658 17.879 23.2953L17.7921 22.3447C17.7729 22.1363 17.6569 21.949 17.4787 21.8389C17.2435 21.6941 17.021 21.5298 16.8135 21.3477C16.6527 21.2054 16.433 21.1497 16.2238 21.1981L15.3315 21.4023C15.2068 21.2449 15.0909 21.083 14.9836 20.9166L15.4577 20.0996C15.5617 19.9203 15.5762 19.7028 15.4971 19.5113C15.3908 19.2507 15.3068 18.9814 15.2462 18.7066C15.1987 18.4985 15.0542 18.3257 14.8576 18.2421L14.0014 17.8777V17.2502L14.8576 16.8858C15.0542 16.8022 15.1987 16.6294 15.2462 16.4212C15.3069 16.1464 15.3909 15.8773 15.4971 15.6166C15.5762 15.425 15.5617 15.2076 15.4577 15.0282L14.9836 14.2113C15.0909 14.0449 15.2068 13.883 15.3311 13.7256L16.2238 13.9298C16.433 13.9774 16.6524 13.9218 16.8135 13.7802C17.021 13.598 17.2436 13.4337 17.479 13.289C17.657 13.1789 17.7728 12.9917 17.7918 12.7835L17.879 11.8326C18.0579 11.762 18.237 11.7013 18.4159 11.6503L19.0268 12.359C19.1535 12.5057 19.3379 12.5901 19.5318 12.5901H20.4677C20.6616 12.59 20.8459 12.5056 20.9725 12.359L21.584 11.6503C21.7624 11.7013 21.9417 11.7621 22.1206 11.8326L22.2075 12.7832C22.2267 12.9916 22.3428 13.1789 22.521 13.289C22.7562 13.4337 22.9787 13.598 23.1861 13.7802C23.3472 13.9219 23.5666 13.9775 23.7758 13.9298L24.6683 13.7254C24.793 13.8828 24.9089 14.0447 25.0162 14.2111L24.5421 15.0281C24.4381 15.2074 24.4236 15.4249 24.5027 15.6165C24.6089 15.8771 24.6928 16.1463 24.7536 16.4211C24.8005 16.6262 24.9418 16.7972 25.1344 16.8824L25.9552 17.2442V17.8834H25.9551Z"
              fill="#1B76FF"/>
        <path d="M32.6634 29.5482C30.8229 29.5482 29.3309 31.0387 29.3309 32.8772C29.3309 34.7157 30.8229 36.2061 32.6634 36.2061C34.5038 36.2061 35.9958 34.7157 35.9958 32.8772C35.9937 31.0395 34.503 29.5504 32.6634 29.5482ZM32.6634 34.8745C31.559 34.8745 30.6639 33.9803 30.6639 32.8772C30.6639 31.774 31.559 30.8798 32.6634 30.8798C33.7677 30.8798 34.6628 31.774 34.6628 32.8772C34.6617 33.9798 33.7671 34.8734 32.6634 34.8745Z"
              fill="#1B76FF"/>
        <path d="M39.5543 31.5143L38.6336 31.1086C38.5978 30.9802 38.5592 30.856 38.5177 30.7358L39.0299 29.8529C39.1477 29.6497 39.1497 29.3995 39.0351 29.1946C38.7658 28.7141 38.4443 28.2649 38.076 27.8552C37.9141 27.6748 37.667 27.5963 37.4307 27.6503L36.6623 27.8261V23.5561C36.6611 22.1006 35.8679 20.7609 34.5917 20.0587C35.6083 18.9948 35.5692 17.309 34.5042 16.2934C33.4392 15.2777 31.7516 15.3169 30.7349 16.3808C29.7514 17.4099 29.7514 19.0295 30.7349 20.0586C29.4587 20.7608 28.6655 22.1006 28.6643 23.5561V27.826L27.8959 27.6503C27.6597 27.5965 27.4128 27.6747 27.2509 27.8547C26.8827 28.2644 26.561 28.7135 26.2915 29.1938C26.1769 29.399 26.1789 29.6491 26.2967 29.8524L26.8089 30.7354C26.7679 30.8544 26.7297 30.977 26.6944 31.1034L25.7369 31.511C25.4912 31.6156 25.3318 31.8566 25.3318 32.1235V33.6306C25.3318 33.8974 25.4912 34.1384 25.7369 34.243L26.6944 34.6506C26.7298 34.7774 26.7679 34.8996 26.8089 35.0183L26.2967 35.9012C26.1789 36.1044 26.1769 36.3546 26.2915 36.5595C26.5608 37.0399 26.8825 37.4891 27.2505 37.8989C27.412 38.0799 27.6594 38.1584 27.8959 38.1037L28.8637 37.8824C28.9588 37.9568 29.0565 38.0288 29.157 38.0986L29.2507 39.1242C29.2724 39.3608 29.4187 39.5679 29.6344 39.6678C30.1285 39.8987 30.6472 40.0728 31.1806 40.1866C31.418 40.2361 31.6635 40.1529 31.8217 39.9695L32.5009 39.1824H32.8256L33.5048 39.9695C33.6632 40.1528 33.9086 40.2359 34.1459 40.1866C34.6791 40.0727 35.1978 39.8986 35.6917 39.6678C35.9074 39.5681 36.0535 39.361 36.0751 39.1246L36.1692 38.0986C36.2697 38.029 36.3676 37.9569 36.4627 37.8824L37.4305 38.1037C37.667 38.1586 37.9145 38.08 38.0759 37.8989C38.4438 37.4892 38.7653 37.0402 39.0349 36.5602C39.1495 36.3551 39.1475 36.1049 39.0298 35.9016L38.5176 35.0186C38.5592 34.8981 38.5979 34.7736 38.6335 34.6455L39.5541 34.2397C39.7956 34.1331 39.9514 33.8943 39.9515 33.6306V32.1234C39.9515 31.8598 39.7957 31.6209 39.5543 31.5143ZM32.6634 16.8982C33.3996 16.8982 33.9964 17.4943 33.9964 18.2297C33.9964 18.9652 33.3996 19.5613 32.6634 19.5613C31.9272 19.5613 31.3304 18.9652 31.3304 18.2297C31.3312 17.4946 31.9275 16.8989 32.6634 16.8982ZM29.9974 23.5561C29.9974 22.0852 31.191 20.8929 32.6634 20.8929C34.1358 20.8929 35.3294 22.0852 35.3294 23.5561V25.9415C34.9467 25.7824 34.5508 25.6572 34.1461 25.5674C33.9088 25.5186 33.6637 25.6016 33.505 25.7845L32.8259 26.5716H32.5011L31.8225 25.7845C31.6637 25.6016 31.4185 25.5186 31.1811 25.5674C30.7763 25.6572 30.3802 25.7824 29.9975 25.9415V23.5561H29.9974ZM38.6186 33.1967L37.7978 33.5586C37.6051 33.6437 37.464 33.8147 37.4171 34.0199C37.3564 34.2947 37.2724 34.5638 37.1662 34.8245C37.0869 35.0161 37.1015 35.2335 37.2056 35.4129L37.6797 36.2298C37.5723 36.3962 37.4563 36.5581 37.3318 36.7155L36.4394 36.5113C36.2302 36.4627 36.0104 36.5184 35.8498 36.6609C35.6422 36.8432 35.4196 37.0075 35.1843 37.1521C35.0063 37.2622 34.8905 37.4494 34.8715 37.6576L34.7843 38.6085C34.605 38.6791 34.4261 38.7397 34.2477 38.7906L33.6362 38.0822C33.5095 37.9355 33.3253 37.8511 33.1314 37.8511H32.1954C32.0016 37.8512 31.8173 37.9356 31.6907 38.0822L31.0791 38.7909C30.9008 38.7399 30.7215 38.6791 30.5425 38.6086L30.4556 37.658C30.4365 37.4496 30.3204 37.2623 30.1422 37.1522C29.907 37.0074 29.6845 36.8432 29.4771 36.661C29.3164 36.5186 29.0966 36.4628 28.8874 36.5114L27.995 36.7156C27.8704 36.5582 27.7544 36.3963 27.6471 36.2299L28.1212 35.413C28.2253 35.2336 28.2398 35.0161 28.1606 34.8246C28.0543 34.564 27.9704 34.2948 27.9097 34.02C27.8622 33.8118 27.7178 33.639 27.5211 33.5554L26.6649 33.191V32.5635L27.5211 32.1991C27.7177 32.1155 27.8621 31.9427 27.9096 31.7345C27.9704 31.4597 28.0543 31.1906 28.1606 30.9299C28.2398 30.7384 28.2252 30.5209 28.1212 30.3415L27.647 29.5246C27.7544 29.3582 27.8703 29.1963 27.9946 29.0389L28.8873 29.2431C29.0965 29.2911 29.316 29.2354 29.477 29.0935C29.6845 28.9113 29.9071 28.747 30.1425 28.6023C30.3204 28.4922 30.4362 28.3051 30.4552 28.0968L30.5425 27.1459C30.7214 27.0753 30.9004 27.0146 31.0794 26.9636L31.6902 27.6723C31.817 27.819 32.0013 27.9034 32.1953 27.9034H33.1312C33.3251 27.9033 33.5094 27.8189 33.636 27.6723L34.2475 26.9636C34.4259 27.0146 34.6052 27.0754 34.7841 27.1459L34.871 28.0965C34.8902 28.3049 35.0062 28.4922 35.1844 28.6023C35.4196 28.7471 35.6421 28.9113 35.8496 29.0935C36.0106 29.2354 36.2301 29.2911 36.4393 29.2431L37.3318 29.0388C37.4564 29.1961 37.5724 29.358 37.6797 29.5245L37.2056 30.3414C37.1015 30.5207 37.087 30.7382 37.1662 30.9298C37.2724 31.1904 37.3563 31.4596 37.4171 31.7344C37.464 31.9395 37.6052 32.1106 37.7978 32.1957L38.6186 32.5575V33.1967Z"
              fill="#1B76FF"/>
        <path d="M7.33651 29.5482C5.49606 29.5482 4.00403 31.0387 4.00403 32.8772C4.00619 34.7148 5.4969 36.204 7.33651 36.2061C9.17695 36.2061 10.669 34.7157 10.669 32.8772C10.669 31.0387 9.17695 29.5482 7.33651 29.5482ZM7.33651 34.8745C6.23221 34.8745 5.33702 33.9803 5.33702 32.8772C5.33819 31.7745 6.23271 30.881 7.33651 30.8798C8.44081 30.8798 9.336 31.774 9.336 32.8772C9.336 33.9803 8.44081 34.8745 7.33651 34.8745Z"
              fill="#1B76FF"/>
        <path d="M14.2274 31.5143L13.3067 31.1086C13.2709 30.9802 13.2323 30.856 13.1908 30.7358L13.703 29.8529C13.8208 29.6497 13.8228 29.3995 13.7083 29.1946C13.4389 28.7142 13.1173 28.2649 12.7492 27.8552C12.5872 27.6749 12.3402 27.5965 12.1039 27.6503L11.3355 27.8261V23.5561C11.3342 22.1006 10.5411 20.7609 9.26484 20.0587C10.2815 18.9948 10.2423 17.309 9.17736 16.2934C8.11239 15.2777 6.42482 15.3169 5.40808 16.3808C4.42458 17.4099 4.42458 19.0295 5.40808 20.0586C4.13191 20.7608 3.33869 22.1006 3.33744 23.5561V27.826L2.56906 27.6503C2.33287 27.5966 2.08601 27.6748 1.92406 27.8547C1.5559 28.2644 1.23415 28.7135 0.964636 29.1938C0.850082 29.399 0.852081 29.6491 0.969801 29.8524L1.482 30.7354C1.44035 30.856 1.40169 30.9804 1.36612 31.1085L0.445769 31.5143C0.20433 31.6209 0.0484537 31.8598 0.0483704 32.1235V33.6306C0.0484537 33.8944 0.204247 34.1333 0.445769 34.2399L1.36645 34.6456C1.40227 34.7741 1.44085 34.8983 1.48234 35.0185L0.970134 35.9014C0.852331 36.1045 0.850332 36.3547 0.964886 36.5597C1.23423 37.0401 1.5559 37.4893 1.92397 37.8991C2.08543 38.08 2.33287 38.1586 2.56931 38.1039L3.53714 37.8825C3.6322 37.9569 3.72993 38.029 3.8304 38.0988L3.92413 39.1244C3.94587 39.361 4.092 39.5681 4.30778 39.6679C4.80182 39.8989 5.32052 40.073 5.85397 40.1868C6.09132 40.2364 6.33693 40.1531 6.49505 39.9696L7.17421 39.1826H7.49896L8.17812 39.9696C8.3365 40.153 8.58193 40.2361 8.81921 40.1868C9.35249 40.0728 9.8711 39.8988 10.3651 39.6679C10.5808 39.5682 10.7269 39.3612 10.7485 39.1247L10.8425 38.0988C10.9431 38.0292 11.041 37.9571 11.136 37.8825L12.1039 38.1039C12.3403 38.1587 12.5877 38.0801 12.7492 37.8991C13.1171 37.4894 13.4388 37.0404 13.7083 36.5604C13.8228 36.3552 13.8208 36.105 13.703 35.9017L13.1908 35.0188C13.2325 34.8982 13.2711 34.7738 13.3067 34.6456L14.2274 34.2399C14.4688 34.1333 14.6246 33.8945 14.6248 33.6307V32.1235C14.6247 31.8598 14.4689 31.6209 14.2274 31.5143ZM7.33659 16.8982C8.07281 16.8982 8.66958 17.4943 8.66958 18.2297C8.66958 18.9652 8.07281 19.5613 7.33659 19.5613C6.60036 19.5613 6.00359 18.9652 6.00359 18.2297C6.00434 17.4946 6.60069 16.8989 7.33659 16.8982ZM4.6706 23.5561C4.6706 22.0852 5.86421 20.8929 7.33659 20.8929C8.80896 20.8929 10.0026 22.0852 10.0026 23.5561V25.9415C9.61992 25.7824 9.22394 25.6572 8.81929 25.5674C8.58202 25.5184 8.33666 25.6015 8.1782 25.7845L7.49904 26.5716H7.17429L6.49572 25.7845C6.33701 25.6015 6.09166 25.5186 5.8543 25.5674C5.44949 25.6572 5.05342 25.7824 4.67069 25.9415V23.5561H4.6706ZM13.2917 33.1967L12.4709 33.5586C12.2782 33.6437 12.1371 33.8147 12.0902 34.0199C12.0296 34.2947 11.9457 34.5639 11.8393 34.8245C11.76 35.0161 11.7746 35.2335 11.8787 35.4129L12.3528 36.2298C12.2454 36.3962 12.1294 36.5581 12.0049 36.7155L11.1125 36.5113C10.9033 36.4626 10.6834 36.5183 10.5229 36.6609C10.3153 36.8432 10.0927 37.0075 9.85736 37.1521C9.6794 37.2622 9.5636 37.4494 9.5446 37.6576L9.45738 38.6085C9.27809 38.6791 9.09922 38.7397 8.92076 38.7906L8.30925 38.0822C8.18262 37.9355 7.99842 37.8511 7.80447 37.8511H6.86854C6.67467 37.8512 6.49039 37.9356 6.36375 38.0822L5.75224 38.7909C5.57387 38.7399 5.39458 38.6791 5.21563 38.6086L5.12874 37.658C5.10957 37.4496 4.99352 37.2623 4.81532 37.1522C4.58013 37.0074 4.3576 36.8432 4.15015 36.661C3.98944 36.5187 3.76967 36.4629 3.56047 36.5114L2.66812 36.7156C2.54348 36.5582 2.42751 36.3963 2.32021 36.2299L2.79433 35.413C2.89839 35.2336 2.91289 35.0161 2.83374 34.8246C2.72743 34.564 2.64346 34.2948 2.5828 34.02C2.5359 33.8148 2.39469 33.6438 2.20207 33.5586L1.38136 33.1968V32.5576L2.20215 32.1958C2.39485 32.1106 2.53598 31.9396 2.58289 31.7345C2.64346 31.4597 2.72743 31.1904 2.83382 30.9299C2.91305 30.7383 2.89847 30.5208 2.79442 30.3415L2.32029 29.5245C2.42768 29.3581 2.54356 29.1962 2.66787 29.0388L3.56055 29.243C3.76975 29.2908 3.98919 29.2352 4.15024 29.0934C4.35777 28.9112 4.58038 28.7469 4.81573 28.6023C4.99369 28.4921 5.10949 28.305 5.12849 28.0968L5.21571 27.1458C5.39467 27.0753 5.57371 27.0145 5.75266 26.9635L6.3635 27.6722C6.49022 27.819 6.67459 27.9033 6.86862 27.9033H7.80455C7.99842 27.9033 8.1827 27.8189 8.30934 27.6722L8.92085 26.9635C9.09922 27.0145 9.27851 27.0753 9.45746 27.1458L9.54435 28.0964C9.56352 28.3048 9.67957 28.4921 9.85777 28.6023C10.093 28.747 10.3155 28.9113 10.5229 29.0934C10.6838 29.2354 10.9034 29.2911 11.1126 29.243L12.005 29.0388C12.1296 29.1961 12.2456 29.358 12.3529 29.5245L11.8788 30.3414C11.7747 30.5207 11.7602 30.7382 11.8393 30.9298C11.9457 31.1903 12.0296 31.4596 12.0903 31.7344C12.1372 31.9395 12.2784 32.1106 12.471 32.1957L13.2918 32.5576V33.1967H13.2917Z"
              fill="#1B76FF"/>
        <path d="M12.995 5.66113C8.95741 7.36705 5.681 10.4849 3.77957 14.4308L4.98043 15.0088C6.74115 11.3546 9.77529 8.46711 13.5143 6.88735L12.995 5.66113Z" fill="#1B76FF"/>
        <path d="M25.2386 38.0306C21.9317 39.1124 18.3705 39.1439 15.0449 38.121L14.6492 39.3928C18.2397 40.5029 22.087 40.4686 25.6571 39.2946L25.2386 38.0306Z" fill="#1B76FF"/>
        <path d="M26.8251 5.5863L26.3194 6.81843C30.1964 8.40318 33.3326 11.3899 35.1023 15.1828L36.3096 14.6191C34.3987 10.5231 31.0118 7.29764 26.8251 5.5863Z" fill="#1B76FF"/>
    </g>
    <defs>
        <clipPath id="clip0">
            <rect width="40" height="39.9577" fill="white" transform="translate(0 0.243408)"/>
        </clipPath>
    </defs>
</svg>
