<svg width="35" height="36" viewBox="0 0 35 36" fill="none" xmlns="http://www.w3.org/2000/svg">
    <ellipse cx="17.4399" cy="18.3784" rx="17.4399" ry="17.4892" fill="#1B76FF"/>
    <g clip-path="url(#clip0)">
        <path d="M23.817 15.3842L16.9421 22.2548C16.6978 22.499 16.3028 22.499 16.0584 22.2548L9.18351 15.3842C8.93915 15.14 8.93915 14.7452 9.18351 14.501C9.42787 14.2568 9.82288 14.2568 10.0672 14.501L16.5002 20.93L22.9332 14.501C23.0551 14.3792 23.2151 14.318 23.3751 14.318C23.5351 14.318 23.6951 14.3792 23.817 14.501C24.0613 14.7452 24.0613 15.14 23.817 15.3842Z"
              fill="white"/>
    </g>
    <defs>
        <clipPath id="clip0">
            <rect width="15" height="14.9908" fill="white" transform="matrix(1 0 0 -1 9 25.8735)"/>
        </clipPath>
    </defs>
</svg>
