<svg width="25" height="25" viewBox="0 0 25 25" fill="none" xmlns="http://www.w3.org/2000/svg">
    <circle cx="12.5" cy="12.5" r="12.5" fill="#F44336"/>
    <g clip-path="url(#clip0)">
        <path d="M8.6481 17.008C8.48225 17.008 8.31628 16.9446 8.19005 16.8182C7.93665 16.5649 7.93665 16.1554 8.19005 15.9021L16.8939 7.1982C17.1472 6.94492 17.5567 6.94492 17.81 7.1982C18.0634 7.45149 18.0634 7.86101 17.81 8.11429L9.10615 16.8182C8.97909 16.9452 8.81395 17.008 8.6481 17.008Z"
              fill="white"/>
        <path d="M17.3519 17.008C17.1861 17.008 17.0202 16.9446 16.8939 16.8182L8.19005 8.11429C7.93665 7.86101 7.93665 7.45149 8.19005 7.1982C8.44334 6.94492 8.85274 6.94492 9.10615 7.1982L17.81 15.9021C18.0634 16.1554 18.0634 16.5649 17.81 16.8182C17.6836 16.9452 17.5178 17.008 17.3519 17.008Z"
              fill="white"/>
    </g>
    <defs>
        <clipPath id="clip0">
            <rect width="10" height="10" fill="white" transform="translate(8 7)"/>
        </clipPath>
    </defs>
</svg>
